<?xml version="1.0" encoding="utf-8"?>
<!-- Generator: Adobe Illustrator 21.1.0, SVG Export Plug-In . SVG Version: 6.00 Build 0)  -->
<svg version="1.1"
	 id="svg8" inkscape:version="0.48.5 r10040" sodipodi:docname="Comedy_Central_2018.svg" xmlns:cc="http://creativecommons.org/ns#" xmlns:dc="http://purl.org/dc/elements/1.1/" xmlns:inkscape="http://www.inkscape.org/namespaces/inkscape" xmlns:rdf="http://www.w3.org/1999/02/22-rdf-syntax-ns#" xmlns:sodipodi="http://sodipodi.sourceforge.net/DTD/sodipodi-0.dtd" xmlns:svg="http://www.w3.org/2000/svg"
	 xmlns="http://www.w3.org/2000/svg" xmlns:xlink="http://www.w3.org/1999/xlink" x="0px" y="0px" viewBox="0 0 3543.3 1222.2"
	 style="enable-background:new 0 0 3543.3 1222.2;" xml:space="preserve">
<style type="text/css">
	.st0{fill-opacity:0.9412;}
</style>
<path id="path0" inkscape:connector-curvature="0" d="M3064.9,661.6l-135.8,470.5h97.9l14.2-60h126.3l12.6,60h99.5l-137.4-470.5
	H3064.9z M3104.3,789.5c0,6.3,1.3,15.8,3.9,28.4c2.7,12.6,5,24.2,7.1,34.7L3147,990h-86.8l33.2-137.4c2.1-10.5,4.5-22.1,7.1-34.7
	C3103,805.3,3104.3,795.8,3104.3,789.5L3104.3,789.5z"/>
<path id="path1" inkscape:connector-curvature="0" d="M2611.7,660v472.1h94.7v-150h41l63.2,150h93.2l-66.3-168.9
	c20-13.7,36.3-32.4,49-56.1c12.6-23.7,18.9-50.8,18.9-81.3v-11.1c0-44.2-13.4-81-40.3-110.5c-26.8-29.5-61.3-44.2-103.4-44.2H2611.7
	z M2706.4,748.5h45.8c16.8,0,31.1,5.5,42.6,16.6c11.6,11.1,17.4,28.2,17.4,51.3v3.2c0,26.3-5.8,45.3-17.4,56.8
	c-11.6,11.6-25.8,17.4-42.6,17.4h-45.8V748.5z"/>
<path id="path2" inkscape:connector-curvature="0" d="M2864.3,91.6v472.1h151.6c24.2,0,46.6-4.7,67.1-14.2
	c20.5-9.5,37.6-22.6,51.3-39.5c13.7-16.9,24.5-38.2,32.4-64c7.9-25.8,11.8-53.4,11.8-82.9v-85.3c0-26.3-3.9-51-11.8-74.2
	c-7.9-23.2-18.7-43.2-32.4-60c-13.7-16.8-30.8-29.7-51.3-38.7c-20.5-8.9-42.9-13.4-67.1-13.4H2864.3z M2959.1,180h45.8
	c13.7,0,25.3,2.1,34.7,6.3c9.5,4.2,17.4,10.5,23.7,18.9c7.4,9.5,12.6,20.5,15.8,33.2c3.1,12.6,4.7,26.9,4.7,42.7v75.8
	c0,20-1.6,37.6-4.7,52.9c-3.1,15.3-8.4,28.2-15.8,38.7c-6.3,8.4-14.2,15.3-23.7,20.5c-9.5,5.3-21.1,7.9-34.7,7.9h-45.8V180z"/>
<path id="path3" inkscape:connector-curvature="0" d="M1795.3,85.3c-22.1,0-41.3,2.9-57.6,8.7c-16.3,5.8-31.3,13.5-45,22.9
	c-20,17.9-35.8,41.6-47.4,71.1c-11.6,29.5-17.4,66.3-17.4,110.5v56.8c0,45.3,5.8,83.2,17.4,113.7c11.6,30.5,27.4,53.7,47.4,69.5
	c13.7,10.5,28.7,18.7,45,24.5c16.3,5.8,35.5,8.7,57.6,8.7c20,0,38.2-2.9,54.5-8.7c16.3-5.8,31.3-13.9,45-24.5
	c21.1-15.8,36.9-38.9,47.4-69.5c10.5-30.5,15.8-67.9,15.8-112.1v-58.4c0-44.2-5.3-81-15.8-110.5c-10.5-29.5-26.3-53.2-47.4-71.1
	c-13.7-9.5-28.7-17.1-45-22.9C1833.5,88.2,1815.3,85.3,1795.3,85.3z M1795.3,173.7c9.5,0,17.9,1.6,25.3,4.7
	c7.4,3.1,13.7,7.9,18.9,14.2c7.4,8.4,13.2,21.3,17.4,38.7c4.2,17.4,6.3,40.8,6.3,70.3v53.7c0,29.5-2.1,52.6-6.3,69.5
	c-4.2,16.8-10,29.5-17.4,37.9c-5.3,7.4-11.8,12.9-19.7,16.6c-7.9,3.7-16.1,5.5-24.5,5.5c-10.5,0-20-1.8-28.4-5.5
	c-8.4-3.7-15.3-9.2-20.5-16.6c-7.4-8.4-13.1-21.1-17.4-37.9c-4.2-16.8-6.3-40-6.3-69.5v-53.7c0-29.5,2.1-52.9,6.3-70.3
	c4.2-17.4,10-30.3,17.4-38.7c5.3-6.3,12.1-11,20.5-14.2C1775.3,175.3,1784.8,173.7,1795.3,173.7z"/>
<path id="path6" inkscape:connector-curvature="0" d="M3311.2,660v472.1h232.1v-86.8h-137.4V660H3311.2z"/>
<path id="path7" inkscape:connector-curvature="0" d="M2379.6,748.5v383.7h93.2V748.5h88.4V660h-270v88.4H2379.6z"/>
<path id="path8" inkscape:connector-curvature="0" d="M1946.9,660v472.1h85.2V859l127.9,273.2h83.7V660h-86.8v276.3L2029,660H1946.9
	z"/>
<path id="path9" inkscape:connector-curvature="0" d="M1637.4,660v472.1h240v-86.8h-145.3V936.4h123.2v-88.4h-123.2v-99.5h145.3V660
	H1637.4z"/>
<path id="path10" inkscape:connector-curvature="0" d="M1391.1,762.7c5.3-7.4,11.8-12.4,19.7-15c7.9-2.6,16.6-3.9,26.1-3.9
	c12.6,0,25,3.2,37.1,9.5c12.1,6.3,21.8,19,29.2,37.9l83.7-34.7c-13.7-35.8-34-62.1-60.8-79c-26.9-16.8-56.6-25.3-89.2-25.3
	c-20,0-38.7,3.1-56.1,9.5c-17.4,6.3-32.4,14.7-45,25.3c-20,16.8-35.5,40-46.6,69.5c-11.1,29.5-16.6,66.3-16.6,110.5v58.4
	c0,45.3,5.5,82.7,16.6,112.1c11,29.5,26.6,52.6,46.6,69.5c12.6,10.5,27.6,18.4,45,23.7c17.4,5.3,36.1,7.9,56.1,7.9
	c34.7,0,65-8.1,90.8-24.5c25.8-16.3,45.5-40.8,59.2-73.4l-83.7-37.9c-7.4,18.9-16.8,31.6-28.4,37.9c-11.6,6.3-24.2,9.5-37.9,9.5
	c-9.5,0-18.2-1.3-26.1-3.9c-7.9-2.6-14.5-7.6-19.7-15c-7.4-7.4-13.1-19.7-17.4-37.1c-4.2-17.4-6.3-40.8-6.3-70.3v-52.1
	c0-31.6,2.1-55.8,6.3-72.6C1378,782.1,1383.7,770,1391.1,762.7L1391.1,762.7z"/>
<path id="path11" inkscape:connector-curvature="0" class="st0" d="M675.8,693.2c-13.7,25.3-33.4,45.5-59.2,60.8
	c-25.8,15.3-54,22.9-84.5,22.9c-45.2,0-83.9-16-116.1-48.1c-32.1-32.1-48.1-70.8-48.1-116.1c0-45.3,16-84.2,48.1-116.9
	c32.1-32.6,70.8-48.9,116.1-48.9c30.5,0,58.7,8.1,84.5,24.5c25.8,16.3,45.5,36.6,59.2,60.8l127.9-72.6
	C777.4,412.1,740,374,691.6,345c-48.4-28.9-101.6-43.4-159.5-43.4c-42.1,0-82.1,8.2-120,24.5c-37.9,16.3-70.8,38.4-98.7,66.3
	c-27.9,27.9-50,60.8-66.3,98.7c-16.3,37.9-24.5,78.4-24.5,121.6c0,43.1,8.2,83.7,24.5,121.6c16.3,37.9,38.4,70.8,66.3,98.7
	c27.9,27.9,60.8,50,98.7,66.3c37.9,16.3,77.9,24.5,120,24.5c56.9,0,109.8-14.7,158.7-44.2c48.9-29.5,86.6-67.4,112.9-113.7
	L675.8,693.2z"/>
<path id="path14" inkscape:connector-curvature="0" d="M2196.4,563.7h77.4l69.5-257.4l30,257.4h86.8l-53.7-472.1H2318l-82.1,296.8
	l-82.1-296.8h-90l-55.3,472.1h88.4l28.4-257.4L2196.4,563.7z"/>
<path id="path15" inkscape:connector-curvature="0" d="M2534.3,91.6v472.1h249.5v-86.8h-156.3V367.9h137.4v-90h-137.4V180h156.3
	V91.6H2534.3z"/>
<path id="path16" inkscape:connector-curvature="0" d="M3311.2,336.3v227.4h94.7V336.3l132.6-244.7h-102.6L3357,240l-75.8-148.4
	h-102.6L3311.2,336.3z"/>
<path id="path17" inkscape:connector-curvature="0" d="M1391.1,192.6c5.3-6.3,11.8-11,19.7-14.2c7.9-3.2,16.6-4.7,26.1-4.7
	c12.6,0,25,3.4,37.1,10.3c12.1,6.8,21.8,20.3,29.2,40.2l83.7-37.9c-13.7-35.8-34-61.6-60.8-77.4c-26.9-15.8-56.6-23.7-89.2-23.7
	c-20,0-38.7,2.9-56.1,8.7c-17.4,5.8-32.4,13.4-45,22.9c-20,17.9-35.5,41.6-46.6,71.1c-11.1,29.5-16.6,66.3-16.6,110.5v56.8
	c0,45.3,5.5,83.2,16.6,113.7c11,30.5,26.6,53.7,46.6,69.5c12.6,10.5,27.6,18.7,45,24.5c17.4,5.8,36.1,8.7,56.1,8.7
	c34.7,0,65-8.1,90.8-24.5c25.8-16.3,45.5-41.3,59.2-75l-83.7-36.3c-7.4,17.9-16.8,30.5-28.4,37.9c-11.6,7.4-24.2,11-37.9,11
	c-9.5,0-18.2-1.8-26.1-5.5c-7.9-3.7-14.5-9.2-19.7-16.6c-7.4-8.4-13.1-21.1-17.4-37.9c-4.2-16.8-6.3-40-6.3-69.5v-53.7
	c0-29.5,2.1-52.9,6.3-70.3C1378,214,1383.7,201,1391.1,192.6z"/>
<path id="path2997" inkscape:connector-curvature="0" sodipodi:nodetypes="ccscsscccsscsccscsscccsscsccc" class="st0" d="
	M1143.2,609.5c0,84.2-16.1,163.7-48.2,238.5c-32.1,74.7-75.5,139.7-130.3,195c-54.7,55.3-119.5,98.9-194.2,131
	c-74.8,32.1-154.2,48.2-238.5,48.2c-113.7,0-217.6-29-311.9-86.8C126,1077.4,52.6,1001.6,0,907.9l127.9-69.5
	c39,69.5,94.7,125.8,167.4,169c72.7,43.1,151.6,64.7,236.9,64.7c63.2,0,123.2-12.1,180-36.3c56.8-24.2,106.1-57.1,147.6-98.7
	c41.6-41.6,74.8-90.5,99.5-146.8c24.7-56.3,37.1-116.6,37.1-180.8v3.2c0-64.2-12.4-124.5-37.1-180.8
	c-24.7-56.3-57.9-105.3-99.5-146.8c-41.6-41.6-90.8-74.5-147.6-98.7c-56.8-24.2-116.9-36.3-180-36.3c-85.2,0-164.2,21.6-236.9,64.7
	c-72.6,43.2-128.4,99.5-167.4,169L0,314.2c52.6-93.7,126-169.5,220.3-227.4C314.5,29,418.4,0,532.1,0c84.2,0,163.7,16.1,238.5,48.2
	c74.7,32.1,139.5,75.8,194.2,131c54.7,55.3,98.2,120.3,130.3,195c32.1,74.8,48.2,154.2,48.2,238.5L1143.2,609.5z"/>
</svg>
