<?xml version="1.0" encoding="utf-8"?>
<!-- Generator: Adobe Illustrator 21.1.0, SVG Export Plug-In . SVG Version: 6.00 Build 0)  -->
<svg version="1.1" id="Layer_1" xmlns="http://www.w3.org/2000/svg" xmlns:xlink="http://www.w3.org/1999/xlink" x="0px" y="0px"
	 viewBox="0 0 194.2 50" style="enable-background:new 0 0 194.2 50;" xml:space="preserve">
<style type="text/css">
	.st0{fill:#010101;}
	.st1{fill:#020202;}
	.st2{fill:#030303;}
	.st3{fill:#060606;}
	.st4{fill:#050505;}
	.st5{fill:#454545;}
	.st6{fill:#494949;}
	.st7{fill:#DCDCDC;}
	.st8{fill:#3D3D3D;}
	.st9{fill:#858585;}
	.st10{fill:#969696;}
	.st11{fill:#5B5B5B;}
	.st12{fill:#7C7C7C;}
	.st13{fill:#CACACA;}
	.st14{fill:#8E8E8E;}
	.st15{fill:#AEAEAE;}
	.st16{fill:#A3A3A3;}
	.st17{fill:#CECECE;}
	.st18{fill:#7E7E7E;}
	.st19{fill:#CBCBCB;}
	.st20{fill:#313131;}
	.st21{fill:#626262;}
	.st22{fill:#525252;}
	.st23{fill:#979797;}
	.st24{fill:#595959;}
	.st25{fill:#5D5D5D;}
	.st26{fill:#4D4D4D;}
	.st27{fill:#373737;}
	.st28{fill:#E9E9E9;}
	.st29{fill:#9C9C9C;}
	.st30{fill:#090909;}
	.st31{fill:#121212;}
	.st32{fill:#CCCCCC;}
	.st33{fill:#8D8D8D;}
	.st34{fill:#A8A8A8;}
	.st35{fill:#4B4B4B;}
	.st36{fill:#565656;}
	.st37{fill:#7D7D7D;}
	.st38{fill:#1B1B1B;}
	.st39{fill:#B4B4B4;}
	.st40{fill:#B2B2B2;}
	.st41{fill:#BBBBBB;}
	.st42{fill:#C7C7C7;}
	.st43{fill:#4E4E4E;}
	.st44{fill:#535353;}
	.st45{fill:#575757;}
	.st46{fill:#929292;}
	.st47{fill:#C2C2C2;}
	.st48{fill:#A4A4A4;}
	.st49{fill:#686868;}
	.st50{fill:#7B7B7B;}
	.st51{fill:#727272;}
	.st52{fill:#A6A6A6;}
	.st53{fill:#515151;}
	.st54{fill:#505050;}
	.st55{fill:#646464;}
	.st56{fill:#585858;}
	.st57{fill:#5E5E5E;}
	.st58{fill:#5F5F5F;}
	.st59{fill:#3B3B3B;}
	.st60{fill:#CDCDCD;}
	.st61{fill:#4F4F4F;}
	.st62{fill:#444444;}
	.st63{fill:#656565;}
	.st64{fill:#5A5A5A;}
	.st65{fill:#4A4A4A;}
	.st66{fill:#696969;}
	.st67{fill:#A0A0A0;}
	.st68{fill:#B3B3B3;}
	.st69{fill:#898989;}
	.st70{fill:#959595;}
	.st71{fill:#8A8A8A;}
	.st72{fill:#C3C3C3;}
	.st73{fill:#DDDDDD;}
	.st74{fill:#B0B0B0;}
	.st75{fill:#BEBEBE;}
	.st76{fill:#C5C5C5;}
	.st77{fill:#AAAAAA;}
	.st78{fill:#EBEBEB;}
	.st79{fill:#E6E6E6;}
	.st80{fill:#999999;}
	.st81{fill:#A5A5A5;}
	.st82{fill:#909090;}
	.st83{fill:#B5B5B5;}
	.st84{fill:#C4C4C4;}
	.st85{fill:#D3D3D3;}
	.st86{fill:#E2E2E2;}
	.st87{fill:#7A7A7A;}
	.st88{fill:#717171;}
	.st89{fill:#6F6F6F;}
	.st90{fill:#545454;}
	.st91{fill:#666666;}
	.st92{fill:#E4E4E4;}
	.st93{fill:#777777;}
	.st94{fill:#ADADAD;}
	.st95{fill:#8B8B8B;}
	.st96{fill:#939393;}
	.st97{fill:#737373;}
	.st98{fill:#6A6A6A;}
	.st99{fill:#636363;}
	.st100{fill:#474747;}
	.st101{fill:#464646;}
	.st102{fill:#424242;}
	.st103{fill:#616161;}
	.st104{fill:#B7B7B7;}
	.st105{fill:#B8B8B8;}
	.st106{fill:#484848;}
	.st107{fill:#747474;}
	.st108{fill:#676767;}
	.st109{fill:#878787;}
	.st110{fill:#5C5C5C;}
	.st111{fill:#C9C9C9;}
	.st112{fill:#919191;}
	.st113{fill:#CFCFCF;}
	.st114{fill:#DBDBDB;}
	.st115{fill:#E7E7E7;}
	.st116{fill:#C0C0C0;}
	.st117{fill:#ACACAC;}
	.st118{fill:#9A9A9A;}
	.st119{fill:#E0E0E0;}
	.st120{fill:#888888;}
	.st121{fill:#C6C6C6;}
	.st122{fill:#B6B6B6;}
	.st123{fill:#707070;}
	.st124{fill:#848484;}
	.st125{fill:#D2D2D2;}
	.st126{fill:#D1D1D1;}
	.st127{fill:#DFDFDF;}
	.st128{fill:#C1C1C1;}
	.st129{fill:#A7A7A7;}
	.st130{fill:#EDEDED;}
	.st131{fill:#6B6B6B;}
	.st132{fill:#818181;}
	.st133{fill:#D4D4D4;}
	.st134{fill:#9F9F9F;}
	.st135{fill:#A1A1A1;}
	.st136{fill:#AFAFAF;}
	.st137{fill:#B9B9B9;}
	.st138{fill:#D0D0D0;}
	.st139{fill:#949494;}
	.st140{fill:#828282;}
	.st141{fill:#9D9D9D;}
	.st142{fill:#E5E5E5;}
	.st143{fill:#6D6D6D;}
	.st144{fill:#D5D5D5;}
	.st145{fill:#8F8F8F;}
	.st146{fill:#A9A9A9;}
	.st147{fill:#D9D9D9;}
	.st148{fill:#E8E8E8;}
	.st149{fill:#C8C8C8;}
	.st150{fill:#6C6C6C;}
	.st151{fill:#9B9B9B;}
	.st152{fill:#BABABA;}
	.st153{fill:#868686;}
	.st154{fill:#D6D6D6;}
	.st155{fill:#E1E1E1;}
	.st156{fill:#414141;}
	.st157{fill:#A2A2A2;}
	.st158{fill:#BDBDBD;}
	.st159{fill:#ABABAB;}
	.st160{fill:#BCBCBC;}
	.st161{fill:#F1F1F1;}
	.st162{fill:#D8D8D8;}
	.st163{fill:#3E3E3E;}
</style>
<path d="M23.2,12.4c-1.4-1.5-2.7-2.7-4.4-3.5c-0.1-0.1-0.3-0.2-0.3-0.3c0-1.4-0.1-2.9,0-4.3C18.4,4,18.8,4,19,4
	c4.2,0.1,8.3-0.4,12.5,0.2c6.8,1,11.5,6.5,11.5,13.4c0,6.8-4.8,12.3-11.6,13.3c-3.6,0.5-7.2,0.1-11.1,0.3c1.7-1.3,3-2.6,4-4.2
	c0.2-0.4,0.7-0.2,1-0.2c2.1-0.1,4.2,0.2,6.3-0.4c4-1.1,6.6-4.8,6.4-9.1c-0.2-4.6-3.1-8-7.3-8.7c-2.3-0.4-4.5-0.1-6.8-0.2
	c-0.6,0-0.6,0.3-0.6,0.8C23.2,10.1,23.2,11.1,23.2,12.4z"/>
<path d="M155.1,21.7c-0.1-0.9-0.1-1.9-0.2-2.9c-1-6.2-6.4-9.8-12.4-8.1c-4,1.1-6.6,4.5-7.2,9.2c-0.5,4.3,1.5,8.4,5.1,10.5
	c3.7,2.1,8.6,1.8,12-0.8c2-1.5,2-1.5,0.2-3.2c-0.8-0.8-1.3-1-2.4-0.1c-3.4,2.9-9.5,1.8-10.2-3.6h1.4c4.2,0,8.4,0,12.6,0
	C154.8,22.8,155.2,22.6,155.1,21.7z M149.7,19.1c-1.5,0-3,0-4.5,0c-1.5,0-3,0-4.4,0c-0.7,0-0.8-0.2-0.6-0.8c0.7-2.3,2.8-4,5.2-4
	c2.4,0,4.3,1.7,4.9,4.1C150.4,19,150.2,19.1,149.7,19.1z"/>
<path d="M102.8,10.4c-6.2,0-11,4.7-11,10.8c0,6,4.8,10.7,10.9,10.7c6.1,0,11-4.8,11-10.8C113.7,15,109,10.4,102.8,10.4z M102.8,27.7
	c-3.5,0-6.3-3-6.2-6.7c0-3.7,2.7-6.4,6.2-6.4c3.5,0,6.3,3,6.2,6.7C108.9,24.9,106.3,27.7,102.8,27.7z"/>
<path d="M182.6,25.3c1.5-4.3,3-8.6,4.5-13c0.4-1.2,0.9-1.8,2.2-1.6c1,0.1,2.1,0,3.1,0c0.3,0.4-0.1,0.7-0.2,1
	c-2.9,7.5-5.9,15-8.8,22.5c-0.4,1-0.8,1.9-1.3,2.8c-1,2.1-2.6,3.4-5,3.5c-0.5,0-1,0.1-1.4,0.1c-3.2,0.1-3.2,0.1-3.1-3.1
	c0-0.5,0.1-0.8,0.7-0.7c3.2,0.5,5-1.1,6.1-3.9c0.5-1.2,0.6-2.2,0.1-3.5c-2.3-5.8-4.4-11.7-6.6-17.5c-0.4-1-0.2-1.2,0.8-1.2
	c1,0.1,1.9,0.1,2.9,0c0.8-0.1,1.1,0.3,1.3,1c1.4,4.5,2.9,9.1,4.4,13.6C182.4,25.4,182.5,25.3,182.6,25.3z"/>
<path d="M62.5,31.7c-3.3,0-5.9-0.9-8.3-2.5c-0.6-0.4-0.7-0.7-0.2-1.3c0.6-0.7,0.9-1.9,1.6-2.2c0.7-0.3,1.5,0.7,2.3,1.1
	c1.7,0.8,3.4,1.3,5.3,1.1c1.1-0.1,2-0.5,2.2-1.8c0.2-1.2-0.6-1.8-1.6-2.2c-1.1-0.4-2.2-0.7-3.3-1.1c-0.8-0.3-1.7-0.5-2.5-0.9
	c-2.1-1-3.6-2.5-3.6-5c0-2.6,1.2-4.5,3.6-5.6c3.1-1.4,6.2-0.9,9.2,0.4c2.2,1,2.2,1,1.1,3c-0.8,1.5-0.8,1.5-2.4,0.7
	c-1.6-0.8-3.2-1.3-5.1-1.1c-1,0.1-1.8,0.6-2,1.6c-0.2,1.1,0.5,1.6,1.3,2c1.1,0.5,2.1,0.8,3.2,1.2c1.1,0.4,2.2,0.7,3.2,1.3
	c2,1.1,3.3,2.7,3.1,5.1c-0.1,2.5-1.3,4.4-3.7,5.4C64.8,31.5,63.4,31.7,62.5,31.7z"/>
<path d="M71.8,20.4c0.2-3.8,2.1-7.3,6.3-9.1c4.1-1.7,8.1-1.2,11.7,1.8c0.8,0.6,0.9,1.1,0.1,1.8c-0.1,0.1-0.2,0.2-0.3,0.3
	c-0.6,0.6-1.1,1.6-1.8,1.8c-0.7,0.2-1.2-0.9-1.9-1.3c-3.9-2.5-8.7-0.1-9.2,4.6c-0.3,2.9,0.9,5.6,3.2,6.8c2.3,1.3,5.1,0.8,7.4-1.3
	c0.7-0.6,1-0.5,1.5,0.1c0.4,0.5,0.8,0.9,1.3,1.3c0.8,0.6,0.8,1,0,1.7c-3.1,3-7.7,3.9-11.8,2.2C74.2,29.3,71.8,25.5,71.8,20.4z"/>
<path d="M113.8,10.8c1.5,0,3,0,4.4,0c0.7,0,0.8,0.5,1,0.9c1.5,4.2,3.1,8.4,4.6,12.7c0.1,0.4,0.3,0.7,0.5,1.3
	c1.3-3.4,2.4-6.6,3.6-9.7c0.6-1.5,1.1-3,1.6-4.5c0.2-0.6,0.5-0.7,1-0.7c1,0,2,0.1,3,0c1-0.1,1.3,0.1,0.8,1.1
	c-1.8,4.2-3.4,8.4-5.1,12.6c-0.8,2.1-1.7,4.1-2.5,6.2c-0.2,0.6-0.6,0.8-1.2,0.8c-3.3,0-3.3,0-4.6-3.1c-2.3-5.5-4.5-11.1-6.8-16.6
	C114.1,11.5,114,11.2,113.8,10.8z"/>
<path d="M163.2,14c1.6-1.7,3.5-2.5,5.5-3c0.5-0.1,0.9-0.1,1.1,0.5c0.3,0.9,0.7,1.8,1.1,2.6c0.2,0.5,0.1,0.7-0.4,0.8
	c-0.9,0.1-1.7,0.4-2.5,0.8c-3.1,1.4-4.7,3.7-4.7,7.1c0,2.4-0.1,4.9,0,7.3c0,1-0.3,1.2-1.2,1.1c-0.9-0.1-1.8,0-2.8,0
	c-0.6,0-0.8-0.1-0.8-0.8c0-6.3,0-12.6,0-18.9c0-0.7,0.2-0.9,0.9-0.9c1,0,2,0.1,3,0c0.8-0.1,0.9,0.3,0.9,1
	C163.2,12.4,163.2,13.1,163.2,14z"/>
<path class="st0" d="M45.6,21.1c0-3.1,0-6.2,0-9.4c0-0.7,0.2-1,0.9-0.9c0.9,0.1,1.8,0.1,2.8,0c0.8-0.1,1.1,0.2,1.1,1.1
	c0,4.4,0,8.9,0,13.3c0,1.8,0,3.6,0,5.4c0,0.6-0.2,0.8-0.8,0.8c-1,0-2-0.1-3,0c-0.8,0.1-0.9-0.2-0.9-0.9
	C45.6,27.3,45.6,24.2,45.6,21.1z"/>
<path class="st1" d="M48.9,40c-0.6,0.9-1.2,1.8-1.9,2.8c-0.7-1-1.3-2-2.2-3.2c0,1.6,0,2.8,0,4.1c0,0.5,0,0.8-0.7,0.8
	c-0.6,0-0.8-0.2-0.8-0.8c0-1.9,0-3.8,0-5.6c0-0.3-0.2-0.9,0.4-1c0.5-0.1,1.1-0.2,1.5,0.5c0.5,0.9,1.1,1.8,1.8,2.8
	c0.6-1,1.3-1.8,1.8-2.7c0.4-0.7,1-0.6,1.5-0.6c0.7,0.1,0.4,0.7,0.4,1.1c0,1.8,0,3.7,0,5.5c0,0.6-0.1,0.9-0.8,0.9
	c-0.7,0-0.8-0.3-0.8-0.9c0-1.2,0-2.4,0-3.6C49,40,49,40,48.9,40z"/>
<path class="st0" d="M60.4,40.4c0.6-0.9,1.2-1.7,1.7-2.6c0.4-0.7,0.9-0.8,1.6-0.7c0.8,0.1,0.4,0.8,0.4,1.2c0,1.7,0,3.4,0,5.2
	c0,0.5,0.2,1.1-0.7,1.1c-1,0-0.7-0.7-0.7-1.2c0-1.1,0-2.2,0-3.5c-1,0.9-1.4,2-2.3,3c-0.7-1-1.3-1.9-2-2.9c-0.1,0-0.1,0-0.2,0.1
	c0,1.3,0,2.5,0,3.8c0,0.5,0,0.8-0.7,0.8c-0.7,0-0.8-0.3-0.8-0.9c0-1.9,0-3.8,0-5.6c0-0.3-0.2-0.9,0.4-1c0.5-0.1,1.1-0.2,1.5,0.4
	C59.1,38.4,59.7,39.3,60.4,40.4z"/>
<path class="st0" d="M156.3,41.8c0-1.5,0-2.6,0-3.7c0-0.5-0.2-1.1,0.8-1.1c0.9,0,0.7,0.6,0.7,1c0,1.8,0,3.6,0,5.4
	c0,0.3,0.3,0.9-0.3,1c-0.5,0.1-1,0-1.3-0.5c-0.8-1.2-1.7-2.3-2.6-3.4c-0.2-0.2-0.4-0.4-0.8-0.9c0,1.5,0,2.8,0,4c0,0.5,0,0.8-0.7,0.8
	c-0.7,0-0.8-0.3-0.8-0.9c0-1.8,0-3.6,0-5.4c0-0.4-0.4-1,0.4-1.2c0.6-0.1,1.1,0.1,1.5,0.7C154.1,39,155.1,40.2,156.3,41.8z"/>
<path class="st1" d="M82.8,39.6c0,1.6,0,2.8,0,4.1c0,0.6-0.2,0.8-0.8,0.8c-0.7,0-0.7-0.4-0.7-0.8c0-1.9,0-3.8,0-5.6
	c0-0.3-0.3-0.9,0.3-1c0.5-0.1,0.9-0.1,1.3,0.4c0.9,1.2,1.8,2.4,2.8,3.6c0.1,0.2,0.3,0.3,0.6,0.7c0-1.5,0-2.7,0-3.9
	c0-0.5,0-0.9,0.6-0.8c0.6,0,0.8,0.2,0.8,0.8c0,1.9,0,3.8,0,5.6c0,0.3,0.3,0.9-0.4,1c-0.5,0.1-0.9,0-1.3-0.4
	C85.2,42.6,84.1,41.2,82.8,39.6z"/>
<path class="st0" d="M35.1,36.9c-2.2,0-3.9,1.6-4,3.8c0,2.2,1.6,3.9,3.8,3.9c2.3,0,3.9-1.6,4-3.8C38.9,38.6,37.3,36.9,35.1,36.9z
	 M35.1,43.2c-1.3,0-2.4-1.1-2.4-2.5c0-1.4,1-2.5,2.3-2.5c1.3,0,2.4,1.1,2.3,2.5C37.3,42.2,36.3,43.2,35.1,43.2z"/>
<path class="st0" d="M142.8,36.9c-2.2,0-3.8,1.7-3.8,3.9c0,2.2,1.6,3.8,3.9,3.8c2.2,0,3.8-1.6,3.8-3.9
	C146.7,38.5,145,36.9,142.8,36.9z M142.9,43.3c-1.3,0-2.4-1.1-2.4-2.5c0-1.3,1-2.4,2.3-2.5c1.3,0,2.4,1,2.5,2.4
	C145.3,42,144.2,43.2,142.9,43.3z"/>
<path class="st2" d="M75.9,39.8c0,0.5,0,1,0,1.6c0,2.1-1.1,3.3-3.1,3.3c-2.1,0-3.2-1.1-3.2-3.2c0-1.1,0-2.2,0-3.4c0-0.5-0.1-1,0.8-1
	c0.8,0,0.7,0.4,0.7,0.9c0,1.1,0,2.2,0,3.2c0.1,1.4,0.6,2,1.8,2c1.1,0,1.6-0.6,1.7-2c0-1.2,0-2.3,0-3.5c0-0.5,0.1-0.7,0.7-0.7
	c0.5,0,0.8,0.1,0.8,0.7C75.8,38.4,75.9,39.1,75.9,39.8z"/>
<path class="st1" d="M115.1,37.4c-0.2-0.4-0.5-0.4-0.9-0.4c-0.5,0-0.7,0.2-0.9,0.6c-0.9,2-1.8,4-2.6,6c-0.1,0.3-0.5,0.6-0.2,0.8
	c0.3,0.2,0.9,0.2,1.2,0c0.2-0.1,0.3-0.5,0.4-0.7c0.2-0.7,0.6-1.1,1.4-0.9c0.5,0.1,1,0.1,1.6,0c0.6-0.1,0.9,0.2,1,0.7
	c0.2,1.1,0.9,1.3,2,0.9C117.1,42,116.1,39.7,115.1,37.4z M113.5,41.4c-0.3-0.8,0.5-1.5,0.9-2.2c0.3,0.7,0.6,1.4,1,2.2
	C114.6,41.4,113.5,41.6,113.5,41.4z"/>
<path class="st1" d="M165.8,37c0.7-0.1,1.3,0.1,1.9,0.5c0.3,0.2,1,0.2,0.5,0.9c-0.3,0.4-0.5,0.9-1.2,0.4c-0.4-0.3-0.9-0.4-1.5-0.4
	c-0.4,0-0.8,0.1-0.9,0.6c-0.1,0.5,0.2,0.7,0.6,0.9c0.6,0.2,1.2,0.3,1.7,0.5c1.3,0.4,1.7,1.1,1.6,2.3c-0.1,1.1-0.9,1.8-2.1,2
	c-1.1,0.1-2.1-0.1-3.1-0.7c-0.3-0.2-0.8-0.3-0.4-0.9c0.3-0.3,0.5-0.8,1.1-0.3c0.6,0.5,1.3,0.7,2.1,0.6c0.4-0.1,0.8-0.3,0.8-0.8
	c0-0.4-0.3-0.6-0.6-0.8c-0.5-0.1-0.9-0.3-1.4-0.4c-1.6-0.5-2.1-1.1-1.9-2.5C163.4,37.7,164.3,37,165.8,37z"/>
<path class="st1" d="M103.6,44.6c-1.9,0-3.3-0.9-3.8-2.6c-0.5-1.6,0.1-3.4,1.4-4.4c1.3-1,3.3-1,4.6,0c0.3,0.2,0.9,0.3,0.4,0.9
	c-0.3,0.3-0.5,0.8-1.2,0.4c-1.2-0.8-2.5-0.7-3.2,0.3c-0.8,1-0.8,2.5,0.1,3.4c0.8,0.9,2,1,3.1,0.2c0.6-0.5,0.9-0.2,1.3,0.2
	c0.5,0.6-0.2,0.7-0.5,1C105.1,44.4,104.3,44.7,103.6,44.6z"/>
<path class="st0" d="M24.4,44.6c-1.9,0-3.2-0.9-3.7-2.6c-0.5-1.6,0-3.4,1.4-4.4c1.3-1,3.3-1,4.6,0c0.3,0.2,0.8,0.3,0.4,0.9
	c-0.3,0.4-0.5,0.8-1.2,0.3c-1.2-0.8-2.4-0.7-3.2,0.3c-0.8,0.9-0.7,2.5,0.1,3.4c0.8,0.9,2,1,3.2,0.1c0.5-0.4,0.7-0.1,1.1,0.2
	c0.5,0.4,0.1,0.7-0.2,0.9C26,44.3,25.2,44.7,24.4,44.6z"/>
<path class="st3" d="M124.6,37c0.7,0,1.4,0,2.2,0c0.5,0,0.8,0.1,0.8,0.7c0,0.7-0.3,0.8-0.8,0.7c-1.3-0.2-1.6,0.3-1.5,1.6
	c0.1,1.2,0,2.5,0,3.7c0,0.6-0.2,0.8-0.8,0.8c-0.7,0-0.8-0.3-0.8-0.9c0-1.4-0.1-2.7,0-4.1c0.1-1-0.3-1.3-1.2-1.2
	c-0.5,0.1-1.2,0.3-1.1-0.7c0-0.4,0.1-0.7,0.6-0.6C122.9,37,123.7,37,124.6,37z"/>
<path class="st1" d="M95.1,40.8c0,1,0,1.9,0,2.9c0,0.6-0.1,0.8-0.7,0.8c-0.5,0-0.8-0.1-0.8-0.7c0-2,0-4,0-6c0-0.5,0.1-0.8,0.7-0.8
	c0.7,0,0.8,0.2,0.8,0.8C95.1,38.9,95.1,39.8,95.1,40.8z"/>
<path class="st4" d="M132.6,40.8c0-1,0-2,0-3c0-0.6,0.2-0.8,0.7-0.8c0.6,0,0.7,0.2,0.7,0.8c0,2,0,4,0,6c0,0.5-0.1,0.7-0.7,0.7
	c-0.5,0-0.8-0.1-0.8-0.7C132.6,42.8,132.6,41.8,132.6,40.8z"/>
<path class="st5" d="M23.1,16.5c0.6,1.1,0.8,2.3,0.7,3.6c-0.1,0.4-0.3,0.4-0.8-0.1c0-0.7-0.5-0.1-0.7-0.3c-0.8-0.1-0.5,0.6-0.8,0.9
	c-0.4,0.6-0.5-0.3-0.9-0.1c-0.3-0.1-0.4-0.3-0.4-0.6c0.2-0.7,0.2-1.4,0-2.2c-0.2-0.6-0.3-1.3,0.6-1.6c0.3,0,0.7,0.1,1,0.1
	C22.3,16.4,22.7,16.6,23.1,16.5z"/>
<path class="st6" d="M20.9,20.3c0.4-0.4,0.1,0.6,0.5,0.2c0.3-0.3,0.6-0.7,1-1c0.2,0.2,0.8-0.8,0.7,0.2c0.2,0.4-0.2,1.2,0.7,1
	c0.1,1.3-0.2,2.6-0.8,3.8c-0.2,0.1-0.4,0-0.5-0.1c-0.1-0.1-0.2-0.3-0.4-0.4c-0.2-0.1-0.5-0.2-0.6-0.4c0-0.1,0-0.2,0-0.3
	c0.8-1-0.6-0.1-0.5-0.5c-0.2-0.1-0.3-0.3-0.4-0.5c-0.1-0.4-0.3-0.8-0.4-1.2C20.4,20.8,20.7,20.6,20.9,20.3z"/>
<path class="st7" d="M13.7,9.8c0.1,0,0.1,0,0.2,0c0.8,0,1.4,0.6,2,1c0.8,0.6,0.3,1.1-0.2,1.5c-0.8,0.1-1.5-0.2-2.2-0.6
	c-0.1-0.1-0.1-0.2-0.2-0.3C13.2,10.8,13.4,10.2,13.7,9.8z"/>
<path class="st8" d="M23.1,16.5c-0.4,1-0.8,0.1-1.2,0c-0.2-0.2-0.4-0.3-0.5-0.6c0-0.3,0.1-0.6-0.2-0.9c-0.2-0.3-0.3-0.5-0.5-0.7
	c-0.1-0.1-0.1-0.2-0.1-0.3c0-0.1,0.1-0.2,0.2-0.2c0.3-0.1,0.6-0.1,0.8,0.2C22.3,14.6,22.7,15.6,23.1,16.5z"/>
<path class="st9" d="M16.4,10.2c0.2,0.1,0.5,0.2,0.7,0.3c0.2,0.3,0.4,0.5,0.8,0.7c0.6,0.2,0.7,0.7,0.5,1.2c-0.4,0.6-1,0.5-1.5,0.6
	c-0.3,0-0.6-0.2-0.6-0.5c0.1-0.6,0.2-1.1-0.2-1.7C15.9,10.6,15.9,10.2,16.4,10.2z"/>
<path class="st10" d="M16.4,10.2c-0.5,0.3,0,0.6,0.1,0.8c0.1,0.5,0.6,1-0.2,1.4c-0.2,0.2-0.4,0.2-0.7,0.1c-0.1-0.1-0.1-0.2,0-0.3
	c0.6-0.6,0.6-1.1-0.3-1.4c-0.5-0.2-0.8-0.8-1.4-1C14.8,9.8,15.6,9.9,16.4,10.2z"/>
<path class="st11" d="M20.2,28.5c-0.2,0.3-0.5,0.6-0.9,0.5c-0.2-0.1-0.5,0.1-0.8,0c-0.3-0.4-0.6-0.9,0-1.4c0.2-0.1,0.3-0.1,0.5-0.2
	c0.6-0.1,1.1-0.6,1.7-0.2c0.1,0.1,0.2,0.3,0.1,0.5C20.6,28,20.4,28.2,20.2,28.5z"/>
<path class="st12" d="M20.7,27.8c0-0.2,0-0.3,0-0.5c0,0,0-0.1,0.1-0.1c0.1-0.2,0.2-0.3,0.3-0.5c0.1-0.1,0.2-0.3,0.2-0.4
	c0.5-0.4-0.1-1.1,0.4-1.6c0.3-0.2,0.5-0.5,0.9-0.3c0.1,0.1,0.3,0.2,0.4,0.2c-0.6,1.2-1.2,2.5-2.4,3.4C20.6,28,20.6,27.9,20.7,27.8
	C20.6,27.8,20.7,27.8,20.7,27.8z"/>
<path class="st6" d="M21.6,13.9c-0.3,0-0.6,0-0.9,0c-0.5,0.1-0.8-0.5-1.2-0.6c-0.2-0.2-0.3-0.3-0.4-0.5c-0.2-0.4-0.3-0.8,0.2-1
	C20.2,12.2,21,12.9,21.6,13.9z"/>
<path class="st13" d="M3.7,15.5c0.4-0.9,1-1.6,1.7-2.3c0.4,0.4,0.3,0.8,0.3,1.3c0,0.3-0.1,0.6-0.3,0.9c-0.3,0.3-0.7,0.5-1.1,0.5
	C3.9,15.9,3.7,15.8,3.7,15.5z"/>
<path class="st14" d="M2.5,21.3c0-0.6,0-1.3,0-1.9c0.1-0.1,0.3-0.2,0.4-0.1c0.3,0.2,0.7,0.2,1,0.3c0.3,0.1,0.4,0.3,0.5,0.6
	c0,0.1,0,0.2-0.1,0.3c-0.1,0.1-0.3,0.2-0.4,0.2c-0.3,0-0.3,0.3-0.4,0.6C3.2,21.6,2.9,21.6,2.5,21.3z"/>
<path class="st15" d="M2.9,19.4c-0.2,0-0.3,0-0.5,0c-0.1-0.8,0.3-1.4,0.5-2.2c0.3-0.3,0.5,0,0.7,0.2c0.1,0.3,0.2,0.5,0.5,0.7
	c0.1,0.1,0.1,0.1,0.2,0.2c0.1,0.2,0.2,0.4,0.2,0.6c0,0.1-0.1,0.2-0.2,0.3c-0.1,0.1-0.3,0.1-0.5,0C3.5,19.1,3.3,19.5,2.9,19.4z"/>
<path class="st16" d="M3.9,20.4c0.2,0,0.3,0,0.5,0c0.3,0.2,0.4,0.6,0.4,0.9c0,0.2-0.1,0.3-0.3,0.4c-0.4-0.3-0.5,0.2-0.8,0.3
	c-0.5,0.1-0.3,0.6-0.5,0.9c-0.3,0.1-0.4-0.2-0.6-0.3c-0.3-0.4-0.1-0.8-0.1-1.2c0.4,0,0.8,0.2,0.9-0.5C3.9,21,3.7,20.5,3.9,20.4z"/>
<path class="st17" d="M13.7,9.8c-0.1,0.5-0.2,1-0.3,1.5c-0.2,0.2-0.4,0.4-0.7,0.3c-0.3-0.1-0.6-0.3-0.9-0.4
	c-0.1-0.1-0.2-0.2-0.2-0.3c0-0.2,0.1-0.4,0.4-0.5c0.3,0.1,0.6,0,0.7-0.4C13,9.5,13.5,10,13.7,9.8z"/>
<path class="st18" d="M18.5,27.8c-0.4,0.5,0.1,0.8,0.3,1.2c0.2,0.1,0.2,0.3,0.2,0.5c-0.1,0.1-0.3,0.2-0.4,0.3
	c-0.1,0-0.2-0.1-0.3-0.2c-0.1-0.1-0.1-0.3,0-0.4c-0.1,0.1-0.1,0.3-0.2,0.4c-0.3,0-0.4-0.2-0.4-0.3c-0.1-0.2-0.2-0.4-0.3-0.7
	c0-0.1,0-0.2,0-0.3c0.1-0.3,0.3-0.6,0.6-0.8c0.2-0.1,0.3-0.1,0.5,0C18.5,27.5,18.6,27.6,18.5,27.8z"/>
<path class="st16" d="M4.9,27.3c0,0-0.1-0.1-0.1-0.2c-0.1-0.2,0-0.4,0.1-0.6c0.2-0.2,0.4-0.4,0.7-0.5c0.1,0,0.2,0,0.3,0.1
	c0.2,0.2,0.2,0.5,0.2,0.8c0,0.4,0.3,0.6,0.6,0.8C6.8,28,7.2,28.2,7,28.6c-0.2,0.2-0.4,0.1-0.6,0.1C6.1,28.5,6,28.1,5.6,28l0,0
	C5.4,27.7,5.2,27.5,4.9,27.3z"/>
<path class="st19" d="M8.7,10.8c0.2-0.3,0.4-0.2,0.7-0.3c0.4,0.1,0.8-0.2,1.2-0.1c0.2,0.5,0.4-0.1,0.6,0c0.1,0,0.2,0,0.3,0.1
	c0.2,0.1,0.3,0.3,0.4,0.5l0,0c0.1,0.3-0.2,0.4-0.4,0.5c-0.4,0.1-0.8,0.2-1.2,0.1c-0.3-0.2-0.7-0.3-1-0.3C9,11.2,8.8,11,8.7,10.8z"/>
<path class="st20" d="M186.8,39.8c0.2-0.5,0.1-1.4,0.7-1.3c0.7,0.1,0.2,0.9,0.3,1.4c0.1,0.2,0,0.5,0,0.8c-0.6-0.1-0.3-0.8-0.7-0.9
	C187,39.9,186.9,39.9,186.8,39.8z"/>
<path class="st21" d="M18.3,12.5c0-0.5,0.1-1-0.6-1c-0.5,0-0.6-0.5-0.5-0.9c0.5,0.3,1.1,0.2,1.4,0.7c0.4,0.5,0.3,1,0.4,1.6
	c0,0.1-0.1,0.2-0.2,0.2C18.3,13,18.1,12.9,18.3,12.5z"/>
<path class="st22" d="M14.7,30.9c-0.1,0-0.3,0-0.4,0C14.2,31,14.1,31,14,31c-0.3-0.1-0.4-0.4-0.7-0.5c-0.2-0.1-0.5-0.2-0.6-0.5
	c-0.2-0.6,0.5-0.4,0.7-0.6c0.3-0.1,0.6,0.1,0.8,0.2c0.2,0.1,0.5,0.2,0.6,0.4c-0.1,0.2,0.1,0.4,0.1,0.6
	C14.8,30.8,14.8,30.9,14.7,30.9z"/>
<path class="st23" d="M2.6,22.5c0.2,0.1,0.4,0.2,0.5,0.2c0.6,0.3,0.8,0.9,0.9,1.5c0,0.1,0,0.2,0,0.3c-0.2,0.3-0.4,0.1-0.6,0.2
	C2.7,24.1,2.8,23.3,2.6,22.5z"/>
<path class="st24" d="M10.8,30.9c-0.5,0-1-0.2-1.4-0.4c-0.1-0.2-0.1-0.3-0.1-0.5c0.2-0.3,0.4-0.3,0.7-0.5c0.3-0.1,0.7-0.3,0.7,0.3
	c-0.1,0.5,0.7,0.5,0.6,1C11.2,31.1,11,31,10.8,30.9z"/>
<path class="st25" d="M10.8,30.9c0.2,0,0.4,0,0.5-0.3c0-0.2,0.1-0.3,0.3-0.4c0.2-0.1,0.4-0.1,0.7,0c0.1,0,0.2,0.1,0.3,0.2
	c0.4,0.2,1,0.1,1.4,0.4c0.1,0,0.2,0,0.3,0C13.1,31.4,11.9,31.2,10.8,30.9z"/>
<path class="st26" d="M23.8,20.8c-0.3,0.2-0.5,0.5-0.9,0.2c-0.5-0.4,0.1-0.7,0.1-1.1c0.3,0,0.4,0.6,0.7,0.2
	C24,20.3,24,20.6,23.8,20.8z"/>
<path class="st27" d="M8.7,30.2c-0.6-0.1-1-0.4-1.4-0.8c-0.1-0.1-0.2-0.3-0.1-0.5c0.2-0.2,0.4-0.2,0.7-0.2c0.1,0,0.2,0.1,0.3,0.1
	c0.3,0.2,0.5,0.5,0.7,0.8C8.9,29.9,9.3,30.2,8.7,30.2z"/>
<path class="st28" d="M3.7,15.5c0.2,0.1,0.3,0.2,0.5,0.2c0.3,0.2,0.6,0.4,0.6,0.8c-0.1,0.2-0.2,0.5-0.4,0.6c-0.5,0-1.1,0-0.9-0.8
	C3.4,16,3.4,15.7,3.7,15.5z"/>
<path class="st15" d="M5.5,13.1c0.3-0.5,0.8-0.8,1.2-1.2c0.3,0,0.6,0.2,0.6,0.6c-0.3,0.6-0.7,0.8-1.3,0.9
	C5.8,13.4,5.7,13.3,5.5,13.1z"/>
<path class="st29" d="M5.5,13.1c0.2,0,0.3,0,0.5,0c0.3,0.2,0.7,0.3,0.8,0.7c0,0.1,0,0.2-0.1,0.3c-0.1,0.1-0.3,0.1-0.4,0.1
	c-0.4-0.1-0.6,0.3-0.9,0.2c0-0.5,0-0.9,0-1.4C5.4,13.2,5.5,13.2,5.5,13.1z"/>
<path class="st30" d="M184.6,38.9c0,0.6,0,1.2,0,2c-0.7-0.7-0.2-1.5-0.5-2c0-0.2,0-0.3,0.2-0.3C184.6,38.5,184.7,38.6,184.6,38.9z"
	/>
<path class="st31" d="M186.1,39.6c-0.4,0.3,0,0.8-0.4,1.2c0-0.8,0-1.6,0-2.4c0.6,0.3,0.6,0.8,0.7,1.2
	C186.3,39.7,186.2,39.7,186.1,39.6z"/>
<path class="st32" d="M3.4,16.3c0.1,0.6,0.5,0.6,1,0.7c0.1,0.2,0,0.3,0,0.4c-0.1,0.1-0.1,0.1-0.2,0.2c-0.2,0.1-0.4,0.3-0.7,0.1
	c0-0.3-0.2-0.5-0.5-0.5C3,16.9,3.1,16.5,3.4,16.3z"/>
<path class="st33" d="M17.6,30.2c-0.4,0.3-0.8,0.5-1.2,0.5c-0.6-0.3-0.2-0.6,0-1c0.3-0.5,0.6-0.4,1-0.1C17.5,29.8,17.6,30,17.6,30.2
	z"/>
<path class="st34" d="M5.1,26.6C5,26.8,4.9,27,4.8,27.1c-0.3-0.3-0.6-0.6-0.7-1c0.2-0.3-0.5-1.1,0.5-1.1c0.1,0.1,0.2,0.2,0.2,0.3
	C4.9,25.8,5,26.2,5.1,26.6z"/>
<path class="st16" d="M4.6,25.1c-0.8,0,0.1,0.9-0.5,1c-0.2-0.3-0.3-0.6-0.5-0.9c0-0.2,0.3-0.3,0.3-0.5c0-0.1,0-0.2,0-0.2
	C4.6,24.2,4.9,24.4,4.6,25.1z"/>
<path class="st35" d="M184.6,38.9c-0.1-0.3-0.3-0.3-0.5,0c-0.2,0-0.5,0.1-0.6-0.2c0-0.3,0.3-0.2,0.4-0.2c0.2,0,0.5,0,0.7,0
	c0.2,0,0.6-0.1,0.6,0.2C185.3,39,184.8,38.8,184.6,38.9z"/>
<path class="st36" d="M18.8,12.7c-0.1-0.5-0.2-1-0.2-1.5c0.3,0.1,0.5,0.2,0.7,0.5c-0.2,0.3-0.3,0.7,0,1
	C19.1,12.8,18.9,12.8,18.8,12.7z"/>
<path class="st23" d="M16.6,30c-0.2,0.2-0.5,0.4-0.2,0.7c-0.1,0.2-0.3,0.2-0.5,0.2c-0.1-0.2-0.4,0-0.5-0.2c0-0.3,0.2-0.5,0.3-0.8
	c0.1-0.1,0.1-0.2,0.2-0.2C16.2,29.6,16.4,29.8,16.6,30z"/>
<path class="st37" d="M7.2,28.9c0,0.2,0,0.3,0,0.5c-0.4-0.1-0.6-0.5-1-0.7c-0.1,0-0.1-0.1-0.1-0.1c0,0,0.1-0.1,0.1-0.1
	c0.2,0,0.5,0,0.7,0C7.4,28.5,7.4,28.7,7.2,28.9z"/>
<path class="st38" d="M186.1,39.6c0.1,0,0.2,0,0.3,0c0.2-0.1,0.1,0.6,0.4,0.3c0.1,0,0.2,0,0.3,0c-0.1,0.3,0,0.7-0.4,0.7
	C186.1,40.5,186.2,39.9,186.1,39.6z"/>
<path class="st39" d="M12.8,10c0.1,0.7-0.3,0.6-0.7,0.5c-0.2,0.1-0.3,0-0.4-0.2c0-0.2,0-0.3,0.2-0.5C12.1,9.9,12.5,9.9,12.8,10z"/>
<path class="st40" d="M11.3,10.5c-0.2-0.2-0.5,0.7-0.7,0c-0.1-0.1-0.4-0.2-0.2-0.4c0.1,0,0.3-0.1,0.4-0.1
	C11.3,9.9,11.5,9.9,11.3,10.5z"/>
<path class="st41" d="M7.3,12.4c-0.2-0.2-0.3-0.3-0.5-0.5c0.1-0.3,0.5-0.2,0.7-0.3c0.2,0,0.4,0.1,0.6,0.3
	C7.9,12.4,7.7,12.5,7.3,12.4z"/>
<path class="st42" d="M10.4,10.1c0.1,0.1,0.1,0.3,0.2,0.4c-0.4-0.1-0.8,0.5-1.2,0C9.7,10.3,10.1,10.2,10.4,10.1z"/>
<path class="st42" d="M8.7,10.8c0.3,0,0.5,0.2,0.5,0.5c0,0-0.1,0.1-0.1,0.1c-0.3,0.2-0.6,0.1-0.9,0.1c-0.1,0-0.2-0.1-0.2-0.2
	C8.2,11,8.4,10.9,8.7,10.8z"/>
<path class="st43" d="M15.4,30.6c0.2,0.1,0.4,0.1,0.5,0.3c-0.4,0-0.8,0.5-1.2,0c0-0.1,0-0.2,0-0.3C14.9,30.4,15.2,30.4,15.4,30.6z"
	/>
<path class="st19" d="M11.3,10.5c0-0.4-0.2-0.5-0.5-0.5c0.3-0.3,0.7-0.2,1-0.2c0,0.2,0,0.3,0,0.5C11.7,10.4,11.6,10.6,11.3,10.5
	L11.3,10.5z"/>
<path class="st44" d="M8.7,30.2c0.3-0.2,0.1-0.3,0-0.5C9,29.5,9.3,29.6,9.4,30c0,0.2,0,0.4,0,0.6C9.1,30.4,8.8,30.4,8.7,30.2z"/>
<path class="st45" d="M19,29.5c-0.1-0.2-0.1-0.3-0.2-0.5c0-0.1,0.1-0.3,0.1-0.3c0.2-0.1,0.3,0.2,0.4,0.3
	C19.2,29.2,19.2,29.4,19,29.5z"/>
<path class="st46" d="M3.9,24.7c0.1,0,0.2,0.1,0.3,0.1c-0.2,0.1-0.4,0.3-0.6,0.4c-0.1-0.2-0.1-0.3-0.2-0.5
	C3.5,24.4,3.7,24.6,3.9,24.7z"/>
<path class="st47" d="M8,12c-0.2,0-0.4-0.1-0.5-0.3c0-0.3,0.2-0.4,0.5-0.5c0,0,0,0.1,0,0.1c0.1,0.1,0.2,0.3,0.2,0.4
	C8.1,11.8,8,11.9,8,12z"/>
<path class="st48" d="M6.3,28.5c0,0.1,0,0.1,0,0.2C6,28.6,5.7,28.3,5.6,28C6.1,27.7,6.1,28.3,6.3,28.5z"/>
<path class="st49" d="M18,29.5c0-0.1,0.1-0.2,0.1-0.3c0.1,0.2,0.3,0.4,0.4,0.6c-0.1,0.2-0.3,0.2-0.5,0.3c-0.1-0.1-0.1-0.2-0.1-0.3
	C17.9,29.6,18,29.5,18,29.5z"/>
<path class="st50" d="M18,29.7c0,0.1,0,0.2,0,0.3c-0.1,0.1-0.3,0.2-0.4,0.2c-0.2-0.1-0.3-0.3-0.3-0.5c0,0,0.1-0.1,0.1-0.1
	C17.7,29.5,17.8,29.6,18,29.7z"/>
<path class="st51" d="M20.7,27.8c0,0.1,0,0.2,0,0.3c-0.2,0.2-0.3,0.3-0.5,0.5C20.2,28.2,20.2,27.8,20.7,27.8z"/>
<path class="st52" d="M4.9,27.3c0.4,0,0.7,0.3,0.7,0.7C5.3,27.9,5,27.6,4.9,27.3z"/>
<path class="st21" d="M20.9,16.3c-0.5,0.5-0.5,1-0.3,1.6c0.3,0.7,0.3,1.4-0.2,2c-0.1,0-0.2-0.1-0.3-0.1c-0.1-0.1-0.1-0.2-0.1-0.3
	c-0.2-0.5,0.3-1.3-0.6-1.6c-0.1,0-0.2-0.1-0.2-0.2c0-0.5,0.4-1,0.5-1.5c0.3-0.2,0.6-0.4,1-0.3C20.9,16,21,16.1,20.9,16.3z"/>
<path class="st53" d="M20.9,16.3c-0.1-0.1-0.1-0.2-0.2-0.2c-0.1-0.1-0.3-0.2-0.4-0.3c-0.1-0.5,0-0.8,0.5-1c0.2,0,0.3,0.1,0.4,0.2
	c0.2,0.2,0.2,0.6,0.4,0.8c0.1,0.2,0.2,0.5,0.2,0.7C21.5,16.5,21.2,16.6,20.9,16.3z"/>
<path class="st54" d="M22.4,19.6c0,0.6-0.5,0.7-1,1c0.1-0.3,0.1-0.7,0.3-1C21.9,19,22.2,19,22.4,19.6z"/>
<path class="st55" d="M20.2,19.6c0.1,0.1,0.2,0.2,0.3,0.3c0,0.3,0.2,0.4,0.5,0.4c0,0.3-0.2,0.6-0.4,0.8c-0.1,0-0.1,0-0.2-0.1
	C19.9,20.6,19.8,20.1,20.2,19.6z"/>
<path class="st45" d="M21.6,23.5c0,0.1,0,0.2,0,0.2c0,0.2-0.1,0.3-0.2,0.4c-0.1,0.1-0.3,0.3-0.4,0.4c-0.1,0.1-0.2,0.1-0.3,0.1
	c-0.3,0.1-0.4,0.3-0.6,0.5c-0.2,0.1-0.4,0.1-0.5,0.2c-0.1,0.1-0.2,0.1-0.2,0.2c-0.2,0.2-0.3,0.5-0.5,0.7c-0.2,0.2-0.3,0.3-0.6,0.2
	c-0.4-0.1-0.7-0.4-0.8-0.8c-0.1-0.2-0.1-0.3,0-0.5c0.1-0.5,0.5-0.8,0.8-1.1c0.7-0.4,1-1,1.5-1.6c0.2,0,0.4-0.1,0.6-0.2
	c0.2-0.1,0.4-0.2,0.6,0c0.1,0.2,0.2,0.3,0.2,0.5C21.1,23.1,21.8,23,21.6,23.5z"/>
<path class="st56" d="M21.6,23.5c0.1-0.4-1.6,0.3-0.5-0.7c0.4,0.1,0.7-0.2,1.2-0.3C22.3,23,22.2,23.4,21.6,23.5z"/>
<path class="st57" d="M20.9,22.3c-0.2,0.1-0.3,0.2-0.5,0.2c-0.2-0.2-0.4-0.3-0.5-0.6c-0.1-0.1-0.1-0.2-0.1-0.3
	c0.1-0.4,0.2-0.7,0.6-0.6c0,0,0,0,0,0C20.7,21.5,21,21.8,20.9,22.3z"/>
<path class="st58" d="M22.6,24.4c-0.2,0.2-0.5,0.3-0.7,0.5c-0.2-0.1-0.4-0.3-0.3-0.5c0.2-0.3,0.4-0.6,0.8-0.4
	C22.5,24,22.6,24.2,22.6,24.4z"/>
<path class="st59" d="M22.4,23.9c-0.2,0.2-0.5,0.3-0.7,0.5c-0.2-0.1-0.4-0.2-0.3-0.5c0.1-0.1,0.2-0.2,0.3-0.2
	C21.9,23.7,22.2,23.7,22.4,23.9z"/>
<path class="st17" d="M15.6,12.2c0,0.1,0,0.2,0.1,0.3c0,0.6-0.3,1.1-0.7,1.5c-0.1,0-0.2,0-0.3,0c-0.3-0.4-0.1-0.8-0.1-1.2
	c-0.1-0.5-0.6-0.3-0.9-0.4c-0.2-0.1-0.3-0.2-0.3-0.4c0-0.2,0-0.3,0.2-0.5C14.2,11.7,14.9,11.9,15.6,12.2z"/>
<path class="st60" d="M13.5,11.5c0,0.2,0,0.3,0,0.5c-0.2,0.1-0.5,0-0.7,0.2c-0.4,0.1-0.7,0.5-1.1,0.2c-0.2-0.3-0.4-0.5-0.4-0.8
	c0-0.1,0.1-0.2,0.2-0.2c0.4-0.1,0.8,0,1.3,0.1c0.3-0.1,0.5-0.1,0.8-0.2C13.5,11.3,13.5,11.4,13.5,11.5z"/>
<path class="st33" d="M20.9,14.9c-0.5,0.1-0.5,0.5-0.5,0.9c-0.4,0.1-0.5-0.1-0.6-0.4c0.1-0.5,0.2-0.9,0.5-1.3c0.1-0.1,0.2-0.1,0.3,0
	c0.1,0,0.1,0,0.2,0C21.1,14.4,21.1,14.6,20.9,14.9z"/>
<path class="st61" d="M20.7,14.1c-0.1,0-0.2,0-0.3,0c-0.2,0.1-0.4,0-0.5-0.1c-0.2-0.2-0.4-0.3-0.5-0.6c0-0.1,0-0.2,0.1-0.3
	c0.6-0.1,0.9,0.4,1.2,0.7C20.7,13.9,20.7,14,20.7,14.1z"/>
<path class="st62" d="M21.6,15.8c-0.3-0.1-0.5-0.4-0.5-0.7c-0.1-0.3,0-0.3,0.2-0.2C21.8,15.1,21.8,15.4,21.6,15.8z"/>
<path class="st6" d="M21.4,14.8c-0.1,0.1-0.2,0.2-0.2,0.2c-0.1-0.1-0.2-0.1-0.2-0.2c0-0.2,0-0.5-0.1-0.7
	C21.2,14.2,21.3,14.6,21.4,14.8z"/>
<path class="st51" d="M18.3,12.5c0,0.3,0.2,0.5,0.5,0.5c0.3,0.1,0.4,0.2,0.4,0.5c0,0.2-0.1,0.4-0.3,0.5c-0.3,0-0.6,0-0.8,0.2
	c-0.1,0-0.2,0.1-0.3,0.1c-0.5-0.1-0.9-0.3-1.2-0.7c-0.1-0.1-0.1-0.2-0.1-0.3c0-0.2,0.2-0.2,0.3-0.3C17.2,12.5,17.9,12.8,18.3,12.5z"
	/>
<path class="st25" d="M16.8,12.9c-0.1,0.1-0.2,0.2-0.3,0.3c-0.4,0.3-0.6,0.6-0.7,1.2c0,0.6-0.4,0.8-1,0.6c-0.2-0.4-0.1-0.7,0-1.1
	c0.2-0.5,0.4-1,0.8-1.4c0.2,0,0.4,0,0.6,0C16.4,12.7,16.6,12.8,16.8,12.9z"/>
<path class="st6" d="M20.7,27.3c-0.7-0.2-1,0.6-1.7,0.5c-0.2-0.2-0.3-0.5-0.3-0.8c0-0.1,0.1-0.2,0.1-0.3c0.4-0.4,1-0.1,1.4-0.4
	c0.2-0.1,0.4-0.1,0.6,0c0.1,0.1,0.1,0.2,0.2,0.3C21.1,26.8,20.7,27,20.7,27.3L20.7,27.3z"/>
<path class="st63" d="M19,26.9c0,0.3,0,0.6,0,0.9c-0.2,0-0.3,0-0.5,0c-0.1-0.1-0.2-0.1-0.2-0.2c-0.1-0.1-0.1-0.2-0.1-0.3
	c0-0.2,0.2-0.4,0.4-0.5C18.7,26.7,18.9,26.7,19,26.9z"/>
<path class="st64" d="M21.4,24c0.1,0.2,0.2,0.3,0.3,0.5c0.1,0.2,0.2,0.3,0.2,0.5c0,0.6,0.1,1.2-0.5,1.7c-0.2-0.1-0.2-0.4-0.4-0.5
	c-0.2-0.2-0.4-0.2-0.6-0.3c-0.1,0-0.2-0.1-0.2-0.2c0-0.1,0-0.2,0-0.3c0.1-0.2,0.3-0.3,0.5-0.3c0.2-0.1,0.3-0.3,0.3-0.6
	C20.9,24.1,21.1,24,21.4,24z"/>
<path class="st24" d="M20.7,27.3c-0.3-0.4,0.1-0.5,0.3-0.7c0.2,0,0.4,0,0.2,0.3C21.1,27.2,21,27.3,20.7,27.3z"/>
<path class="st65" d="M21.2,26.9c-0.1-0.1-0.2-0.2-0.2-0.3c0-0.1,0-0.2,0-0.3c-0.1-0.2,0-0.4,0.3-0.4c0.3,0.2,0.2,0.5,0.2,0.7
	C21.3,26.7,21.3,26.8,21.2,26.9z"/>
<path class="st66" d="M19,13.4c-0.1-0.2-0.2-0.3-0.3-0.5c0-0.1,0-0.2,0-0.3c0.2,0,0.3,0,0.5,0c0.2,0.1,0.2,0.3,0.2,0.5
	c0,0.1,0,0.1,0,0.2C19.3,13.5,19.2,13.5,19,13.4z"/>
<path class="st67" d="M5.4,14.6c0.2-0.3,0.3-0.9,0.9-0.4c0.3,0.3,0.5,0.7,0.3,1.1c-0.1,0.1-0.2,0.2-0.3,0.2c-0.3,0.1-0.7,0.3-1,0.2
	c-0.2-0.1-0.3-0.2-0.3-0.4C5.2,15.1,5.3,14.8,5.4,14.6z"/>
<path class="st68" d="M5.1,15.3c0.1,0.1,0.2,0.2,0.3,0.3c0.1,0.2-0.2,0.4,0.2,0.5c0.1,0.2,0.2,0.4,0.2,0.6c-0.2,0.6-0.6,0.5-0.9,0.3
	c-0.1-0.1-0.3-0.2-0.1-0.4c-0.1-0.3-0.5-0.3-0.5-0.7C4.4,15.6,4.8,15.5,5.1,15.3z"/>
<path class="st69" d="M3.9,19.2c0.2,0,0.3,0,0.5,0c0.3-0.2,0.7-0.3,1,0c0.1,0.3,0.2,0.7,0,1c-0.2,0.2-0.4,0.2-0.7,0.1
	c-0.1,0-0.2-0.1-0.3-0.2C4.1,20,4,19.9,3.9,19.6C3.7,19.5,3.8,19.3,3.9,19.2z"/>
<path class="st70" d="M3.9,19.2c0,0.2,0,0.3,0,0.5c-0.3,0-0.8,0.3-1-0.2C3.3,19.4,3.3,18.1,3.9,19.2z"/>
<path class="st71" d="M4.4,20.1c0.1,0,0.1,0,0.2,0c0.1,0.1,0.1,0.1,0.2,0.2C5,20.5,5,20.7,5.1,20.9c0.1,0.4,0,0.7-0.5,0.4
	c-0.2-0.3-0.3-0.6-0.2-1C4.4,20.3,4.4,20.2,4.4,20.1z"/>
<path class="st72" d="M3.9,20.4c0,0.3,0.1,0.7-0.5,0.5C3.1,20.3,3.5,20.4,3.9,20.4z"/>
<path class="st73" d="M4.1,18.4c0-0.1,0-0.2,0-0.2c-0.4-0.2-0.3-0.5,0-0.7l0,0c0.3-0.1,0.6-0.2,0.9-0.2c0.1,0,0.2,0.1,0.3,0.2
	c0.1,0.4-0.2,0.5-0.5,0.6c-0.4,0.1,0.2,0.2,0,0.3c0,0.1-0.1,0.2-0.2,0.3C4.5,18.6,4.3,18.6,4.1,18.4z"/>
<path class="st39" d="M5.3,19.4c-0.2-0.4-0.6-0.2-0.9-0.3c0-0.1,0-0.2,0-0.2c0.1-0.3,0.5-0.3,0.7-0.5c0.2,0,0.3,0.1,0.4,0.2
	c0.1,0.2,0.2,0.4,0.2,0.6c0,0.1,0,0.2-0.1,0.3C5.5,19.5,5.4,19.5,5.3,19.4z"/>
<path class="st74" d="M4.1,17.5C4,17.7,4,18,4.1,18.2c-0.5,0.3-0.7,0-0.7-0.5C3.6,17.6,3.9,17.6,4.1,17.5z"/>
<path class="st75" d="M5.1,18.4c-0.2,0.2-0.5,0.3-0.7,0.5c-0.1-0.2-0.2-0.3-0.2-0.5c0.2,0,0.5,0,0.7,0C4.9,18.3,5,18.4,5.1,18.4z"/>
<path class="st76" d="M4.6,25.1c0.1-0.6-0.2-0.7-0.7-0.7c-0.2-0.6-0.5-1.1-0.7-1.7c-0.2-0.9-0.2-0.9,0.5-1c0.2,0.1,0.3,0.3,0.3,0.5
	c0,0.1,0,0.2,0,0.3c0,0.1,0,0.3,0,0.3c0.3,0.1,0.3-0.3,0.5-0.3c0.1-0.1,0.3-0.1,0.5,0c0.5,0.3,0.4,0.9,0.6,1.4
	c0.1,0.3,0.2,0.7,0.2,1c-0.1,0.3-0.2,0.5-0.6,0.6c-0.2,0-0.4,0-0.5-0.2C4.6,25.3,4.6,25.2,4.6,25.1z"/>
<path class="st77" d="M4.6,21.3c0.4,0,0.4-0.2,0.3-0.5c0.2-0.3,0.6-0.3,0.9-0.4c0.1,0,0.2,0,0.3,0c0.2,0.1,0.3,0.2,0.3,0.4
	c0,0.2-0.1,0.4-0.3,0.6c-0.2,0.1-0.3,0.2-0.5,0.2c-0.1,0-0.3,0-0.3,0.1c0.1,0,0.2,0.1,0.2,0.2c0,0.4-0.2,0.5-0.5,0.5
	c-0.3,0-0.5-0.2-0.6-0.5c0-0.1,0-0.2,0.1-0.3C4.4,21.5,4.5,21.4,4.6,21.3z"/>
<path class="st46" d="M4.4,21.5c0,0.1,0,0.2,0,0.2c0.1,0.4-0.1,0.6-0.5,0.5c-0.2-0.1-0.2-0.3-0.2-0.5C3.9,21.6,4,21.3,4.4,21.5z"/>
<path class="st78" d="M12.7,11.5c-0.5,0.4-0.9-0.1-1.4,0c-0.1,0-0.1-0.1-0.1-0.1c0,0,0-0.1,0.1-0.1c0.2,0,0.4,0,0.5-0.2
	C12.2,11,12.6,11,12.7,11.5z"/>
<path class="st79" d="M11.3,10.5c0.2-0.1,0.3-0.2,0.5-0.3c0.1,0.1,0.2,0.2,0.2,0.2c-0.1,0.2-0.2,0.3-0.2,0.5
	C11.6,10.9,11.4,10.7,11.3,10.5z"/>
<path class="st39" d="M16.6,30c-0.2-0.1-0.5-0.1-0.7-0.2c-0.4,0.1-0.5-0.2-0.6-0.5c0-0.1,0-0.2,0.1-0.3c0.3-0.3,0.7-0.1,1-0.2
	c0.3-0.1,0.6-0.5,1-0.3c0.3,0,0.5,0.2,0.4,0.5c-0.2,0.2-0.2,0.6-0.5,0.7c0,0,0,0,0,0C17.1,29.8,16.7,29.3,16.6,30z"/>
<path class="st80" d="M17.8,27.6c0,0.3-0.1,0.6-0.5,0.7c-0.6,0.2-0.5-0.5-0.9-0.6c-0.3-0.2-0.5-0.4-0.4-0.8c0.3-0.3,0.7-0.2,1-0.2
	c0.2,0.1,0.3,0.2,0.4,0.3C17.5,27.2,17.4,27.6,17.8,27.6z"/>
<path class="st81" d="M16.6,27.6c0.5-0.1,0.2,0.7,0.7,0.7c0,0.1,0,0.1,0,0.2c-0.3,0.1-0.5,0.5-1,0.5c-0.4-0.3,0.6-0.5,0.1-0.8
	C16.4,27.9,16.4,27.7,16.6,27.6z"/>
<path class="st82" d="M17.3,29.7c0-0.3,0-0.7,0.5-0.7c0.1,0.2,0.2,0.3,0.2,0.5c0,0.1,0,0.1,0,0.2C17.8,29.7,17.6,29.7,17.3,29.7z"/>
<path class="st66" d="M17.8,27.6c-0.6,0.2-0.4-0.2-0.5-0.5c0.1-0.1,0.3-0.2,0.4-0.1c0.2,0,0.4,0.2,0.5,0.4c0,0.1,0,0.2,0,0.2
	C18.1,27.6,18,27.6,17.8,27.6z"/>
<path class="st83" d="M7.2,28.9c0-0.2-0.1-0.3-0.2-0.4c-0.1-0.2-0.5-0.3-0.5-0.7c0-0.1,0-0.1,0.1-0.2c0.2-0.2,0.4-0.3,0.7-0.3
	c0.1,0,0.2,0.1,0.3,0.1C7.9,27.7,8,28,8.1,28.4c0,0.2,0,0.5-0.2,0.6C7.7,29,7.5,29,7.2,28.9z"/>
<path class="st84" d="M5.1,25.4c0.2-0.2,0.3-0.3,0.5-0.5c0.1-0.1,0.2-0.1,0.3-0.1C6,24.9,6.1,25,6.2,25.2c0.1,0.3,0.3,0.5,0.2,0.8
	c-0.1,0.2-0.3,0.3-0.6,0.1c-0.1,0-0.2,0-0.2,0C4.8,26.3,4.9,25.9,5.1,25.4z"/>
<path class="st85" d="M5.1,25.4c0,0.4,0,0.7,0.5,0.7c-0.2,0.2-0.3,0.3-0.5,0.5c-0.5-0.3-0.5-0.7-0.5-1.2C4.8,25.4,4.9,25.4,5.1,25.4
	z"/>
<path class="st23" d="M5.8,26.1C6,26.1,6.1,26,6.3,25.9c0.1-0.1,0.2-0.1,0.3-0.1c0.1,0.1,0.1,0.3,0.1,0.5c-0.1,0.3-0.3,0.6-0.6,0.8
	c-0.1,0-0.2,0-0.3-0.1C5.8,26.8,5.8,26.4,5.8,26.1z"/>
<path class="st52" d="M5.8,27.1c0.1,0,0.1,0,0.2,0c0.3-0.1,0.4,0,0.6,0.2c0.1,0.2,0,0.3-0.1,0.5c0,0,0,0,0,0
	C6.2,27.6,5.8,27.5,5.8,27.1z"/>
<path class="st85" d="M11.3,11.2c0,0.1,0,0.1,0,0.2c0,0,0,0,0,0c-0.2,0.4,0.2,0.6,0.3,1c0,0.1,0,0.2-0.1,0.3c-0.3,0.2-0.7,0.2-1,0.4
	c-0.2,0.1-0.4,0.1-0.6,0.1c-0.1-0.1-0.1-0.2-0.2-0.3c0-0.1,0-0.2,0-0.3c0.1-0.5-0.5-0.7-0.6-1.1c0-0.1,0.1-0.2,0.2-0.2
	c0.3-0.1,0.6-0.1,0.8,0.1C10.5,11.4,10.9,11.3,11.3,11.2z"/>
<path class="st86" d="M10.1,11.5c-0.3,0-0.6,0-0.9,0c-0.1,0-0.1-0.1-0.1-0.2c0-0.1,0-0.1,0-0.1c0,0,0,0,0,0
	C9.5,11.1,10,10.7,10.1,11.5z"/>
<path class="st11" d="M13.2,29.5c0.2,0.5-0.7,0-0.5,0.5c-0.1,0.2-0.2,0.3-0.4,0.4c-0.7-0.1-1.2-0.3-0.9-1.2c0.5-0.7,1.2-0.9,2-0.5
	C13.8,29,13.6,29.3,13.2,29.5z"/>
<path class="st87" d="M13.2,29.5c0.1-0.2,0.1-0.5,0.2-0.7c-0.1-0.1-0.1-0.2,0-0.3c0.9-0.3,0.9,0.3,0.9,0.9c0,0.1,0,0.2-0.1,0.3
	c-0.1,0.1-0.2,0.2-0.4,0.3C13.7,29.8,13.6,29.4,13.2,29.5z"/>
<path class="st88" d="M14,29.9c0.1-0.1,0.2-0.2,0.3-0.2c0.3-0.3,0.7-0.6,1.2-0.5c0.1,0.2,0.2,0.4,0.5,0.5c0,0.1,0,0.2,0,0.2
	c-0.4,0.2-0.8,0.4-1.2,0.2C14.5,29.9,14.2,30,14,29.9z"/>
<path class="st74" d="M14.7,30.2c0.4-0.1,0.8-0.1,1.2-0.2c0,0.3-0.3,0.4-0.5,0.6c-0.2,0-0.5,0-0.7,0C14.7,30.5,14.4,30.4,14.7,30.2z
	"/>
<path class="st89" d="M14,30.9c-0.6-0.1-1.2,0.2-1.7-0.2c0.3-0.4,0.9-0.1,1.2-0.5C13.6,30.4,13.8,30.7,14,30.9z"/>
<path class="st90" d="M13.5,30.2c-0.2,0.6-0.7,0.5-1.2,0.5c0-0.1,0-0.2,0-0.2c0-0.1,0.2-0.2,0.2-0.2c0.1-0.1,0.2-0.2,0.2-0.2
	C12.9,30.2,13.2,30.2,13.5,30.2z"/>
<path class="st6" d="M12.5,30.2c-0.1,0.1-0.2,0.2-0.2,0.2c-0.2,0-0.5,0-0.7,0c-0.4,0-0.7-0.2-1-0.5c0-0.4-0.2-0.4-0.5-0.2
	c-0.2,0.1-0.3,0-0.4-0.2c0.2-0.8,0.9-0.6,1.5-0.7c0.2,0.1,0.3,0.2,0.3,0.4C11.5,29.9,12,30.1,12.5,30.2z"/>
<path class="st51" d="M9.9,29.5c0.1,0.1,0.2,0.2,0.3,0.2C10,30,9.7,29.9,9.4,30c-0.2-0.1-0.5-0.2-0.7-0.3c-0.2-0.2-0.5-0.3-0.5-0.7
	C8.9,28.5,9.5,28.7,9.9,29.5z"/>
<path class="st91" d="M10.6,30c0.4,0,0.8,0.1,1,0.5c-0.1,0.1-0.2,0.2-0.3,0.3C10.9,30.6,10.5,30.5,10.6,30z"/>
<path class="st64" d="M9.9,29.5C9.4,29,8.8,28.9,8.2,29c-0.1,0-0.1,0-0.2,0c0-0.2,0-0.5,0-0.7c0.1-0.3,0.3-0.4,0.5-0.6
	c0.2-0.1,0.5-0.2,0.7-0.2c0.8,0.1,1.5,0.6,2.2,0.9c0.3,0.2,0.2,0.4-0.1,0.6C10.9,29.2,10.2,29,9.9,29.5z"/>
<path class="st92" d="M5.1,17.5c-0.3,0-0.6,0.2-0.9,0c0.1-0.2,0.1-0.3,0.2-0.5c0-0.2,0.1-0.4,0.3-0.5c0.1,0.1,0.1,0.2,0.2,0.3
	c0,0.2,0.1,0.4,0.3,0.5C5.2,17.3,5.2,17.4,5.1,17.5z"/>
<path class="st60" d="M8,12c0-0.1,0-0.2,0-0.2c0.1-0.1,0.2-0.1,0.3-0.2c0.5,0,0.8,0.3,0.8,0.8c0,0.2-0.1,0.4-0.3,0.6
	c-0.6,0.1-1.2,0.2-1.6,0.8C7.1,13.9,7,14,6.8,14c-0.3-0.2-0.6-0.4-0.7-0.8c0.5,0,0.8-0.4,1.2-0.7C7.5,12.3,7.7,12.1,8,12z"/>
<path class="st13" d="M6.5,15.3c0-0.4-0.3-0.7-0.2-1.2c0.2,0,0.3,0,0.5-0.1c0.3,0,0.4,0.3,0.5,0.6c0,0.3,0,0.5-0.2,0.7
	C6.9,15.4,6.7,15.4,6.5,15.3z"/>
<path class="st93" d="M7,14.6c-0.1-0.2-0.2-0.4-0.2-0.5c0,0,0-0.1,0-0.1C6.9,13.9,7,13.8,7,13.7c0.5-0.4,0.9-0.1,1.2,0.3
	c-0.1,0.4-0.4,0.6-0.7,0.7C7.3,14.7,7.2,14.7,7,14.6z"/>
<path class="st94" d="M8.2,11.7c-0.1,0-0.2,0-0.2,0c0-0.2,0-0.3,0-0.5c0.4,0,0.8,0,1.2,0c0,0.1,0,0.2,0,0.2c0,0,0,0,0,0
	C8.9,11.8,8.5,11.4,8.2,11.7z"/>
<path class="st95" d="M20.4,21.1c-0.3,0.1-0.5,0.4-0.5,0.7c-0.3,0.4-0.1,1.2-1,1.2c-0.3-0.5,0-0.9,0-1.4c0-0.2,0.1-0.3,0.1-0.5
	c0.3-0.4,0.5-0.9,0.3-1.4c0-0.5-0.1-0.9-0.3-1.4c0-0.2,0-0.3,0-0.5c0,0,0.1-0.1,0.1-0.1c0.1,0,0.1,0,0.2,0c1,0.3,0.4,1.3,0.7,1.9
	c0,0,0,0,0,0C20.2,20.1,20.2,20.6,20.4,21.1z"/>
<path class="st35" d="M19.7,16.3c0.5,0.7-0.3,0.9-0.5,1.4c0,0,0,0,0,0c-0.1,0.1-0.2,0.1-0.3,0c-0.3-0.2-0.4-0.5-0.3-0.8
	c0.1-0.4,0.3-0.6,0.6-0.8C19.4,16.1,19.6,16.1,19.7,16.3z"/>
<path class="st96" d="M19.7,16.3c-0.1,0-0.3,0-0.4,0c-0.2-0.2-0.1-0.4-0.1-0.6c0-0.3-0.1-0.6,0.2-0.7c0.3-0.1,0.6,0,0.7,0.4
	c0.2,0.1,0.3,0.3,0.5,0.4c0.1,0.1,0.2,0.2,0.2,0.2C20.4,16.1,20,16.2,19.7,16.3z"/>
<path class="st55" d="M20.2,19.6c-0.4-0.6-0.1-1.4-0.7-1.9c0.6-0.3,0.8,0.2,0.8,0.6C20.4,18.7,20.2,19.2,20.2,19.6z"/>
<path class="st57" d="M19,23c0.6-0.2,0.3-1,0.9-1.2c0,0,0,0,0,0c0.2,0.2,0.2,0.5,0,0.7c-0.5,0.6-0.7,1.5-1.7,1.7
	c-0.1-0.2,0.1-0.4-0.1-0.6c0.1-0.3,0.3-0.5,0.7-0.6C18.9,23,19,23,19,23z"/>
<path class="st57" d="M17.6,25.2c0,0.2,0,0.3,0,0.5c0.1,0.3,0,0.4-0.2,0.6c-0.1,0.1-0.2,0.1-0.3,0.1c-0.3,0.1-0.7,0.2-0.9-0.2
	c-0.1-0.3,0-0.5,0.1-0.8c0.1-0.2,0.2-0.4,0.4-0.4C17,25,17.3,25.1,17.6,25.2z"/>
<path class="st97" d="M17.6,25.2c-0.3,0.2-0.6,0.1-0.7-0.2c0-0.1,0-0.1,0-0.2c0.2-0.3,0.3-0.7,0.6-0.9c0.2-0.1,0.5-0.3,0.8-0.1
	c0.3,0.2,0,0.3,0,0.5C18,24.5,17.8,24.8,17.6,25.2z"/>
<path class="st98" d="M17.3,26.1c0.1-0.2,0.2-0.3,0.2-0.5c0.2,0.2,0.5,0.5,0.7,0.7c0.2,0.1,0.3,0.3,0.2,0.5
	c-0.1,0.2-0.2,0.3-0.2,0.5c-0.2,0-0.4-0.1-0.5-0.3C17.5,26.8,17.4,26.5,17.3,26.1z"/>
<path class="st99" d="M20.9,24.4c0.2,0,0.5,0.1,0.4,0.4c-0.1,0.4-0.4,0.3-0.7,0.3c-0.7-0.2-0.3-0.5,0-0.7
	C20.8,24.4,20.8,24.4,20.9,24.4z"/>
<path class="st65" d="M20.2,25.4c0,0.1,0,0.2,0,0.2c-0.1,0.3-0.3,0.4-0.6,0.3c-0.3-0.2-0.3-0.5-0.1-0.8c0.2-0.3,0.3,0,0.5,0
	C20.2,25.1,20.3,25.2,20.2,25.4z"/>
<path class="st100" d="M20.2,25.4c-0.1-0.1-0.2-0.2-0.2-0.2c0.2-0.3,0.1-0.9,0.7-0.7c-0.1,0.2-0.4,0.5,0,0.7
	C20.6,25.4,20.4,25.4,20.2,25.4z"/>
<path class="st101" d="M18.5,26.9c-0.2-0.1-0.2-0.3-0.2-0.5c0.2-0.1,0.3-0.2,0.5-0.2c0.1-0.1,0.2-0.1,0.3,0c0.1,0.2,0.1,0.3-0.1,0.5
	c0,0.1,0,0.2,0,0.3C18.8,26.9,18.7,26.9,18.5,26.9z"/>
<path class="st102" d="M19,26.1l-0.1,0c0,0-0.1,0-0.1,0c0-0.4,0.1-0.8,0.5-1c0.2,0.2,0.1,0.4,0.1,0.6C19.3,26,19.2,26.1,19,26.1z"/>
<path class="st56" d="M20,22.5c0-0.2,0-0.5,0-0.7c0.3,0.1,0.5,0.4,0.5,0.7C20.3,22.5,20.1,22.8,20,22.5z"/>
<path class="st64" d="M19.2,25.9c0-0.2,0-0.5,0-0.7c0.1,0,0.2,0,0.2,0c0,0.3,0,0.6,0.2,0.7c0.1,0.1,0.1,0.2-0.1,0.3
	C19.4,26.2,19.1,26.3,19.2,25.9z"/>
<path class="st79" d="M14.7,12.7c0.3,0.4,0.1,0.8,0,1.2c0,0.1,0,0.1,0,0.2c0,0.4-0.3,0.8-0.3,1.2c-0.1,0.4,0.1,0.9-0.5,0.9
	c-0.5-0.2-0.7,0.4-1.1,0.5c-0.1,0-0.2,0-0.3-0.1c-0.3-0.4-0.7-0.7-0.6-1.3c0.7-0.3,0.7-1,1-1.5c0.2-0.2,0.5-0.3,0.7-0.6
	c0.1-0.2,0.2-0.3,0.4-0.5c0.2-0.1,0.3-0.2,0.5-0.3C14.5,12.6,14.6,12.6,14.7,12.7z"/>
<path class="st77" d="M12.8,12c0.2-0.1,0.5-0.2,0.7,0c0.1,0.1,0.2,0.2,0.2,0.2c0,0.1,0,0.1,0.1,0.2c0,0.2-0.1,0.3-0.2,0.5
	C13.4,13,13.2,13.1,13,13C12.7,12.7,12.6,12.3,12.8,12z"/>
<path class="st7" d="M14.7,12.7l-0.1,0l-0.1,0c-0.4,0.2-0.6-0.2-0.8-0.5c0,0,0,0,0,0c0.5-0.4,0.9,0,1.2,0.2
	C15.2,12.5,14.9,12.6,14.7,12.7z"/>
<path class="st103" d="M14.9,13.8c0.3,0.3,0.1,0.7,0,1c0.1,0.1,0,0.2-0.1,0.3c-0.6-0.2-0.6-0.2-0.1-1.3c0,0,0,0,0,0
	C14.8,13.9,14.8,13.9,14.9,13.8z"/>
<path class="st104" d="M12.8,12c0.2,0.3,0.3,0.6,0.2,1c0,0.1-0.1,0.2-0.2,0.3c0,0-0.1,0-0.1,0.1c-0.3,0-0.5-0.2-0.7-0.2
	c-0.2-0.1-0.4-0.2-0.4-0.4c0-0.1,0-0.2,0-0.2c-0.1-0.2,0-0.3,0.2-0.2C12.2,12.5,12.4,11.8,12.8,12z"/>
<path class="st104" d="M11.8,12.2c-0.1,0.1-0.2,0.2-0.2,0.2c-0.6-0.2-0.6-0.5-0.2-0.9C11.5,11.7,11.8,11.8,11.8,12.2z"/>
<path class="st105" d="M20,15.3c-0.2-0.1-0.4-0.2-0.7-0.2c-0.2,0-0.3-0.1-0.4-0.3c-0.1-0.3-0.1-0.5,0.1-0.7c0.3-0.2,0.7-0.4,1-0.2
	c0.1,0.1,0.3,0.2,0.4,0.3C20.5,14.6,20.3,15,20,15.3z"/>
<path class="st70" d="M20,13.8c-0.3,0.2-0.6,0.3-1,0.3c-0.1,0.1-0.2,0.1-0.3,0c-0.1-0.1-0.1-0.2,0-0.3c0.2-0.1,0.2-0.2,0.2-0.4
	c0.2,0,0.3,0,0.5-0.1C19.7,13.5,19.8,13.7,20,13.8z"/>
<path class="st106" d="M14.9,15c0-0.1,0-0.1,0-0.2c0.5,0,0.9-0.1,0.8-0.7c-0.2-0.8,0.3-0.9,0.9-1c0,0.1,0,0.2,0,0.2
	c0.2,0.4,0.4,0.7,0.5,1.2c0,0.4,0.4,0.4,0.6,0.6c0.2,0.3,0.3,0.6,0.1,1c-0.8,0.5-1.5-0.1-2.3-0.3c-0.2-0.1-0.3-0.2-0.5-0.3
	C15,15.4,14.9,15.2,14.9,15z"/>
<path class="st55" d="M16.8,14.8c-0.1-0.5-0.2-1-0.2-1.4c0.4,0.3,0.9,0.3,1.2,0.7c0,0.2,0,0.5-0.2,0.7C17.4,15,17.1,15.1,16.8,14.8z
	"/>
<path class="st10" d="M18.8,13.9c0,0.1,0,0.2,0,0.2c0.1,0.4-0.2,0.3-0.4,0.4c-0.2-0.1-0.3-0.2-0.3-0.4c0-0.2,0-0.5,0.3-0.6
	C18.6,13.5,18.7,13.7,18.8,13.9z"/>
<path class="st107" d="M18.1,14.1c0.1,0.1,0.2,0.2,0.2,0.2c0.1,0.4-0.1,0.5-0.4,0.6c-0.2,0-0.3-0.2-0.3-0.3c0-0.2,0-0.4,0.2-0.5
	C17.9,14.1,18,14.1,18.1,14.1z"/>
<path class="st108" d="M19.2,25.9c0.1,0.2,0.3,0.3,0.5,0.3C19.9,26,20,26,20.2,26c0.1,0.1,0.1,0.1,0.1,0.2c0,0.1,0,0.1,0,0.1
	c-0.3,0.8-0.8,0.3-1.2,0.3c0-0.2,0-0.3,0-0.5C19.1,26,19.2,25.9,19.2,25.9z"/>
<path class="st109" d="M20.2,26.3c0-0.1,0-0.1,0-0.2c0-0.2,0.1-0.4,0.2-0.5c0.3,0,0.6-0.1,0.7,0.2c-0.1,0.1-0.2,0.3-0.3,0.4
	C20.7,26.3,20.4,26.3,20.2,26.3z"/>
<path class="st66" d="M20.5,25.6c-0.1,0.2-0.2,0.3-0.2,0.5c-0.2,0-0.3,0-0.5,0c0-0.1,0-0.2,0-0.2c0.2-0.1,0.3-0.2,0.5-0.3
	C20.3,25.6,20.4,25.6,20.5,25.6z"/>
<path class="st109" d="M6.5,15.3c0.2,0,0.4,0,0.6,0c0.1,0,0.2,0,0.2,0.1c0,0.5-0.1,1-0.5,1.4c-0.1,0.1-0.2,0.1-0.3,0.1
	c-0.4,0-0.7-0.2-0.9-0.4c-0.2-0.1-0.2-0.3-0.3-0.5c0.1-0.5,1,0,0.9-0.7C6.3,15.3,6.4,15.3,6.5,15.3z"/>
<path class="st110" d="M6.3,15.3c0.1,0.3,0.6,0.4,0.3,0.8C6.3,16.4,6,16.3,5.7,16c0-0.1-0.3,0-0.4,0c-0.3-0.2,0-0.3,0-0.5
	C5.6,15.5,6,15.4,6.3,15.3z"/>
<path class="st111" d="M5.6,16.5c0.3,0.1,0.6,0.2,0.9,0.2c0.1,0.1,0.1,0.2,0.1,0.3c-0.1,0.2-0.2,0.3-0.4,0.3c-0.4,0.1-0.8,0-1.1-0.2
	c-0.4,0-0.4-0.2-0.3-0.5C5.1,16.9,5.5,17.1,5.6,16.5z"/>
<path class="st23" d="M5.3,19.4c0.1,0,0.2,0,0.2,0C6.1,19,7,19.5,7.3,18.6c0.1-0.1,0.1-0.2,0.2-0.2c0.1,0,0.2-0.1,0.3-0.1
	c0.7,0.1,1.1,0.6,1.4,1.2c-0.1,0.5-0.6,0.6-1,0.7c-0.3,0.1-0.4,0.2-0.4,0.5c0,0.2,0.1,0.5,0.3,0.6c1.3,0.5,1.3,0.5,0.7,1.7
	c-0.3,0.2-0.7,0.2-1,0.1c-0.5-0.2-0.8-0.7-1-1.2c-0.1-0.3-0.3-0.6-0.4-0.9c0-0.3-0.2-0.6-0.6-0.6c-0.2,0-0.4,0-0.6-0.1
	C5.2,19.9,4.9,19.6,5.3,19.4z"/>
<path class="st112" d="M5.3,20.1C5.5,20,5.7,20,5.8,19.9c0.2,0.2,0.5,0.3,0.2,0.7c-0.1,0-0.2,0-0.3,0c-0.4,0-0.8,0-1.2-0.3
	c0-0.1,0-0.1,0-0.2C4.8,20.1,5.1,20.1,5.3,20.1z"/>
<path class="st111" d="M4.6,20.3c0.4,0,0.8,0,1.2,0.3c-0.2,0.4-0.6,0.2-0.9,0.2C4.8,20.7,4.7,20.5,4.6,20.3z"/>
<path class="st113" d="M7.7,18.4c-0.1,0-0.2,0-0.2,0c-0.4-0.1-0.7,0-0.9,0.2c-0.4,0.4-0.8,0.4-1.2,0c-0.1-0.1-0.2-0.1-0.2-0.2
	c-0.1,0-0.2,0-0.2,0c0-0.1,0-0.2,0-0.2c0.3-0.3,0.6-0.4,0.9-0.6c0.3,0.4,0.5,0.2,0.8-0.1c0.2-0.1,0.3-0.1,0.5-0.1
	c0.2,0,0.3,0,0.5,0.1c0.2,0.1,0.3,0.3,0.3,0.6C7.9,18.2,7.8,18.3,7.7,18.4z"/>
<path class="st114" d="M6.5,17.7c-0.2,0.6-0.5,0.2-0.7,0c-0.3,0.2-0.4-0.1-0.5-0.2c-0.1,0-0.2,0-0.2,0c0-0.1,0-0.2,0-0.2
	c0.4,0,0.8,0,1.2,0C6.4,17.4,6.5,17.5,6.5,17.7z"/>
<path class="st115" d="M5.3,17.5c0.2,0.1,0.3,0.2,0.5,0.2c-0.2,0.3-0.6,0.4-1,0.5c-0.1-0.1-0.5,0-0.2-0.3
	C4.9,17.8,5.1,17.6,5.3,17.5z"/>
<path class="st116" d="M5.3,18.7c0.5,0.2,0.9,0,1.2-0.4c0.3-0.3,0.7-0.6,0.9,0.1c0,0,0,0,0,0c-0.5,0.7-1.1,1.1-1.9,0.7
	C5.5,19,5.4,18.8,5.3,18.7z"/>
<path class="st117" d="M5.6,19.1c0.8,0.2,1.3-0.5,1.9-0.7c0,1.6-1.2,0.9-1.9,0.9C5.6,19.3,5.6,19.2,5.6,19.1z"/>
<path class="st118" d="M5.3,24c-0.4-0.4-0.1-1.1-0.5-1.4c0,0,0.1-0.1,0.1-0.1c0.2,0,0.3,0,0.5,0c0.7,0.3,1.4,0.6,1.6,1.4
	C6.9,24.1,6.6,24,6.3,24c-0.3,0-0.5,0-0.7,0.1C5.5,24.1,5.4,24,5.3,24z"/>
<path class="st119" d="M4.6,22.7c-0.3,0-0.2,0.9-0.7,0.5c-0.2-0.1-0.8-0.5,0-0.7C4.2,22.4,4.4,22.5,4.6,22.7z"/>
<path class="st117" d="M4.6,22.7c-0.3,0.1-0.5-0.1-0.7-0.2c0-0.1,0-0.2,0-0.2C4,22.1,4.2,22,4.4,21.8c0.2,0.2,0.3,0.3,0.5,0.5
	c0.1,0,0.1,0.1,0.1,0.1c0,0.1,0,0.1,0,0.1c0,0-0.1,0-0.1,0C4.7,22.6,4.7,22.6,4.6,22.7z"/>
<path class="st105" d="M5.3,24c0.1,0,0.2,0,0.2,0C6,23.8,6,24.2,6.1,24.4c0,0.3-0.1,0.4-0.3,0.5c-0.1,0-0.2,0-0.2,0
	C5.4,24.6,5.3,24.3,5.3,24z"/>
<path class="st10" d="M4.9,22.5c0-0.1,0-0.2-0.1-0.2c0.3,0,0.5-0.1,0.4-0.5c0.2-0.3,0.5-0.3,0.7-0.4c0.1,0,0.2,0,0.3,0.1
	c0.2,0.9-0.2,1.1-1,1C5.2,22.5,5,22.5,4.9,22.5z"/>
<path class="st120" d="M6.3,21.6c-0.1,0-0.2,0-0.2,0c-0.1,0-0.1-0.1-0.1-0.2C6,21.3,6,21.3,6,21.3c0-0.2,0-0.4,0.2-0.5
	c0.1-0.1,0.2-0.1,0.3,0c0.1,0.2,0.3,0.5,0.4,0.7C6.7,21.8,6.5,21.7,6.3,21.6z"/>
<path class="st18" d="M6.5,20.8c-0.1,0-0.2,0-0.3,0c-0.1-0.1-0.2-0.2-0.2-0.2c-0.1-0.2-0.1-0.5-0.2-0.7C6.5,19.9,6.5,20.3,6.5,20.8z
	"/>
<path class="st112" d="M6,21.3c0,0.1,0,0.2,0,0.2c-0.3,0.1-0.5,0.2-0.8,0.3c-0.1-0.1-0.2-0.1-0.2-0.2C5.3,21.3,5.7,21.3,6,21.3z"/>
<path class="st121" d="M16.6,28.3c0.3,0.4-0.3,0.4-0.2,0.7c-0.3,0.3-0.7-0.1-1,0c-0.3,0.2-0.6,0.4-1,0.2c-0.2-0.4,0.1-0.7,0.4-0.9
	C15.4,27.8,16,27.8,16.6,28.3z"/>
<path class="st5" d="M14.4,29.3c0.3-0.1,0.6-0.2,0.9-0.3c0,0.1,0,0.1,0,0.2c-0.3,0.3-0.7,0.6-1.2,0.5c0-0.1,0-0.1,0-0.2
	C14.3,29.4,14.3,29.3,14.4,29.3z"/>
<path class="st122" d="M16.6,28.3c-0.6,0.1-1.2-0.4-1.7,0.3c-0.6-0.1-0.6-0.5-0.6-0.9c0.5-0.6,0.9-1.4,1.9-0.8
	c0,0.4,0.3,0.5,0.5,0.7C16.6,27.8,16.6,28,16.6,28.3z"/>
<path class="st123" d="M16.1,26.8c-0.7-0.2-1.2,0.3-1.7,0.7c-0.1,0.1-0.2,0.1-0.3,0c-0.2-1.1,0.8-1.2,1.4-1.7
	c0.4-0.2,0.5,0.4,0.8,0.3c0.2,0.3,0.5-0.1,0.7,0c0.2,0.2,0.2,0.5,0,0.7C16.8,27,16.4,27.1,16.1,26.8z"/>
<path class="st124" d="M17.1,26.8c0-0.2,0-0.5,0-0.7c0.1,0,0.1,0,0.2,0c0.4,0.2,0.5,0.5,0.5,1c-0.2,0-0.3,0-0.5,0
	C17.2,27,17.2,26.9,17.1,26.8z"/>
<path class="st50" d="M8.5,27.8c0,0.3-0.2,0.5-0.5,0.5c-0.2-0.2-0.3-0.5-0.5-0.7c-0.1-0.1-0.2-0.3-0.1-0.5c0.1-0.1,0.3-0.2,0.5-0.1
	c0.3,0.1,0.5,0.4,0.5,0.7C8.5,27.7,8.5,27.7,8.5,27.8z"/>
<path class="st125" d="M6.6,27.8c0-0.1,0-0.3,0-0.4c-0.2-0.3-0.1-0.5,0.2-0.6c0.5,0.1,0.7,0.3,0.5,0.8C7,27.6,6.8,27.7,6.6,27.8z"/>
<path class="st74" d="M7.3,27.6c0-0.3-0.2-0.6-0.5-0.7c-0.1-0.1-0.1-0.2,0.1-0.3c0.4-0.1,0.8,0,0.7,0.6c0,0.2,0,0.3,0,0.5
	C7.4,27.6,7.3,27.6,7.3,27.6z"/>
<path class="st126" d="M6.5,25.9c-0.1,0-0.1,0-0.2,0c-0.1-0.3-0.2-0.5-0.3-0.8c0.2-0.2,0.3-0.4,0.5-0.6c0.2-0.1,0.3-0.1,0.5,0
	c0.5,0.5,1.2,1,0.2,1.6C6.9,26.3,6.7,26.2,6.5,25.9z"/>
<path class="st127" d="M6.5,24.7c0,0.2,0.3,0.4,0,0.6c-0.1,0.1-0.4-0.1-0.5-0.1C6,25.1,5.9,25,5.8,24.9C5.9,24.8,6,24.6,6,24.4
	c0.1-0.1,0.3-0.1,0.5-0.1c0.1,0.1,0.1,0.1,0.1,0.2C6.6,24.6,6.6,24.7,6.5,24.7z"/>
<path class="st10" d="M6.5,25.9C6.8,26,7,26,7.2,26.1c0.5,0,0.8,0.3,0.8,0.8C8,27,8,27,8,27.1c-0.2,0-0.3,0-0.5,0
	c-0.1-0.3-0.4-0.5-0.7-0.5c-0.1,0-0.2-0.1-0.2-0.3C6.5,26.2,6.5,26.1,6.5,25.9z"/>
<path class="st128" d="M6.5,26.3c0.1,0.1,0.2,0.2,0.2,0.3c0,0.1,0,0.2,0,0.2c-0.2,0.1-0.2,0.3-0.3,0.5c-0.2-0.1-0.3-0.2-0.5-0.3
	C6.2,26.8,6.4,26.6,6.5,26.3z"/>
<path class="st126" d="M9.9,12.9c0,0.1,0,0.2,0,0.3c0.3,0.1,0.5,0.2,0.6,0.5c0.1,0.2,0.1,0.3,0.1,0.5c0,0.2,0,0.5-0.1,0.7
	c-0.2,0.3-0.5,0.6-0.9,0.5c-0.5-0.1-0.4-0.5-0.4-0.8c0-0.2-0.2-0.3-0.3-0.5c-0.2-0.3-0.5-0.5-0.2-0.9C9,12.9,9.4,12.7,9.9,12.9z"/>
<path class="st122" d="M8.2,11.7c0.2-0.3,0.6-0.2,0.9-0.2c0.2,0.4,1.3,0.3,0.7,1.2c-0.3-0.1-0.6-0.1-0.9-0.2
	C8.9,12,8.7,11.7,8.2,11.7z"/>
<path class="st129" d="M8.9,12.4c0.4-0.1,0.7-0.1,0.9,0.2c0,0.1,0,0.2,0,0.2c-0.4,0.2-0.8,0.3-1.2,0.2C8.6,13.1,8.6,13,8.6,13
	c0-0.1,0-0.1,0-0.1C8.7,12.7,8.8,12.6,8.9,12.4z"/>
<path class="st119" d="M11.6,12.7c0.2,0.1,0.3,0.1,0.5,0.2c0.1,0.1,0.1,0.2,0,0.3c-0.1,0.1-0.3,0.2-0.5,0.2c-0.3,0-0.7,0.1-1,0.1
	c-0.2-0.1-0.3-0.3-0.2-0.6C10.7,12.7,11.2,12.7,11.6,12.7z"/>
<path class="st130" d="M10.4,12.9c0.1,0.2,0.2,0.3,0.2,0.5c0.1,0.1,0.1,0.1,0.1,0.2c0,0.1,0,0.1,0,0.1c-0.1,0.1-0.2,0.1-0.3,0
	c-0.2-0.1-0.4-0.2-0.5-0.5C10.1,13.1,10.2,13,10.4,12.9z"/>
<path class="st53" d="M11.3,29c0-0.2,0.3-0.3,0-0.5c-0.1-0.4,0.2-0.5,0.4-0.7c0.7-0.4,1.3-0.2,2-0.1c0.2,0.3,0,0.6-0.2,0.7
	c0,0.1,0,0.2,0,0.3c-0.7,0-1.4-0.1-1.9,0.5C11.5,29.2,11.4,29.1,11.3,29z"/>
<path class="st131" d="M12.6,29.3c-0.1,0.1-0.1,0.3-0.3,0.3c-0.1,0-0.1-0.2-0.1-0.3c0-0.1,0.1-0.2,0.2-0.2
	C12.6,29,12.7,29.1,12.6,29.3z"/>
<path class="st95" d="M13.5,28.5c0.1-0.2,0.1-0.5,0.2-0.7c0.1-0.2,0.3-0.3,0.5-0.2c0.1,0,0.2,0,0.2,0c0,0.4,0.2,0.7,0.4,1
	c-0.1,0.2-0.5,0.4-0.5,0.7c-0.1,0.1-0.1,0.2-0.2,0.2C14,29.1,14.4,28.4,13.5,28.5z"/>
<path class="st91" d="M11.8,28c-0.2,0.2-0.3,0.3-0.5,0.5c-0.8,0-1.4-0.6-2.2-1c-0.1-0.1-0.1-0.2,0-0.3c0.1-0.1,0.3-0.1,0.5-0.1
	c0.4,0.1,0.8,0.3,1.1,0c0.2-0.1,0.4-0.2,0.6-0.1C11.6,27.3,11.8,27.7,11.8,28z"/>
<path class="st50" d="M9.2,27.3c0,0.1,0,0.2,0,0.2c-0.2,0.3-0.5,0.2-0.7,0.2c0,0,0,0,0,0c-0.1-0.2-0.1-0.4,0-0.5
	C8.7,27.1,9,27.1,9.2,27.3z"/>
<path class="st41" d="M8.6,12.9c0,0.1,0,0.2,0,0.3c0,0.4,0.4,0.5,0.5,0.7c-0.1,0.3-0.3,0.5-0.6,0.6c-0.3,0-0.5-0.1-0.4-0.4
	c-0.3-0.3-0.7-0.4-1.1-0.4C7.4,13,7.7,12.4,8.6,12.9z"/>
<path class="st87" d="M7.2,15.3c0,0-0.1,0-0.1,0c0-0.2,0-0.5-0.1-0.7c0.2,0,0.3,0,0.5,0c0.3,0,0.4,0.2,0.5,0.5c0,0.2,0.1,0.3,0,0.5
	c-0.1,0.1-0.1,0.2-0.2,0.2C7.5,15.7,7.4,15.5,7.2,15.3z"/>
<path class="st70" d="M7.9,15.1c-0.1-0.2-0.3-0.3-0.4-0.5c0.1-0.3,0.3-0.5,0.6-0.5c0.1,0.2,0.3,0.3,0.5,0.2c0.4,0.1,0.4,0.3,0.2,0.6
	C8.6,15,8.3,15.2,7.9,15.1z"/>
<path class="st32" d="M19.5,19.7c0.7,0.6,0.5,1.1-0.2,1.4c-0.2,0.1-0.3,0.4-0.5,0.5c-0.1,0-0.2,0-0.3,0c-0.2-0.1-0.2-0.3-0.3-0.5
	c-0.1-0.2-0.2-0.5-0.2-0.7c0-0.1,0-0.2,0-0.3c0.2-0.3,0.1-0.6,0.2-0.9c0.2-0.3,0.5-0.3,0.7-0.2C19.2,19.2,19.4,19.4,19.5,19.7z"/>
<path class="st104" d="M18.5,21.5c0.1,0,0.2,0,0.2,0c0.2,0,0.3-0.2,0.5,0c-0.1,0.5-0.1,1-0.2,1.4c0,0,0,0,0,0
	c-0.3,0.1-0.5-0.1-0.7-0.3c-0.2-0.3-0.4-0.5-0.3-0.9c0-0.1,0.1-0.2,0.2-0.3C18.3,21.5,18.4,21.5,18.5,21.5z"/>
<path class="st132" d="M19.5,19.7c-0.3,0-0.5-0.2-0.5-0.5c-0.1-0.1-0.1-0.2-0.1-0.3c0-0.3,0.1-0.5,0.4-0.7
	C19.5,18.7,19.8,19.1,19.5,19.7z"/>
<path class="st33" d="M19.2,18.2c-0.1,0.3-0.2,0.5-0.3,0.8c-0.2,0-0.3-0.1-0.4-0.2c-0.1-0.2-0.1-0.5,0-0.7c0.1-0.2,0.2-0.3,0.4-0.3
	c0.1,0,0.2,0,0.2,0C19.2,17.9,19.2,18,19.2,18.2z"/>
<path class="st82" d="M19.2,21.6c-0.2,0-0.3,0.2-0.5,0c0-0.3,0.2-0.5,0.5-0.4C19.2,21.3,19.2,21.4,19.2,21.6z"/>
<path class="st132" d="M19,17.7c-0.1,0.1-0.2,0.2-0.2,0.2c-0.1,0.1-0.2,0.1-0.3,0.1c-0.3-0.1-0.6-0.3-0.6-0.7c0-0.2,0.2-0.3,0.3-0.4
	c0.2-0.1,0.3-0.1,0.5,0C18.8,17.2,18.9,17.5,19,17.7z"/>
<path class="st128" d="M18.7,16.9c-0.1,0-0.3,0.1-0.4,0.1c0-0.7,0.2-1.3,1.2-1.2c-0.1,0.2-0.1,0.3-0.2,0.5
	C19.1,16.5,18.9,16.7,18.7,16.9z"/>
<path class="st133" d="M19.5,15.8c-0.6,0.2-0.8,0.8-1.2,1.2c-0.1,0.1-0.2,0.2-0.2,0.2c-0.1,0.1-0.2,0.1-0.3,0
	c-0.3-0.3-0.3-0.6-0.1-0.9c0.6-0.4,0.3-1.2,0.9-1.7c0.2-0.1,0.3-0.1,0.5,0.1c0.1,0.1,0.2,0.2,0.3,0.3C19.4,15.3,19.4,15.6,19.5,15.8
	z"/>
<path class="st134" d="M18.5,22.5c0.1,0.2,0.3,0.4,0.5,0.5c-0.2,0.3-0.6,0.3-0.7,0.7c-0.2,0.1-0.5,0.2-0.7,0.3
	c-0.1-0.1-0.2-0.2-0.3-0.4c-0.1-0.3-0.3-0.5-0.3-0.7c0-0.2,0.1-0.4,0.3-0.5C17.7,22.2,18.1,22.5,18.5,22.5z"/>
<path class="st55" d="M16.4,26.1c-0.4,0.3-0.5-0.1-0.7-0.2c-0.8,0.2-1.4,1.1-2.4,0.6c-0.1-0.1-0.1-0.1-0.1-0.2c0-0.1,0-0.1,0-0.1
	c0.7-0.5,1.2-1.2,1.9-1.6c0.2-0.1,0.3-0.1,0.5,0c0.3,0.3,0.7,0.5,1,0.8C16.5,25.6,16.4,25.9,16.4,26.1z"/>
<path class="st123" d="M16.6,25.4c-0.5,0-0.9-0.1-1-0.7c-0.1-0.5,0.3-0.7,0.7-0.9c0.2,0,0.4,0,0.6,0.2c0.1,0.3,0.1,0.6,0,0.9
	c0,0,0,0,0,0C16.6,25,16.6,25.2,16.6,25.4z"/>
<path class="st135" d="M16.8,24.9c-0.1-0.2-0.4-0.5,0-0.7c0.2-0.3,0.2-0.8,0.7-0.7c0,0.2,0,0.4,0,0.5C17.3,24.2,17.5,24.9,16.8,24.9
	z"/>
<path class="st76" d="M15.1,15.3c0.1,0.1,0.2,0.2,0.3,0.3c0.3,0.1,0.5,0.4,0.3,0.7c-0.7,0.1-1.3,0.4-2,0.2c-0.1-0.2-0.1-0.3,0.1-0.5
	c0.6,0.1,0.3-0.5,0.5-0.7C14.5,15.1,14.8,15.1,15.1,15.3z"/>
<path class="st83" d="M13,13.9c-0.2,0.6,0,1.6-1.2,1.4c0,0-0.1-0.1-0.1-0.1c0-0.7,0.1-1.3,1-1.5C12.8,13.7,12.9,13.8,13,13.9z"/>
<path class="st122" d="M11.8,15.3c0.4,0.3,0.5,0.8,0.7,1.2c0.1,0.1,0.1,0.2,0,0.3c-0.1,0.1-0.2,0.1-0.3,0.1
	c-0.6-0.2-0.9-0.8-1.2-1.3c0-0.1,0.1-0.2,0.1-0.3C11.4,15.1,11.6,15.1,11.8,15.3L11.8,15.3z"/>
<path class="st76" d="M12.5,16.8c0-0.1,0-0.2,0-0.3c0.1,0,0.1,0,0.2,0c0.2-0.1,0.4-0.2,0.7-0.1c0.2,0.1,0.3,0.2,0.4,0.4
	c0,0.4-0.3,0.5-0.6,0.6c-0.3,0.1-0.6,0.1-0.9-0.1C12.1,17,12.3,16.9,12.5,16.8z"/>
<path class="st136" d="M15.1,15.3c-0.3,0-0.6,0-0.9,0c-0.2-0.6,0.1-1,0.5-1.4c0.3,0.3-0.7,0.9,0.2,1.1C15,15.1,15.1,15.2,15.1,15.3z
	"/>
<path class="st137" d="M13,13.9c-0.1,0-0.1,0-0.2,0c-0.1-0.1-0.1-0.2-0.2-0.3c0-0.2,0-0.3,0.2-0.4l0,0c0.4-0.2,0.7,0,0.9,0.2
	C13.7,13.9,13.3,13.8,13,13.9z"/>
<path class="st138" d="M13.5,16.5c-0.3,0-0.5,0-0.8-0.1c0.3-0.3,0.5-0.7,1-0.4c0,0.2,0,0.3,0,0.5C13.7,16.6,13.6,16.6,13.5,16.5z"/>
<path class="st139" d="M13.7,13.4c-0.3-0.1-0.6-0.2-0.9-0.2c0.1-0.1,0.2-0.2,0.2-0.2c0.2,0,0.4,0,0.5-0.2c0.3-0.1,0.4,0,0.4,0.2
	C13.9,13.1,13.8,13.2,13.7,13.4z"/>
<path class="st72" d="M13.9,12.9c-0.1-0.1-0.3-0.2-0.4-0.2c0.1-0.2,0.1-0.3,0.2-0.5c0.3,0.2,0.5,0.3,0.8,0.5
	C14.3,12.9,14.1,12.9,13.9,12.9z"/>
<path class="st60" d="M12.7,13.2c0,0.2,0,0.3,0,0.5c-0.1,0.1-0.3,0.1-0.5,0.1c-0.2-0.1-0.3-0.3-0.3-0.6c0-0.1,0-0.2,0-0.3
	C12.4,12.7,12.5,13.1,12.7,13.2z"/>
<path class="st140" d="M19,14.8c-0.1,0-0.3,0-0.4,0.1c-0.2,0.2-0.4,0.4-0.7,0.3c-0.1-0.1-0.1-0.2,0-0.3c0.2-0.1,0.4-0.2,0.5-0.5
	c0.2,0,0.4,0,0.5-0.2c0.1,0,0.2,0,0.3,0C19,14.3,19,14.6,19,14.8z"/>
<path class="st141" d="M15.6,16.3c-0.1-0.2-0.1-0.5-0.2-0.7c0.8-0.1,1.5,0.8,2.4,0.4c0.1,0,0.1,0.1,0.1,0.2c0,0.1,0,0.1,0,0.1
	c-0.4,0.4-0.9,0.3-1.3,0.4c-0.2,0-0.4,0-0.6-0.1C15.8,16.6,15.7,16.4,15.6,16.3z"/>
<path class="st47" d="M17.8,16.3c0-0.1,0-0.2,0-0.3c-0.1-0.3-0.1-0.6-0.2-0.9c0-0.1,0.1-0.1,0.2,0c0.3-0.1,0.5-0.1,0.8-0.2
	c-0.2,0.6-0.1,1.3-0.7,1.6C17.7,16.5,17.7,16.4,17.8,16.3C17.7,16.3,17.8,16.3,17.8,16.3z"/>
<path class="st11" d="M17.8,15c-0.1,0-0.1,0-0.2,0c-0.3,0.1-0.7,0.4-0.8-0.2c0.3,0,0.5,0,0.7-0.2c0.1,0.1,0.2,0.1,0.2,0.2
	C17.8,14.9,17.8,15,17.8,15z"/>
<path class="st118" d="M7.2,15.3c0.3,0.1,0.5,0.2,0.8,0.3c0.1,0.4,0.1,0.7,0.1,1.1c0,0.1-0.1,0.2-0.2,0.3c-0.4,0.2-0.8,0.4-1.1-0.2
	C6.9,16.3,7.1,15.8,7.2,15.3z"/>
<path class="st42" d="M6.8,16.7c0.4,0.4,0.8,0,1.2,0c0.2,0.5-0.1,0.8-0.5,1c-0.2,0-0.3,0-0.5,0c-0.3-0.1-0.4-0.4-0.5-0.7
	c0-0.1,0-0.2,0-0.2C6.6,16.8,6.7,16.8,6.8,16.7z"/>
<path class="st142" d="M6.5,17c0.2,0.2,0.3,0.5,0.5,0.7c-0.2,0-0.3,0-0.5,0c-0.2-0.1-0.2-0.3-0.2-0.5C6.4,17.2,6.4,17.1,6.5,17z"/>
<path class="st67" d="M8.9,22.8c-0.1-0.5,0.2-0.9,0-1.5c-0.4,0-0.5,0.7-1,0.3c-0.5-0.4-0.2-1-0.5-1.5c-0.1-0.2,0.3-0.3,0.5-0.3
	c0.5,0,0.9-0.1,1.3-0.5c0.4-0.6,0.8-0.3,1.2,0c-0.6,1-0.6,1-0.5,2.3c0,0.2-0.1,0.3-0.2,0.4c-0.2,0.2-0.2,0.6-0.6,0.7
	C9,22.8,9,22.8,8.9,22.8z"/>
<path class="st143" d="M6.3,21.6c0.2,0,0.4,0,0.7,0c0.3,0.4,0.5,0.8,0.8,1.2c0.5,0.3,1.1,0.5,1.4,1c0,0.1,0,0.2-0.1,0.3
	c-0.5,0.3-1.1,0-1.5,0.4c-0.3,0.2-0.5,0-0.6-0.3c0-0.1,0-0.1,0-0.2c-0.4-0.7-1.1-0.9-1.7-1.4C5.9,22.4,6.3,22.2,6.3,21.6z"/>
<path class="st117" d="M10.3,19.4c-0.4,0.1-0.8-0.3-1.2,0c-0.6-0.2-0.8-0.9-1.5-1c0-0.1,0-0.1,0-0.2c0.2-0.2,0.2-0.5,0.5-0.6
	c0.4-0.1,0.6-0.3,0.9-0.5c0.3-0.1,0.6,0.2,0.9,0.3c0.1,0.1,0.3,0.1,0.4,0.2c0.1,0.1,0.1,0.2,0.1,0.3c0,0.3-0.3,0.7-0.2,1
	c0,0.1,0,0.2,0.1,0.3C10.4,19.3,10.4,19.4,10.3,19.4z"/>
<path class="st48" d="M9.1,23.7c-0.6-0.2-1.1-0.4-1.3-1c0.4,0,0.8,0,1.2,0c0,0,0,0,0,0c0.2,0.1,0.3,0.2,0.4,0.4
	c0.1,0.1,0.1,0.3,0,0.4C9.3,23.7,9.2,23.7,9.1,23.7z"/>
<path class="st7" d="M8.2,17.7c-0.2,0.2-0.3,0.3-0.5,0.5c0-0.2,0-0.4-0.2-0.5c0.2-0.3,0.3-0.6,0.5-1c0,0,0,0,0,0
	c0.2-0.2,0.5-0.3,0.8-0.2c0.3,0.2,0.3,0.3,0,0.6C8.6,17.3,8.3,17.4,8.2,17.7z"/>
<path class="st144" d="M6.5,24.4c-0.2,0-0.3,0-0.5,0c-0.2-0.2-0.3-0.3-0.5-0.5c0.2-0.3,0.5-0.2,0.7-0.2C6.5,23.9,6.8,24.1,6.5,24.4z
	"/>
<path class="st75" d="M6.5,24.4c-0.1-0.2-0.1-0.5-0.2-0.7c0.2,0.1,0.5,0.2,0.7,0.2c0,0,0,0,0,0c0.2,0.2,0.2,0.5,0,0.7
	c-0.2,0-0.3,0-0.5,0C6.5,24.6,6.5,24.5,6.5,24.4z"/>
<path class="st56" d="M13.2,26.4c0.7,0,1.3,0,1.8-0.5c0.2-0.2,0.4-0.2,0.6,0c-0.2,0.8-1.4,0.7-1.4,1.7c-0.1,0.2-0.3,0.2-0.5,0.2
	c-0.6,0.6-1.3-0.3-1.9,0.2c-0.4-0.2-0.5-0.5-0.5-1c0.3-0.4,1-0.1,1.1-0.8C12.5,26,13,26.1,13.2,26.4z"/>
<path class="st145" d="M8.4,27.3c0,0.2,0,0.3,0,0.5c-0.2-0.2-0.3-0.5-0.5-0.7c0,0,0,0,0,0c0.1-0.5,0-1.1,0.2-1.6
	c0.2-0.2,0.4-0.1,0.6,0.1c0.2,0.2,0.4,0.5,0.6,0.7c0.1,0.1,0.2,0.2,0.2,0.4c0,0.1,0,0.2-0.1,0.3C9.1,27.2,8.7,27.1,8.4,27.3z"/>
<path class="st146" d="M8.2,25.4C8.4,26,8.5,26.6,8,27c-0.2-0.3-0.5-0.6-0.7-0.9c0.7-0.6-0.1-1-0.2-1.4c0-0.2,0-0.5,0-0.7
	c0.2,0.2,0.3,0.3,0.5,0.5c0.2,0.1,0.3,0.2,0.4,0.3C8,25,8.2,25.2,8.2,25.4z"/>
<path class="st128" d="M8.9,16.8c-0.3,0-0.6,0-1,0c0-0.4-0.5-0.8,0-1.2c0,0,0,0,0,0c0.4-0.1,0.5-0.5,0.7-0.7c0.3-0.2,0.2-0.3,0-0.5
	C8.9,14.2,9,14,9.2,13.9c0.1,0.2,0.5,0.3,0.4,0.6c-0.3,1.4,0.4,0.4,0.7,0.3c0.1,0.1,0.1,0.2,0.2,0.3c0,0.3-0.1,0.5-0.4,0.6
	c-0.2,0.1-0.4,0.1-0.6,0.1c-0.6,0-0.2,0.3-0.2,0.6c0,0.1,0,0.2,0,0.3C9.1,16.8,9,16.8,8.9,16.8z"/>
<path class="st147" d="M12,13.2c0.2,0.1,0.2,0.3,0.2,0.5c-0.4,0.5-0.6,1.2-1.4,1.3c-0.6,0-0.1-0.7-0.5-0.8c0-0.2,0-0.3,0-0.5
	c0.1,0,0.1,0,0.2,0c0.3-0.2,0.7-0.2,1-0.5C11.7,13.2,11.9,13.2,12,13.2z"/>
<path class="st148" d="M10.4,14.1c0.9-0.2,0.3,0.5,0.5,0.7c0.1,0.1,0.1,0.2,0.1,0.3c-0.2,0.4-0.4,0.2-0.6-0.1c0-0.1,0-0.1,0-0.2
	C10.4,14.6,10.4,14.4,10.4,14.1z"/>
<path class="st149" d="M11.6,13.2c-0.2,0.5-0.6,0.5-1,0.5c0-0.1,0-0.2,0-0.2C10.9,13.2,11.2,13.1,11.6,13.2z"/>
<path class="st150" d="M9.4,26.6c-0.1-0.1-0.2-0.1-0.2-0.2c0-0.2,0.1-0.3,0.1-0.4c0.2-0.3,0.5-0.5,0.8-0.7c0.2-0.1,0.4-0.2,0.6-0.3
	c0.2,0,0.3,0,0.5,0.1c0.1,0.1,0.1,0.2,0.1,0.3c0.1,0.2-0.4,0.7,0.3,0.7c0.5-0.4,1.1-0.4,1.6-0.1c0,0,0.1,0.1,0.1,0.1
	c0,0.1,0,0.2,0,0.2c-0.2,0.2-0.8-0.4-0.7,0.5c0,0.5-0.8,0.1-1.2,0.3c-0.2,0.1-0.3,0.2-0.5,0.2C10.2,27.4,10,26.6,9.4,26.6z"/>
<path class="st89" d="M9.4,26.6c0.9-0.6,0.9,0.6,1.4,0.7c-0.4,0.9-0.8,0.1-1.2,0c0.2-0.1,0.1-0.2-0.2-0.5
	C9.4,26.7,9.4,26.7,9.4,26.6z"/>
<path class="st80" d="M9.4,26.8c0.2,0,0.5,0,0.5,0.3c0,0.2-0.2,0.2-0.3,0.2c-0.2,0-0.3,0-0.5,0c-0.2,0-0.5,0-0.7,0
	C8.7,27,9,26.9,9.4,26.8z"/>
<path class="st139" d="M8.7,14.8c-0.1,0.4,0.1,1.1-0.7,0.7c0-0.2,0-0.3,0-0.5C8.2,15.1,8.3,14.3,8.7,14.8z"/>
<path class="st16" d="M18,20.4c0.3,0.1,0.2,0.4,0.2,0.7c-0.3,0.4-0.7,0.4-1.1,0.4c-0.1,0-0.2-0.1-0.3-0.1c-0.2-0.3-0.2-0.6-0.1-0.8
	c0.1-0.1,0.1-0.2,0.2-0.2c0.2,0,0.4,0,0.6,0.1C17.7,20.4,17.9,20.4,18,20.4z"/>
<path class="st130" d="M17.1,21.3c0.3-0.3,0.8-0.3,1.2-0.3c0.2,0.1,0.3,0.3,0.2,0.5c-0.1,0-0.1,0-0.2,0
	C17.8,21.8,17.3,22.3,17.1,21.3z"/>
<path class="st28" d="M18.7,18.7c0.1,0.1,0.2,0.2,0.3,0.2c0,0.1,0,0.1,0,0.2c-0.3,0-0.5,0-0.7,0.3c-0.1,0.1-0.3,0.1-0.5,0.1
	c-0.2-0.1-0.3-0.3-0.3-0.5c0-0.1,0.1-0.2,0.2-0.3c0.2-0.1,0.4-0.2,0.6-0.2C18.5,18.5,18.6,18.6,18.7,18.7z"/>
<path class="st151" d="M18,20.4c0,0.5-0.3,0.3-0.5,0.2c-0.2-0.2-0.4-0.4-0.2-0.8c0.2-0.1,0.3-0.1,0.5-0.1c0.2,0.1,0.3,0.2,0.2,0.4
	C18,20.2,18,20.3,18,20.4z"/>
<path class="st12" d="M18,20.1c-0.1-0.1-0.2-0.2-0.2-0.3c-0.1-0.2-0.1-0.3,0-0.4c0.2,0,0.3,0,0.5,0C18.2,19.6,18.6,20.1,18,20.1z"/>
<path class="st86" d="M17.1,21.3c0.3,0.7,0.8,0.1,1.2,0.2c0,0.1,0,0.1,0,0.2c-0.3,0.3-0.7,0.5-1.2,0.6c-0.6,0.4-1.4,0.2-2,0.6
	c-0.4,0.1-0.7,0.5-1.1,0.6c-0.6,0.2-1,0.1-0.7-0.6c0.1-0.3,0.4-0.2,0.6-0.4c0.2-0.2,0.4-0.4,0.5-0.6c0.7-0.8,1.5-1,2.4-0.6
	C16.9,21.3,17,21.3,17.1,21.3z"/>
<path class="st105" d="M17.1,22.3c0.3-0.3,0.8-0.4,1.2-0.5c-0.2,0.4,0.1,0.5,0.2,0.7c-0.4,0.4-0.8,0-1.2,0
	C17.2,22.4,17.1,22.4,17.1,22.3z"/>
<path class="st152" d="M18.7,18.7c-0.1,0-0.3,0-0.4-0.1c-0.1-0.2,0.1-0.4-0.1-0.6c0.1-0.2,0.1-0.3,0.3-0.1c0.1,0,0.2,0,0.2,0
	C18.8,18.2,18.7,18.5,18.7,18.7z"/>
<path class="st68" d="M18.5,17.9c-0.1,0.1-0.2,0.1-0.3,0.2c-0.1,0.3-0.3,0.5-0.6,0.4c-0.1-0.1-0.2-0.1-0.2-0.3
	c0-0.3,0.1-0.5,0.2-0.8c0.1-0.1,0.1-0.2,0.2-0.2c0.1,0,0.2,0,0.3,0C18,17.6,18.4,17.7,18.5,17.9z"/>
<path class="st52" d="M17.8,17.2c0,0.1,0,0.2,0,0.2c-0.4,0.3-0.7-0.1-1.1-0.1c-0.2-0.1-0.3-0.3-0.3-0.5c0-0.1,0.1-0.2,0.2-0.3
	c0.4-0.1,0.8-0.2,1.2-0.2c0,0.1,0,0.2,0,0.2C17.6,16.8,17.7,17,17.8,17.2z"/>
<path class="st15" d="M17.1,22.3c0.1,0.1,0.2,0.2,0.2,0.2c-0.2,0.1-0.2,0.3-0.3,0.5c-0.1,0.1-0.1,0.2-0.2,0.2c-0.1,0-0.3,0.1-0.5,0
	c-0.2,0-0.5-0.1-0.7-0.2c-0.1,0-0.2,0-0.3-0.1c-0.1,0-0.2-0.1-0.2-0.2C15.7,22.1,16.4,22.4,17.1,22.3z"/>
<path class="st153" d="M16.8,23c0.1,0,0.2,0,0.2,0c0.3,0,0.5,0.2,0.5,0.5c-0.3,0.2-0.3,0.6-0.7,0.7c-0.1-0.2-0.3-0.2-0.5-0.2
	C16.2,23.5,16.6,23.3,16.8,23z"/>
<path class="st145" d="M16.8,23c0,0.4-0.3,0.6-0.5,0.9c-0.3,0.2-0.6,0.4-0.7,0.7c-0.2,0-0.3,0-0.5,0c0,0,0-0.1-0.1-0.1
	c0-0.3,0.1-0.5,0.3-0.8c0.3-0.3,0.6-0.6,1-0.8C16.5,23,16.7,23,16.8,23z"/>
<path class="st50" d="M15.2,24.7c-0.6,0.6-1,1.4-1.9,1.4c0,0,0,0,0,0c-0.1-0.1-0.1-0.2-0.1-0.3c0.4-0.5,0.9-1,1.5-1.3
	C14.9,24.5,15,24.5,15.2,24.7L15.2,24.7z"/>
<path class="st48" d="M15.6,16.3c0.1,0.1,0.2,0.2,0.3,0.2c0.2,0.3-0.1,0.5-0.3,0.6c-0.3,0.2-0.6,0.1-0.9,0.1c-0.3-0.1-0.7-0.1-1-0.5
	c-0.1-0.1-0.1-0.1-0.2-0.2c0.1,0,0.1,0,0.2,0C14.3,16.3,14.9,15.8,15.6,16.3z"/>
<path class="st72" d="M10.8,15.1c0-0.1,0-0.2,0-0.2c0.6-0.2,0.8-1,1.4-1.2c0.2,0,0.3,0,0.5,0c0,0.1,0,0.2,0,0.2
	c-0.9,0.1-0.7,0.9-1,1.4c-0.2,0-0.5,0-0.7,0C10.9,15.3,10.9,15.2,10.8,15.1z"/>
<path class="st104" d="M12.5,16.8c-0.1,0.2-0.1,0.4-0.2,0.5c0.1,0.1,0.1,0.2,0.1,0.3c0,0.5,0.2,0.8,0.8,0.7c0.1,0,0.1,0,0.2,0
	c0.1,0,0.2,0.1,0.3,0.2c0.1,0.3,0.1,0.5-0.2,0.8c-0.1,0.1-0.2,0.1-0.3,0.1c-0.3,0.1-0.7,0-1.1,0c-0.3-0.2-0.3-0.7-0.5-1
	c-0.1-0.3-0.3-0.6-0.3-1c0-0.1,0-0.2,0.1-0.3c0.2-0.3,0.4-0.7,0.8-0.4C12.4,16.8,12.4,16.8,12.5,16.8z"/>
<path class="st121" d="M12.3,16.7c-0.4,0-0.5,0.3-0.7,0.5c-0.2,0-0.3-0.1-0.4-0.2c-0.2-0.1-0.3-0.2-0.4-0.4c0-0.4-0.2-0.9,0.3-1.1
	C11.7,15.7,11.8,16.4,12.3,16.7z"/>
<path class="st154" d="M11.1,15.5c-0.3,0.3,0,0.8-0.3,1.2c-0.2,0.2-0.4,0.1-0.6-0.1c0-0.1-0.1-0.2-0.1-0.3c0.4-0.5-0.3-0.3-0.3-0.5
	c-0.1-0.1-0.1-0.2,0-0.3c0.3,0,0.5-0.2,0.5-0.5c0.2,0,0.3,0.3,0.5,0c0.1,0.1,0.2,0.2,0.2,0.2C11.1,15.4,11.1,15.5,11.1,15.5z"/>
<path class="st28" d="M12.3,17.5c0-0.1,0-0.1,0-0.2c0.3,0,0.6,0,0.9,0c0.3,0,0.5-0.2,0.7-0.3c0.4-0.2,0.6,0,0.6,0.4
	c0,0.2-0.1,0.3-0.2,0.4c-0.1,0.1-0.2,0.2-0.4,0.3c-0.3,0.1-0.6,0.1-0.8,0.3l0,0C12.6,18.4,12.4,18,12.3,17.5z"/>
<path class="st138" d="M14.4,17.4c0-0.3-0.1-0.5-0.4-0.2c-0.3,0.3-0.5,0.4-0.8,0c0.2-0.2,0.3-0.3,0.5-0.5c0.3,0,0.7-0.1,1,0.2
	c0.1,0.1,0.1,0.2,0.1,0.3C14.7,17.4,14.6,17.6,14.4,17.4z"/>
<path class="st132" d="M15.6,17c0.1-0.2,0.2-0.3,0.2-0.5c0.2,0,0.5,0,0.7,0c0,0.1,0,0.1,0,0.2c-0.1,0.1-0.1,0.3-0.3,0.4
	c-0.2,0.1-0.4,0.1-0.6,0C15.7,17.1,15.7,17,15.6,17z"/>
<path class="st15" d="M9.6,21.8c0-0.2,0-0.5-0.1-0.7c-0.4-0.9-0.1-1.4,0.8-1.7c0,0,0,0,0,0c0.3-0.2,0.5-0.2,0.7,0c0,0.5,1.1,1,0,1.6
	c-0.6,0-0.9,0.5-1,1C9.9,22.1,9.7,22.3,9.6,21.8z"/>
<path class="st117" d="M9.1,23.2c-0.1-0.2-0.2-0.3-0.2-0.5c0.2-0.2,0.3-0.5,0.5-0.7c0.3,0.4,1.1-0.2,1.2,0.6c0,0.2,0,0.4-0.2,0.5
	C10,23.5,9.6,23.6,9.1,23.2z"/>
<path class="st133" d="M10.4,22.5c-0.2-0.5-1,0.4-1-0.5c0.1-0.1,0.2-0.2,0.3-0.2c0.1,0.2,0.3,0.3,0.5,0c-0.1-0.2,0-0.3,0.2-0.3
	c0.3,0.1,0.5,0.3,0.6,0.6C10.9,22.4,10.8,22.6,10.4,22.5z"/>
<path class="st90" d="M10.6,25.1c-0.1,0.2-0.3,0.2-0.5,0.3c-0.9-0.5-0.6,0.4-0.7,0.7c-0.1,0.1-0.2,0.2-0.2,0.3
	c-0.3-0.2-0.5-0.4-0.5-0.7c-0.1-0.6-0.6-0.5-1-0.7c-0.1-0.2-0.1-0.3-0.2-0.5c0.2-1.3,1.1-0.3,1.7-0.5C9.9,24,10.4,24.4,10.6,25.1z"
	/>
<path class="st95" d="M10.6,25.1c-0.5-0.4-1-0.8-1.5-1.2c0-0.1,0-0.2,0-0.2c0,0,0.1,0,0.1,0c1-0.5,1.9-0.1,2.7,0.5
	c0.4,0.3,1.1,0.4,0.2,1c-0.4,0-0.8,0.1-1.1-0.1C10.9,25.2,10.8,25.2,10.6,25.1z"/>
<path class="st19" d="M10.4,16.5c0.1,0.2,0.3,0.2,0.5,0.2c0.2,0,0.4,0,0.5,0.2c-0.2,0.8-1,0.3-1.4,0.7c-0.2-0.2-0.5-0.3-0.7-0.5
	c-0.1-0.1-0.1-0.1-0.1-0.2c0-0.1,0-0.1,0-0.1C9.5,16.7,9.8,16.4,10.4,16.5z"/>
<path class="st28" d="M9.2,17c0,0.1,0,0.2,0,0.2c-0.2,0.3-0.4,0.7-0.9,0.5c-0.5-0.9,0.5-0.6,0.7-1c0.1,0,0.2,0,0.2,0
	C9.2,16.8,9.2,16.9,9.2,17C9.2,17,9.2,17,9.2,17z"/>
<path class="st42" d="M10.1,19.1c-0.5-0.5,0.2-0.8,0.2-1.2c0.6-0.3,0.7,0.2,0.9,0.6c0,0.1,0,0.2,0,0.3C10.9,19.2,10.5,19,10.1,19.1z
	"/>
<path class="st128" d="M9.9,17.7c0.3-0.6,1-0.3,1.4-0.7c0.1,0.1,0.2,0.2,0.2,0.2c0,0.1,0,0.2,0,0.2c-0.2,0.2-0.4,0.3-0.7,0.3
	c-0.2,0-0.3,0-0.5-0.1C10.2,17.7,10,17.7,9.9,17.7z"/>
<path class="st113" d="M10.1,19.1c0.3-0.3,0.6-0.4,1-0.2c0.3,0.1,0.4,0.4,0.3,0.7c-0.1,0.1-0.2,0.1-0.3,0c-0.2-0.3-0.5-0.2-0.7-0.2
	C10.3,19.3,10.2,19.2,10.1,19.1z"/>
<path class="st16" d="M10.4,17.7c0.2,0,0.3,0,0.5,0c0.6-0.1,0.6,0.4,0.8,0.7c0,0.1,0,0.2-0.1,0.3c-0.2,0.1-0.3,0.1-0.5-0.1
	c-0.2-0.3-0.3-0.7-0.7-0.7C10.4,17.9,10.4,17.8,10.4,17.7z"/>
<path class="st52" d="M11.8,24.4c-0.8-0.6-1.7-0.7-2.6-0.7c0-0.2,0-0.3-0.1-0.5c0.4,0,0.8,0,1.2-0.2c1.3-0.3,1.5-0.1,1.6,1.3
	C11.9,24.4,11.8,24.4,11.8,24.4z"/>
<path class="st143" d="M7.7,25c0.4,0.1,1.3-0.5,1,0.7c-0.1-0.1-0.3-0.2-0.4-0.3C8,25.2,7.9,25.1,7.7,25z"/>
<path class="st155" d="M9.2,17c0-0.1,0-0.2,0-0.3c0-0.1,0-0.2,0-0.3c-0.1-0.3-0.3-0.6,0.2-0.7c0.2-0.1,0.3-0.1,0.5-0.2
	c0,0.1,0,0.2,0,0.2c0.2,0.2,0.3,0.3,0.5,0.5c0,0.1,0,0.2,0,0.2C10,16.7,9.7,17.1,9.2,17z"/>
<path class="st10" d="M9.4,15.8c-0.2,0.2-0.2,0.5-0.2,0.7c-0.4-0.2-0.6-0.4-0.2-0.8C9.1,15.5,9.3,15.2,9.4,15.8z"/>
<path class="st18" d="M13.2,25.9c0,0.1,0,0.2,0,0.2c-0.6,0-1.2-0.3-1.7,0.2c-0.3-0.2-0.5-0.6-0.3-1c0.2-0.2,0.4-0.2,0.7-0.1
	C12.4,25.4,13.2,24.8,13.2,25.9z"/>
<path class="st156" d="M9.4,26.1c-0.4-0.4-0.4-0.9,0-1.2c0.3-0.2,0.7,0.1,0.7,0.5C10,25.8,9.7,26,9.4,26.1z"/>
<path class="st109" d="M11.3,25.4c0.1,0.3,0.2,0.6,0.2,1c-0.3,0.2-0.7,0.1-0.8-0.2c-0.2-0.3,0.3-0.5,0.4-0.8
	C11.2,25.3,11.2,25.3,11.3,25.4z"/>
<path class="st118" d="M11.3,25.4c-0.1,0-0.2,0-0.2,0c0-0.1,0-0.2,0-0.2c0.3,0,0.7-0.2,1,0c0.1,0.1,0.1,0.1,0.1,0.2
	c0,0.1,0,0.1-0.1,0.1C11.8,25.4,11.6,25.4,11.3,25.4z"/>
<path class="st73" d="M16.9,21.3c-0.9,0.2-1.9,0-2.4,1c-0.3,0-0.4,0.2-0.5,0.5c-0.2,0.3-0.3,0-0.5,0c-0.2,0.2-0.4,0-0.6-0.1
	c-0.1-0.1-0.2-0.2-0.3-0.4c0-0.2,0-0.3,0.1-0.5c0.1-0.1,0.2-0.2,0.4-0.2c0.2-0.1,0.4-0.2,0.6-0.4c0.2-0.1,0.4-0.2,0.6-0.2
	c0.8,0.1,1.5-0.5,2.3-0.6c0.1,0,0.2,0,0.3,0C16.8,20.7,16.9,21,16.9,21.3z"/>
<path class="st150" d="M16.8,20.4l-0.1,0l-0.1,0c-0.6,0.6-1,0-1.4-0.3c-0.1-0.3,0-0.6,0.3-0.8c0.2-0.1,0.5-0.1,0.7-0.2
	c0.3,0,0.6-0.1,0.9,0.2c0.2,0.4,0.1,0.7-0.1,1.1C17,20.3,16.9,20.3,16.8,20.4z"/>
<path class="st153" d="M17.1,20.3c0-0.4,0-0.8,0-1.2c-0.1-0.1,0-0.2,0.1-0.3c0.1,0,0.2,0,0.3,0.2c0.1,0.3,0.1,0.6-0.1,0.8
	c0.1,0.2,0.1,0.5,0.2,0.7C17.3,20.6,17.2,20.5,17.1,20.3z"/>
<path class="st46" d="M17.3,19c-0.1,0-0.1,0-0.2-0.1c-0.3,0-0.4-0.2-0.4-0.4c0-0.2,0.1-0.4,0.2-0.6c0.1-0.1,0.1-0.2,0.2-0.2
	c0.4,0,0.3,0.4,0.4,0.5c0,0.1,0,0.2,0,0.2c0.1,0.1,0.4,0.2,0.2,0.4c-0.1,0-0.1,0-0.2,0.1C17.5,19,17.4,19,17.3,19z"/>
<path class="st136" d="M17.3,19c0.1,0,0.2,0,0.2,0c0.1,0.2,0.2,0.3,0.2,0.5c0,0.1,0,0.3,0,0.4c-0.2,0-0.3,0-0.5,0
	C17.3,19.6,17.3,19.3,17.3,19z"/>
<path class="st85" d="M17.7,18.9c-0.1-0.1-0.1-0.3-0.2-0.4c0.2-0.1,0.5-0.2,0.7-0.3c0.3,0.1,0,0.3,0,0.5
	C18.1,18.7,17.9,18.8,17.7,18.9z"/>
<path class="st85" d="M13,22.5c0.2,0.1,0.3,0.2,0.5,0.2c0.1,0.2-0.2,0.5,0,0.6c0.2,0.1,0.4,0,0.5-0.1c0.3-0.3,0.6-0.6,1.1-0.5
	c0.1,0,0.1,0,0.2,0c0.2,0.4-0.2,0.5-0.3,0.7c-0.2,0.2-0.4,0.5-0.7,0.7c-0.6,0-1.2,0.1-1.8,0c-0.2-0.1-0.4-0.3-0.4-0.5
	C12.3,23.2,12.3,22.6,13,22.5z"/>
<path class="st133" d="M14,22.8c0-0.2-0.4-0.3-0.2-0.4c0.2-0.1,0.4-0.3,0.7-0.1C14.4,22.5,14.2,22.7,14,22.8z"/>
<path class="st157" d="M17.6,18.2c-0.2-0.2-0.3-0.3-0.5-0.5c-0.2-0.1-0.4-0.2-0.2-0.5c0.5-0.5,0.6,0.4,1,0.2
	C17.7,17.7,17.6,18,17.6,18.2z"/>
<path class="st83" d="M16.8,17.2c0.1,0.2,0.2,0.3,0.2,0.5c0,0.1,0,0.1,0,0.2c-0.2,0.2-0.4,0.2-0.7,0.1c-0.5-0.4-0.5-0.7,0-1.1
	c0.1-0.1,0.2-0.2,0.3-0.2C16.6,16.9,16.6,17.1,16.8,17.2z"/>
<path class="st158" d="M16.4,23c-0.2,0.5-0.5,0.8-0.9,1c-0.4,0.1-0.5-0.1-0.6-0.4c0.2-0.3,0.6-0.4,0.8-0.8
	C15.9,22.8,16.1,22.9,16.4,23z"/>
<path class="st48" d="M15.7,22.8c0,0.5-0.2,0.8-0.7,0.7c-0.1-0.1-0.1-0.1-0.1-0.2c0-0.1,0-0.1,0.1-0.1c0.1-0.2,0.3-0.3,0.4-0.5
	C15.5,22.8,15.6,22.8,15.7,22.8z"/>
<path class="st74" d="M14.9,23.2c0,0.1,0,0.2,0,0.2c0.1,0.2,0.3,0.4,0.5,0.5c-0.1,0.2-0.2,0.4-0.3,0.6c-0.2,0-0.3,0-0.5,0.1
	c-0.3,0.1-0.6,0.3-0.8-0.1c-0.2-0.5,0.4-0.4,0.5-0.6C14.6,23.7,14.8,23.5,14.9,23.2z"/>
<path class="st52" d="M14.4,23.9c-0.1,0.2-0.4,0.3-0.4,0.5c0.1,0.3,0.4,0.2,0.6,0.2c-0.5,0.4-1,0.8-1.5,1.2
	c-0.2-0.7-0.8-0.3-1.2-0.5c0-0.1,0-0.2,0-0.2c0.9-0.6-0.3-0.4-0.2-0.7c0,0,0,0,0,0c0.2-0.2,0.5-0.2,0.7-0.5
	C13.2,24,13.8,23.9,14.4,23.9z"/>
<path class="st69" d="M14.7,17.2c0-0.1,0-0.2,0-0.2c0.3,0,0.6,0,1,0c0,0,0,0,0,0c0.1,0.2,0.1,0.4,0,0.5
	C15.2,17.8,14.9,17.7,14.7,17.2z"/>
<path class="st138" d="M12.3,17.5c0.3,0.3,0.6,0.6,0.9,0.9C12.3,18.7,12.2,18.6,12.3,17.5z"/>
<path class="st39" d="M11.6,18.7c-0.2-0.3-0.5-0.6-0.7-1c0.2-0.3,0.4-0.2,0.7-0.2c0.1,0.3,0.2,0.6,0.3,1
	C11.9,18.7,11.8,18.7,11.6,18.7z"/>
<path class="st87" d="M13.2,19.2c0.2-0.2,0.2-0.4,0.3-0.7c0.1-0.1,0.3-0.2,0.4-0.1c0.1,0.1,0.2,0.2,0.2,0.3c0.1,0.2,0,0.4-0.1,0.6
	c-0.2,0.2-0.5,0.4-0.8,0.2c-0.1-0.1-0.1-0.1-0.1-0.2C13.2,19.2,13.2,19.2,13.2,19.2z"/>
<path class="st159" d="M13.2,19.2c0,0.1,0,0.2,0,0.2c0.1,0.1,0.2,0.3,0.1,0.4c0,0.2-0.1,0.3-0.2,0.4c-0.1,0.1-0.2,0.1-0.3,0.1
	c-0.3-0.1-0.5-0.3-0.5-0.6c0.1-0.3,0.5-0.4,0.6-0.7C13.1,19.2,13.2,19.2,13.2,19.2z"/>
<path class="st105" d="M13,19.2c0,0.4-0.4,0.5-0.5,0.7c-0.2,0.2-0.4,0.1-0.5-0.1c0-0.2,0.1-0.3,0.3-0.4C12.5,19.3,12.8,19.2,13,19.2
	z"/>
<path class="st117" d="M12.3,19.4c-0.1,0.1-0.2,0.2-0.2,0.3c-0.1,0.1-0.2,0.1-0.3,0c-0.2-0.3-0.3-0.6-0.2-1c0,0,0,0,0,0
	c0.1-0.1,0.2-0.2,0.2-0.2C12.2,18.6,11.9,19.2,12.3,19.4z"/>
<path class="st138" d="M14,18.4c-0.2,0-0.3,0-0.5,0.1c-0.1,0-0.2,0-0.3,0c0-0.5,0.4-0.5,0.7-0.5C14.1,18.1,14.1,18.2,14,18.4z"/>
<path class="st78" d="M10.4,16.3c-0.3,0-0.5-0.2-0.5-0.5C10.2,15.8,10.6,15.7,10.4,16.3z"/>
<path class="st81" d="M14.7,17.2c0.3,0.2,0.6,0.3,1,0.2c0.2,0.3,0.1,0.5-0.1,0.6c-0.1,0.1-0.2,0.1-0.4,0.1c-0.4,0-0.8-0.1-0.9-0.5
	c0.1-0.1,0.1-0.2,0.2-0.3C14.5,17.4,14.6,17.3,14.7,17.2z"/>
<path class="st68" d="M14.2,17.7c0.3,0.2,0.6,0.3,0.9,0.2c0.2,0.4-0.2,0.6-0.5,0.7c-0.3,0.1-0.5,0-0.7-0.2c0,0,0-0.1,0-0.1
	c0-0.1,0-0.3,0-0.4C14.1,17.9,14.1,17.8,14.2,17.7z"/>
<path class="st23" d="M15.4,18c0.2-0.1,0.2-0.3,0.2-0.5c0-0.2,0-0.3,0-0.5c0.2,0,0.5,0,0.7,0c-0.2,0.3-0.2,0.6,0,0.9
	c-0.2,0.3-0.4,0.4-0.7,0.4C15.5,18.3,15.3,18.2,15.4,18z"/>
<path class="st160" d="M11.1,19.6c0.1,0,0.2,0,0.2,0c0.3-0.1,0.4,0.1,0.6,0.3c0.2,0.3,0.2,0.6,0.1,0.9c-0.1,0.2-0.3,0.4-0.5,0.4
	c-0.1,0-0.2,0-0.3-0.1C11,21.1,11,21,11,20.9c0-0.1,0-0.1,0-0.1c0.4-0.2,0.5-0.4,0.1-0.7C11,20,10.8,19.9,11.1,19.6z"/>
<path class="st144" d="M11.1,20.8c0,0.1,0,0.1,0,0.2c-0.2,0.3-0.3,0.6-0.7,0.5c-0.1,0.1-0.2,0.2-0.3,0.3
	C10.1,21,10.3,20.8,11.1,20.8z"/>
<path class="st160" d="M12.5,24c0.2,0.8-0.5,0.3-0.7,0.5c0-1-0.6-1.4-1.5-1.4c0-0.2,0-0.3,0-0.5c0.2-0.2,0.3-0.3,0.5-0.5
	c0.1-0.1,0.3-0.2,0.4-0.2c0.4,0.1,0.9-0.1,1.1,0.4c-0.1,0.4-0.2,0.8-0.1,1.2C12.3,23.7,12.3,23.9,12.5,24z"/>
<path class="st161" d="M11.3,22c-0.2,0-0.3,0-0.5,0c-0.3,0-0.5-0.2-0.5-0.5c0.2-0.2,0.4-0.5,0.7-0.5c0.1,0,0.1,0,0.2,0
	c0.2,0.1,0.5,0,0.6,0.3C12,21.8,11.8,22.1,11.3,22z"/>
<path class="st39" d="M11.8,19.9c-0.2-0.1-0.3-0.2-0.5-0.2c-0.1-0.2-0.2-0.5-0.2-0.7c0-0.1,0-0.2,0-0.2c0.2,0,0.3,0,0.5,0
	c0.2,0.3,0.3,0.6,0.2,1C11.9,19.7,11.9,19.8,11.8,19.9C11.9,19.9,11.8,19.9,11.8,19.9z"/>
<path class="st16" d="M15.4,20.1c0.4,0,0.7,0.5,1.2,0.3c-0.7,0.6-1.5,1.1-2.4,0.7c-0.1-0.2-0.1-0.3-0.1-0.5
	C14.5,20.2,14.8,19.8,15.4,20.1z"/>
<path class="st154" d="M12.3,23.5c-0.7-0.4-0.5-0.8,0-1.2c0.2-0.1,0.3-0.2,0.5,0c0.1,0.1,0.2,0.2,0.2,0.2
	C12.6,22.7,12.8,23.3,12.3,23.5z"/>
<path class="st142" d="M12.8,22.3c-0.2,0-0.3,0-0.5,0c-0.3-0.3-0.7,0.1-1-0.2c0.3-0.1,0.5-0.4,0.5-0.7c0.2-0.1,0.5-0.1,0.8-0.1
	c0.2,0.1,0.3,0.3,0.2,0.5C12.8,22,12.8,22.1,12.8,22.3z"/>
<path class="st32" d="M12.8,21.8c-0.1-0.2-0.2-0.3-0.2-0.5c-0.1-0.1-0.2-0.3-0.1-0.5c0.1-0.3,0.3-0.4,0.6-0.3c0.3,0,0.5,0.1,0.6,0.3
	c0.1,0.4-0.1,0.7-0.3,1C13.1,21.8,12.9,21.8,12.8,21.8z"/>
<path class="st122" d="M13.5,20.9c-0.2-0.1-0.3-0.2-0.5-0.3c-0.1,0-0.1-0.1-0.1-0.2c0-0.1,0.1-0.1,0.1-0.1l0,0
	c0.3-0.2,0.6-0.4,0.9-0.3c0.2,0.1,0.4,0.3,0.3,0.6c0,0.2,0,0.3,0,0.5c-0.2,0.1-0.3,0.2-0.5,0.2C13.5,21.2,13.6,21,13.5,20.9z"/>
<path class="st162" d="M13.5,20.9c0.2,0.1,0.2,0.3,0.2,0.4c-0.1,0.2-0.3,0.4-0.5,0.5C13.2,21.4,13.3,21.1,13.5,20.9z"/>
<path class="st120" d="M14.2,20.6c-0.1-0.2-0.2-0.3-0.3-0.5c-0.1-0.1-0.1-0.2-0.1-0.3c0-0.3,0.3-0.5,0.4-0.8
	c0.1-0.1,0.1-0.1,0.2-0.2c0.2,0,0.3,0.1,0.4,0.2c0.3,0.2,0.4-0.3,0.7-0.2c0.2,0.1,0.3,0.3,0.1,0.5c-0.3,0.2-0.2,0.5-0.2,0.7
	C15,20.3,14.6,20.4,14.2,20.6z"/>
<path class="st163" d="M16.8,18.4c0.1,0.2,0.2,0.3,0.3,0.5c0,0.1,0,0.2,0,0.2c-0.2,0.1-0.5,0.1-0.7,0.2c-0.4-0.2-0.5-0.6-0.3-1
	C16.4,18.2,16.6,18.2,16.8,18.4z"/>
<path class="st61" d="M16.1,18.4c0,0.3,0.1,0.6,0.2,0.9c-0.2,0-0.5,0-0.7,0c-0.1-0.1-0.1-0.3-0.2-0.4c-0.1,0.1-0.2,0.1-0.3,0
	c0-0.1,0-0.2,0-0.3C15.5,18.4,15.8,18.3,16.1,18.4z"/>
<path class="st99" d="M16.1,18.4c-0.3,0.2-0.6,0.3-1,0.2c-0.1-0.5,0.3-0.3,0.5-0.5c0.2-0.1,0.5-0.2,0.7-0.3c0.2,0,0.5,0,0.7,0
	c-0.1,0.2-0.2,0.3-0.3,0.5C16.6,18.4,16.4,18.4,16.1,18.4z"/>
<path class="st146" d="M14.4,19.2c-0.2,0.2-0.3,0.5-0.5,0.7c-0.2,0.2-0.5,0.2-0.7,0c0-0.2,0-0.3,0-0.5c0.2-0.1,0.5-0.2,0.7-0.3
	C14.1,19,14.3,19,14.4,19.2z"/>
<path class="st134" d="M14.4,19.2c-0.2,0-0.3,0-0.5,0c0-0.2,0-0.5,0-0.7c0.2,0,0.5,0,0.7,0c0.1,0.2,0,0.4-0.2,0.5
	C14.5,19,14.5,19.1,14.4,19.2z"/>
<path class="st126" d="M13,20.4c0,0.1,0,0.2,0,0.2c-0.2,0-0.4,0-0.5,0.2c-0.2,0.2-0.5,0.2-0.7,0c0-0.3,0-0.6,0-1c0-0.1,0-0.2,0-0.2
	c0.1,0,0.2,0,0.2,0c0.2,0.1,0.3,0.2,0.5,0.2C12.7,20,12.8,20.2,13,20.4z"/>
<path class="st94" d="M13.2,19.9c0.2,0,0.5,0,0.7,0c0,0.1,0,0.2,0,0.2c-0.3,0.2-0.6,0.3-1,0.2C13,20.1,13.1,20,13.2,19.9z"/>
<path class="st37" d="M14.5,18.9c0.1-0.2,0.1-0.3,0.2-0.5c0.1-0.2,0.3-0.3,0.4-0.5c0.1,0,0.2,0,0.3,0c0.1,0.1,0.2,0.2,0.2,0.2
	c-0.2,0.2-0.3,0.3-0.5,0.5c0,0.1,0,0.2,0,0.2c-0.1,0.2-0.2,0.3-0.4,0.2C14.6,19.1,14.6,19,14.5,18.9z"/>
<path class="st144" d="M11.8,20.8c0.2,0,0.5,0,0.7,0c0,0.2,0,0.3,0,0.5c-0.2,0.1-0.5,0.1-0.7,0c-0.2,0-0.4,0-0.5-0.2
	C11.5,21,11.6,20.9,11.8,20.8z"/>
<path class="st43" d="M14.7,19.2c0.1-0.1,0.3-0.2,0.4-0.2c0.1,0,0.2,0,0.3,0c-0.3,0.2-0.1,0.7-0.6,0.7
	C14.7,19.6,14.7,19.4,14.7,19.2z"/>
</svg>
