<?xml version="1.0" encoding="utf-8"?>
<!-- Generator: Adobe Illustrator 21.1.0, SVG Export Plug-In . SVG Version: 6.00 Build 0)  -->
<svg version="1.1"
	 id="svg2" inkscape:output_extension="org.inkscape.output.svg.inkscape" inkscape:version="0.92.2 (5c3e80d, 2017-08-06)" sodipodi:docname="MTV_Logo.svg" sodipodi:version="0.32" xmlns:cc="http://creativecommons.org/ns#" xmlns:dc="http://purl.org/dc/elements/1.1/" xmlns:inkscape="http://www.inkscape.org/namespaces/inkscape" xmlns:rdf="http://www.w3.org/1999/02/22-rdf-syntax-ns#" xmlns:sodipodi="http://sodipodi.sourceforge.net/DTD/sodipodi-0.dtd" xmlns:svg="http://www.w3.org/2000/svg"
	 xmlns="http://www.w3.org/2000/svg" xmlns:xlink="http://www.w3.org/1999/xlink" x="0px" y="0px" viewBox="0 0 1000 767.6"
	 style="enable-background:new 0 0 1000 767.6;" xml:space="preserve">
<g id="g19319" transform="matrix(13.05826,0,0,-13.05826,148.81408,220.3562)">
	<path id="path19321" inkscape:connector-curvature="0" d="M13.1-14.3v-20.3l3.4,2.6v14.3L13.1-14.3z"/>
</g>
<g id="g19323" transform="matrix(13.05826,0,0,-13.05826,189.94237,246.86316)">
	<path id="path19325" inkscape:connector-curvature="0" d="M17.3-17l4.5,1l1.8,1.5v2.7L17.3-17z"/>
</g>
<g id="g19327" transform="matrix(13.05826,0,0,-13.05826,186.81231,66.34055)">
	<path id="path19329" inkscape:connector-curvature="0" d="M17,1.5l-6.3,2.9L16.4-2l2.2,2.1L17,1.5z"/>
</g>
<g id="g19331" transform="matrix(13.05826,0,0,-13.05826,12.59423,342.22763)">
	<path id="path19333" inkscape:connector-curvature="0" d="M-0.9-26.8h2L1.8-30h0l0.6,3.2h2v-5.5H3.1v3.5h0l-0.8-3.5h-1l-0.8,3.5h0
		v-3.5h-1.3V-26.8z"/>
</g>
<g id="g19337" transform="matrix(13.05826,0,0,-13.05826,67.71837,361.04197)">
	<path id="path19339" inkscape:connector-curvature="0" d="M4.8-28.7c0-1.5-0.7-2.3-2.1-2.3s-2.1,0.7-2.1,2.3v3.4h1.4v-3
		c0-0.6,0-1.3,0.7-1.3c0.7,0,0.7,0.7,0.7,1.3v3h1.4V-28.7z"/>
</g>
<g id="g19341" transform="matrix(13.05826,0,0,-13.05826,77.74058,362.58938)">
	<path id="path19343" inkscape:connector-curvature="0" d="M5.8-28.8c0-0.1,0-0.3,0.1-0.4c0.1-0.3,0.4-0.4,0.7-0.4
		c0.2,0,0.6,0.1,0.6,0.5c0,0.3-0.2,0.4-1,0.6c-0.7,0.2-1.5,0.5-1.5,1.6c0,1.3,0.9,1.8,1.8,1.8c1,0,1.8-0.5,1.9-1.8H7
		c0,0.2-0.1,0.3-0.2,0.4s-0.3,0.1-0.4,0.1c-0.2,0-0.5-0.1-0.5-0.4c0-0.4,0.7-0.5,1.3-0.7c0.6-0.2,1.3-0.6,1.3-1.6
		c0-1.4-1.1-1.9-2.1-1.9c-0.5,0-2,0.2-2,2H5.8z"/>
</g>
<path id="path19345" inkscape:connector-curvature="0" d="M194.6,691.7h18.2v71.7h-18.2V691.7z"/>
<g id="g19347" transform="matrix(13.05826,0,0,-13.05826,122.62313,353.65753)">
	<path id="path19349" inkscape:connector-curvature="0" d="M10.4-27.9c0,0.2-0.2,0.8-0.7,0.8c-0.6,0-0.9-0.8-0.9-1.5
		c0-0.7,0.2-1.5,0.9-1.5c0.5,0,0.7,0.4,0.7,0.9h1.4c0-1.1-0.7-2.3-2.1-2.3c-1.5,0-2.3,1.3-2.3,2.9c0,1.7,0.9,2.9,2.3,2.9
		c1.2,0,1.9-0.8,2-2.2H10.4z"/>
</g>
<g id="g19351" transform="matrix(13.05826,0,0,-13.05826,150.43983,350.0874)">
	<path id="path19353" inkscape:connector-curvature="0" d="M13.3-27.6H12v1.4h3.9v-1.4h-1.3v-4.1h-1.4V-27.6z"/>
</g>
<g id="g19355" transform="matrix(13.05826,0,0,-13.05826,167.53179,342.22763)">
	<path id="path19357" inkscape:connector-curvature="0" d="M15-26.8h3.7v-1.4h-2.3v-0.7h2.1v-1.3h-2.1v-0.7h2.4v-1.4H15V-26.8z"/>
</g>
<g id="g19359" transform="matrix(13.05826,0,0,-13.05826,191.1816,342.22763)">
	<path id="path19361" inkscape:connector-curvature="0" d="M17.4-26.8h1.4v-4.1h2v-1.4h-3.4V-26.8z"/>
</g>
<g id="g19363" transform="matrix(13.05826,0,0,-13.05826,212.04348,342.22763)">
	<path id="path19365" inkscape:connector-curvature="0" d="M19.6-26.8h3.7v-1.4H21v-0.7h2.1v-1.3H21v-0.7h2.4v-1.4h-3.8V-26.8z"/>
</g>
<g id="g19367" transform="matrix(13.05826,0,0,-13.05826,251.58128,372.91063)">
	<path id="path19369" inkscape:connector-curvature="0" d="M23.6-29.9h-1.6l-1.3,5.5h1.4l0.7-3.3h0l0.7,3.3H25L23.6-29.9z"/>
</g>
<path id="path19371" inkscape:connector-curvature="0" d="M585.4,691.7h18.2v71.7h-18.2V691.7z"/>
<g id="g19373" transform="matrix(13.05826,0,0,-13.05826,280.95453,362.58938)">
	<path id="path19375" inkscape:connector-curvature="0" d="M26.6-28.8c0-0.1,0-0.3,0.1-0.4c0.1-0.3,0.4-0.4,0.7-0.4
		c0.2,0,0.6,0.1,0.6,0.5c0,0.3-0.2,0.4-1,0.6c-0.7,0.2-1.5,0.5-1.5,1.6c0,1.3,0.9,1.8,1.8,1.8c1,0,1.8-0.5,1.9-1.8h-1.3
		c0,0.2-0.1,0.3-0.2,0.4c-0.1,0.1-0.3,0.1-0.4,0.1c-0.2,0-0.5-0.1-0.5-0.4c0-0.4,0.7-0.5,1.3-0.7c0.6-0.2,1.3-0.6,1.3-1.6
		c0-1.4-1.1-1.9-2.1-1.9c-0.5,0-2,0.2-2,2H26.6z"/>
</g>
<path id="path19377" inkscape:connector-curvature="0" d="M669.7,691.7h18.2v71.7h-18.2V691.7z"/>
<g id="g19379" transform="matrix(13.05826,0,0,-13.05826,321.62583,341.49898)">
	<path id="path19381" inkscape:connector-curvature="0" d="M30.8-26.7c1.4,0,2.3-1.2,2.3-2.9s-0.9-2.9-2.3-2.9
		c-1.4,0-2.3,1.2-2.3,2.9S29.4-26.7,30.8-26.7 M30.8-31.1c0.4,0,0.9,0.3,0.9,1.5s-0.5,1.5-0.9,1.5c-0.4,0-0.9-0.3-0.9-1.5
		S30.5-31.1,30.8-31.1"/>
</g>
<g id="g19383" transform="matrix(13.05826,0,0,-13.05826,337.31003,342.22763)">
	<path id="path19385" inkscape:connector-curvature="0" d="M32.4-26.8h1.4l1.3-2.9h0v2.9h1.3v-5.5h-1.4l-1.4,3h0v-3h-1.3V-26.8z"/>
</g>
<g id="g19391" transform="matrix(13.05826,0,0,-13.05826,430.22093,84.6626)">
	<path id="path19393" inkscape:connector-curvature="0" d="M41.9-0.4c-0.6,0.4-1.6,0.6-2.6,0.5c-1-0.1-1.6-0.6-2.1-1
		c0,0-1.4-1.4-1.4-1.4l-0.4-0.6c0,0-1.2-1.6-1.2-1.6s0,0,0,0v8.6l-3.8,2.3l0-15.5l0-0.1l-0.9-1.1V6.4H6l-8.3-8.3l-7.4,8.3h-23.1
		v-51.4h23.5v22.6l6.9-7.1l8.5,7.2v-22.7h23.3l0,21.7c0.2,0.3,0.3,0.6,0.3,0.6c0,0,0.2,0.3,0.2,0.3c0,0,0.2,0.3,0.4,0.7l0-23.2
		l3.8,2.6V-15c0.2,0.2,0.4,0.6,0.4,0.6c0,0.1,0.6,0.9,0.6,0.9c0,0,0.9,1.3,0.9,1.3c0,0,0.3,0.4,0.3,0.4l0.8,1.1
		c0.2,0.4,0.6,0.6,0.8,0.7l0.1,0l0.1,0.1l0.4,0.4c0,0,0.7,0.6,0.7,0.6l1.2,0.6l1.1,0.6c0,0,1.1,1.3,1.1,1.3l0.6,1.7
		c0,0,0.2,1.7,0.2,1.7C43.4-2,42.8-0.9,41.9-0.4 M13.8-14.3c0-0.2,0.1-1.7,0.1-1.9c0-0.8,0-1.6,0-1.9c0-0.3,0-1.1,0-1.1
		c0.1-0.7,0.2-1.5,0.2-1.6c0-0.4-0.1-1.7-0.1-2c0-0.1,0.1-0.6,0.1-0.8c-0.1-0.4,0-0.8,0-0.9c0-0.3,0-0.6,0-0.9c0-0.5,0-1-0.1-1.5
		c0-0.1,0-0.9,0-0.9c-0.1-0.8-0.2-1.6-0.1-2.4c0-0.2,0-0.7,0-0.8c0-0.1,0.2-0.8,0.2-0.9c0-0.2,0.1-1.2,0.2-1.4
		c0.1-0.2,0.5-1.2,0.6-1.3c0.1-0.4,0.3-1.3,0.1-1.7c-0.2-0.4-0.4-1.5-0.6-1.7c-0.1-0.2-0.4-0.4-0.5-0.5c-0.1-0.2-0.3-0.3-0.5-0.4
		c-0.5-0.2-1.4-0.3-2.2-0.1c-0.3,0.1-0.8,0.1-1.3,0.4c-0.4,0.3-0.6,1-0.7,1.4c0,0.2,0,0.7,0,0.8c0,0.1-0.2,0.8-0.2,1.1
		c0,0.1,0,0.6,0,0.9C9.2-34.3,9-33.7,9-33.7c-0.1,0.3-0.2,0.9-0.2,0.9c-0.2,0.5-0.2,0.9-0.3,1.3c-0.1,0.7,0.1,1.3,0.2,1.8
		c0.1,0.3,0.2,0.6,0.2,0.8c0,0.2-0.1,1.1-0.1,1.5c0,0.1,0.1,0.5,0.1,0.6c0,0.3,0,1,0.1,1.1c0,0.1,0.1,0.7,0.1,1.4c0,0.2,0,0.5,0,0.8
		c0,0.3,0.1,1,0,1.3c-0.1,0.5,0,0.9-0.1,0.9c0,0.5-0.1,1,0,1.5c0,0.1-0.1,0.8-0.1,1.1c0,0.2,0,1.1,0,1.2c-0.2,2.4-0.5,2.8-0.7,2.9
		c-0.1,0.1-0.5,0.1-0.7,0c-0.2-0.1-0.5-0.4-0.9-0.6c-0.3-0.2-0.9-0.5-1.1-0.6c-0.2-0.2-0.6-0.5-1.4-0.9c-0.2-0.1-0.3-0.3-0.5-0.4
		c-0.3-0.2-0.7-0.7-1.5-1.1c-0.4-0.2-0.7-0.4-1-0.7c-0.1-0.1-0.5-0.8-0.8-1.1c-0.3-0.2-0.4-0.6-0.5-0.7c-0.1-0.3-0.3-0.6-0.6-0.8
		c-0.4-0.3-1.4-0.4-2-0.1c-0.4,0.2-1.1,0.7-1.4,1.5c-0.3,0.9-0.1,2,0.6,2.7c0.4,0.5,1.1,0.7,1.7,0.8c0.4,0.1,0.8,0.2,1.1,0.4
		c0.1,0.1,0.6,0.4,0.7,0.5c0.1,0.1,0.7,0.3,0.8,0.4c0.1,0.1,0.6,0.5,1,0.7c0.6,0.3,1.1,0.6,1.4,0.8c0,0,0.8,0.5,1.4,1
		c0.1,0.1,0.6,0.3,1.2,0.6C5.8-12.2,6.4-12,6.6-12c0.1,0,0.5,0.4,0.6,0.4C7.7-11.3,8-11,7.8-10.1C7.8-9.9,7.7-9.6,7.7-9.2
		c0,0.1,0.1,0.6,0.3,1c0.1,0.2,0.3,0.2,0.3,0.3C8.5-7.7,8.8-7.6,9-7.5c0.1,0.1,0.4,0.3,0.8,0.3c0.7,0.1,1.7-0.4,1.8-0.4
		c0.3-0.1,0.7,0,0.9,0c0,0,0.4,0.2,0.5,0.3c0.1,0.1,0.6,0.2,0.7,0.2c0.1,0.1,0.8,0.4,1,0.5c0.2,0.1,0.6,0.1,0.8,0.2
		c0.3,0.2,0.9,0.4,1.2,0.6C17-5.6,17.3-5.1,17.4-5c0.1,0.2,0.8,0.6,0.9,0.7c0.2,0.2,0.7,0.5,1.1,0.6c0.2,0,0.6-0.1,0.9,0
		c0.3,0,0.8,0,1.1-0.5c0.2-0.3,0.5-0.5,0.5-0.9c0.2-1.1-0.6-2.3-1.3-2.7c-0.1,0-0.4-0.1-0.6-0.2c-0.3-0.1-0.5-0.3-0.7-0.3
		c-0.4-0.1-0.5-0.3-0.7-0.4c-0.1-0.1-0.6-0.4-0.8-0.5c-0.1-0.1-0.3-0.4-0.7-0.5C17-9.8,16.4-9.9,16-10.3c-0.2-0.1-0.9-0.3-1.1-0.3
		c-0.1,0-1-0.4-1-0.9c-0.1-0.5,0-0.7-0.1-1.5C13.7-13.5,13.8-14,13.8-14.3 M42.7-4.4c-0.1-0.3-0.2-1.1-0.5-1.6
		c-0.1-0.2-0.5-0.8-0.9-1.1c-0.3-0.2-0.8-0.5-1-0.5c-0.2-0.1-1.1-0.5-1.3-0.6c-0.4-0.2-0.7-0.5-0.9-0.7c-0.1-0.1-0.2-0.3-0.4-0.4
		c-0.1,0-0.8-0.4-1.1-1c-0.2-0.4-1-1.3-1.1-1.5c-0.2-0.4-0.5-0.9-0.8-1.2c-0.1-0.1-0.2-0.2-0.3-0.4c-0.1-0.1-0.2-0.3-0.3-0.5
		c0,0-0.1-0.1-0.1-0.1c-0.2-0.3-0.4-0.7-0.5-0.8c-0.3-0.3-0.5-0.7-0.6-1.1c-0.1-0.1-0.6-0.8-0.7-1.3c-0.1-0.2-0.5-0.9-0.6-1.1
		c-0.1-0.2-0.6-0.8-0.7-0.9c-0.1-0.2-0.2-0.4-0.2-0.6c-0.1-0.2-0.2-0.6-0.3-0.8c-0.1-0.1-0.2-0.3-0.3-0.4c0,0,0,0,0,0
		c-0.1-0.1-0.1-0.2-0.2-0.4c-0.2-0.3-0.3-0.6-0.5-0.7c-0.1-0.1-0.2-0.2-0.2-0.3c-0.1-0.2-0.9-1.5-1.1-1.9c-0.1-0.1-0.2-0.3-0.3-0.5
		c-0.2-0.4-0.5-0.7-0.6-1.2c-0.1-0.3-0.3-0.8-0.3-0.8c-0.3-0.8-0.4-1.6-0.5-1.8c0-0.4,0-0.8,0-1.2c0-0.4,0-0.8,0-1.1
		c-0.1-0.6-0.4-1.2-0.7-1.7c-0.1-0.1-0.4-0.6-0.8-0.9c-0.3-0.2-0.7-0.3-1.5-0.4c-1.1,0-1.5,0.4-2.1,1.2c-0.1,0.1-0.3,0.5-0.5,1
		c-0.3,0.6-0.5,1.2-0.7,1.9c-0.1,0.2-0.2,0.5-0.2,0.7c-0.1,0.3-0.3,1-0.3,1.1c0,0.1-0.3,1-0.3,1c-0.1,0.5-0.2,1-0.4,1.5
		c-0.1,0.5-0.3,0.9-0.3,1.4c-0.1,0.4-0.3,1.2-0.5,1.7c0,0-0.3,1.1-0.4,1.4c-0.1,0.5-0.6,1.9-0.6,1.9c-0.2,0.5-0.6,1.6-0.6,1.8
		c-0.3,1.5-0.3,2.7,0,3.2c0.1,0.2,0.5,0.5,0.9,0.6c0.1,0.1,0.7,0.4,0.8,0.4c0.3,0.1,0.9,0.1,1.4,0.1c0.1,0,0.6,0,0.9-0.2
		c0.8-0.5,0.8-1.2,0.9-2.5c0,0,0.1-1.4,0.2-1.9c0-0.4,0.1-0.8,0.1-1.2c0-0.3,0-0.6,0.1-0.8c0-0.5,0.2-1.5,0.2-1.5
		c0.2-0.6,0.3-1.1,1-1.4c0.2-0.1,0.4-0.1,0.6,0c0.5,0.3,0.9,1,1.1,1.9c0,0,0.1,0.1,0.1,0.2c0.2,0.2,0.4,0.5,0.5,1.1
		c0,0.1,0.4,0.6,0.5,0.8c0.2,0.3,0.4,0.5,0.5,0.7c0,0.1,0.8,1.3,0.8,1.3s0.3,0.7,0.4,0.9c0.1,0.3,0.2,0.6,0.3,0.6
		c0.1,0.3,0.2,0.8,0.4,1.1c0.4,0.4,0.7,1.3,0.8,1.4c0.1,0.2,0.3,0.6,0.5,0.9c0,0,0,0,0,0.1v0c0,0,0,0,0,0c0.1,0.1,0.2,0.3,0.3,0.4
		l0.7,0.8c0.1,0.1,0.3,0.3,0.4,0.5c0.1,0.2,0.4,0.6,0.7,0.9c0.1,0.2,0.6,0.8,0.7,0.9c0.1,0.1,1.1,1.5,1.3,1.7
		c0.1,0.1,0.5,0.5,0.7,0.7c0,0,0,0,0,0c0.3,0.3,0.5,0.5,0.5,0.5c0.2,0.3,0.4,0.5,0.6,0.8c0.2,0.3,0.4,0.5,0.6,0.8
		c0.1,0.1,0.3,0.5,0.4,0.6c0.2,0.3,1.3,1.2,1.3,1.3c0.5,0.4,1,0.8,1.8,0.9c0.9,0.1,1.8-0.1,2.2-0.4c0.6-0.4,1.2-1.3,1.2-2
		C42.8-3.5,42.8-3.7,42.7-4.4"/>
</g>
</svg>
