<?xml version="1.0" encoding="utf-8"?>
<!-- Generator: Adobe Illustrator 21.1.0, SVG Export Plug-In . SVG Version: 6.00 Build 0)  -->
<svg version="1.1" id="Layer_1" xmlns="http://www.w3.org/2000/svg" xmlns:xlink="http://www.w3.org/1999/xlink" x="0px" y="0px"
	 viewBox="0 0 1000 150.2" style="enable-background:new 0 0 1000 150.2;" xml:space="preserve">
<path d="M60.6,36h23.9l7.2-31.7H6.9L0,36h18.9L3.1,107.1c-0.8,4.7-1.9,10-1.9,14.7c0,13.9,6.1,21.9,14.7,26.1h46.7l6.7-29.7h-8.1
	c-7.5-0.3-15.6-0.8-15.6-12.5c0-2.8,1.1-7.8,1.9-11.9C47.5,93.8,60.6,36,60.6,36z"/>
<path d="M102.8,147.1h69.2c18.1-8.6,26.9-23.3,33.1-33.1l-34.7-12.5c-4.2,6.9-12.2,20.8-33.9,20.8c-9.4,0-17.2-3.6-22.2-10.8
	c-4.2-6.1-4.4-12.2-4.4-23.1h100.8c0.6-6.1,1.1-12.2,1.1-18.3c0-45.6-31.7-63.3-64.2-63.3c-55.3,0-78.6,48.1-78.6,80.8
	C68.9,110.7,78.9,135.2,102.8,147.1L102.8,147.1z M148.1,36c5,0,10.3,1.4,14.4,3.9c11.7,6.4,11.9,17.5,11.9,22.5h-59.2
	C119.7,52.1,127.2,36,148.1,36z M355.3,70.2c0-45.6-31.7-63.3-64.2-63.3c-55,0-78.3,48.3-78.3,80.8c0,23.1,10,47.5,33.9,59.4h69.4
	c18.1-8.6,26.9-23.3,33.1-33.1l-34.7-12.5c-4.2,6.9-12.2,20.8-33.9,20.8c-9.4,0-17.2-3.6-22.2-10.8c-4.4-6.1-4.4-12.2-4.4-23.1
	h100.8C354.7,82.4,355.3,76.3,355.3,70.2L355.3,70.2z M258.9,62.4c4.4-10.3,12.2-26.4,32.8-26.4c5,0,10.3,1.4,14.4,3.9
	c11.7,6.4,11.9,17.5,11.9,22.5H258.9z M451.9,8.2c-21.4,0-33.3,12.8-40.3,20.3l4.2-16.7h-41.7l-30.8,135.3h41.4l16.1-70.6
	c2.5-11.1,5.8-21.9,12.8-28.9c4.2-4.2,10.3-7.5,16.7-7.5c5,0,15.6,2.8,15.6,15.6c0,4.2-0.8,8.3-1.7,12.8l-17.2,78.3h41.4l20-87.5
	c0.8-5,1.9-10.3,1.9-15.3C490.3,20.7,473.1,8.2,451.9,8.2L451.9,8.2z"/>
<path d="M966.4,106.9c-2.8-20.6-7.5-30.6-22.2-32.5h-10.3v69.7h17.5c20.3-1.4,43.9-16.9,48.6-49.7v51.4H896.1v-1.7h15.3V8h-10.8
	v106.1c-0.8,11.4-5.6,18.1-10.3,24.2c-6.4,7.5-13.9,9.2-17.5,10.3c-21.7,4.7-46.4,0.3-57.5-16.1c-2.8-5.3-4.7-8.1-5-25.3V8h-12.8
	V6.3h48.1V8h-13.1v117.8c-0.3,6.1,3.9,14.2,15.3,20.6c6.1,2.8,16.4,1.9,22.2,0.8c4.7-0.6,7.5-1.9,11.4-3.9
	c7.8-3.9,17.8-18.9,17.5-29.2V7.7h-16.7V6h111.7v46.4c-1.4-5.6-2.2-14.4-6.9-23.3c-8.1-15.8-18.3-22.2-36.1-21.7h-16.9v64.7h10.6
	c15-1.4,19.7-9.2,21.9-28.1L966.4,106.9L966.4,106.9z"/>
<path d="M807.2,89.9h-8.3v55c-3.3-5.8-7.2-8.9-15.6-6.7c-11.7,5.6-25.8,11.4-33.9,11.1c-8.6,0.3-16.9-2.8-25-6.7
	c-27.8-18.6-37.8-53.6-30.6-87.2c5.3-21.4,20.6-45.3,43.1-52.5c22.5-8.3,37.8,15.6,53.1-1.1v51.9c-5.3-18.6-13.9-42.8-35-50
	c-12.8-2.8-24.4,3.1-29.7,12.8c-11.7,25.6-12.2,91.9,2.2,119.4c1.9,4.2,9.7,12.2,21.9,11.7c12.2-0.6,27.2-8.3,27.2-19.2V89.9h-8.3
	v-1.7h38.9L807.2,89.9L807.2,89.9z M658.1,139.9c-11.9,8.3-26.9,12.5-42.5,9.2c-19.4-4.2-37.2-22.5-43.9-41.1
	c-8.6-27.5-5.3-61.9,13.6-83.6C600,9.6,618.1,0.2,639.4,4.9c19.4,4.2,39.4,23.9,44.7,43.1C695.3,81,686.4,118.5,658.1,139.9
	L658.1,139.9z M648.1,12.7c-6.7-7.2-20.6-9.4-31.7-5.3c-20,10.3-21.4,37.2-23.1,59.4c-1.1,15.3-1.7,54.7,14.7,75.3
	c6.7,6.7,19.4,7.5,27.8,5.3c24.7-9.2,25.6-37.2,27.5-60.3v-0.6C664.4,60.7,661.7,29.1,648.1,12.7L648.1,12.7z"/>
<path d="M593.3,8h-13.6c-14.4,45.6-29.4,93.6-43.9,138.6c-3.1-7.2-5.6-13.9-8.6-21.9L483.6,8h-10V6.3h44.7V8h-10.6L545,108.5
	l0.6,1.9C556.1,77.1,567.5,42.1,578.3,8h-15V6.3h30C593.3,6.3,593.3,8,593.3,8z"/>
</svg>
