<svg id="Layer_1" data-name="Layer 1" xmlns="http://www.w3.org/2000/svg" viewBox="0 0 1386.24 712.43">
  <title>viacom-logo</title>
  <path d="M420.27,1.72C413.18,19.15,406.18,36.62,399,54q-47.9,115.68-95.89,231.32L145.16,666.25c-5.55,13.39-11.21,26.74-16.58,40.2-1.4,3.5-3.39,4.75-7.1,4.69-12.16-.18-24.33-.06-36.5-.08-1.47,0-2.93-.19-5.19-.35.79-2.39,1.32-4.38,2.1-6.27q40.53-97.9,81.11-195.79Q253.89,289.31,344.78,70q14.16-34.16,28.49-68.26Z"/>
  <path d="M.27,708.72c4.2-9.59,8.56-19.11,12.57-28.77q43.59-105,87.05-210,47-113.56,94-227.13Q242.79,124.87,291.71,6.95a51.23,51.23,0,0,0,1.56-5.23h48q-23.87,57.45-47.74,114.91-34.66,83.55-69.28,167.11-47.62,115-95.2,229.93Q96.81,591.46,64.47,669.21c-5.11,12.31-10.28,24.59-15.22,37-1.35,3.38-3.17,4.91-7,4.83-14-.27-28-.21-42-.28Z"/>
  <path d="M159.27,711.72c.36-1.9.39-3.94,1.11-5.68q79.7-192.47,159.51-384.9A127.18,127.18,0,0,1,325,309.22c.84-1.56,3.05-3.34,4.67-3.37,13.49-.26,27-.16,40.49-.11a18,18,0,0,1,3.35.77c-.86,2.33-1.53,4.33-2.33,6.27Q289.81,509.14,208.38,705.5c-.89,2.14-2.07,4.15-3.12,6.23Z"/>
  <path d="M261.27,1.72a46.69,46.69,0,0,1-1.57,5.65Q188.43,179.5,117.18,351.64c-1.67,4-3.75,5.49-8.1,5.39-12-.29-24-.09-36-.11-1.61,0-3.22-.15-5.89-.28L214.27,1.72Z"/>
  <path d="M1318.27,711.72c-8.41-2-17-3.52-25.19-6.08-5.83-1.81-11.32-4.81-16.75-7.69-1.28-.68-2.79-3.44-2.35-4.48,4.3-10.25,9-20.34,13.78-31,2.1,1.14,3.68,2,5.22,2.85,12.11,6.92,25,10.75,39.09,10.45a24,24,0,0,0,2.5-.07c3.46-.44,7.75-.44,7.91-5.07.15-4.25-3.92-5-7.17-5.55-7.71-1.27-15.59-1.73-23.16-3.5a61.42,61.42,0,0,1-16.14-6.44c-12.43-7.07-18.16-18.32-17.68-32.45.49-14.42,7.3-25.53,20.57-31.17,28-11.91,55.54-9.6,82.05,5.25a13.1,13.1,0,0,1,2,1.46,14.1,14.1,0,0,1,1.36,1.72c-5.89,8.22-11.78,16.64-18,24.82-.61.81-3.3.69-4.69.14-9.72-3.81-19.63-6.36-30.18-5.38-3.25.3-6.8.89-6.88,5-.08,4.4,3.73,5.1,7,5.56,7.74,1.08,15.61,1.4,23.24,3,16.24,3.35,28.52,11.76,33.4,28.6v18c-4.19,13.81-13.21,23-26.78,27.72-5,1.72-10.14,2.87-15.22,4.28Z"/>
  <path d="M1346.27,711.72c5.08-1.41,10.25-2.56,15.22-4.28,13.57-4.68,22.58-13.91,26.78-27.72v32Z" style="fill: #fff"/>
  <path d="M534.83,497.91c-13.16,0-26.32-.19-39.47.1-4.72.1-6-1.64-6-6.06q.5-59.19.75-118.39c.07-14.16.19-28.31,0-42.47-.06-4.29,1.2-5.79,5.67-5.74,24.31.26,48.64-.19,72.94.44,21.57.56,42,5.74,58.7,20.42C649.75,365.82,656,391.51,654,419.9c-1.36,18.88-7.29,36.24-20,50.68-16,18.27-37.09,26-60.7,27.24-12.79.68-25.64.12-38.47.12ZM539.47,411h-.16c0,6.49,0,13,0,19.48,0,6.66,0,13.32-.25,20-.12,3.67,1,5.54,5.05,5.5,6.65-.07,13.31.5,20,.4,19.14-.3,32-9,37.82-25.43a61.88,61.88,0,0,0,2.19-32.48c-3.38-17.88-15.07-28.91-33.21-30.63-8.92-.85-17.95-.49-26.91-.9-3.58-.16-4.56,1.25-4.53,4.64C539.56,384.75,539.47,397.9,539.47,411Z"/>
  <path d="M877.84,385.94l-15.12,18.14c9.25,11.21,12.45,24.22,10.5,38.3s-9.3,25.1-20.66,34a22.07,22.07,0,0,0,2.63,2.43c31,20,21.77,60.63-.2,75.4-16.86,11.34-35.72,14.43-55.31,12.9a103.2,103.2,0,0,1-29-6.43c-20.58-8-32.35-28.37-30.66-50.14.23-3,1.37-4.08,4.28-4.05q17.49.18,35,.14c2.76,0,4.18.74,4.38,3.91.49,7.91,3,15.11,11.42,17.59,9.54,2.81,19.27,3.2,27.51-3.69,8.75-7.32,5.8-22.19-5.21-25.23-6.16-1.7-12.81-1.68-19.26-2.2-10.77-.88-21-3.53-30.41-8.9-18.09-10.36-27.24-26.34-28.64-46.88-3.57-52.34,45.57-75.92,85.51-65.22,5.91,1.58,8.94.45,12.4-4.21,7.85-10.59,8.09-10.41,18.81-2.62q10.31,7.49,20.6,15A13.07,13.07,0,0,1,877.84,385.94Zm-71.3,73c13.6.08,22.36-8.69,22.47-22.52s-9.32-24.52-22-24.64c-14.16-.13-23.5,9.52-23.4,24.15C783.69,449.54,792.94,458.82,806.54,458.9Z"/>
  <path d="M551.18,709.9c-19.15.23-38.25-2.76-55-14.31-5.86-4-11-9.15-16.48-13.71-2.38-2-2.05-3.7-.13-5.84,7.45-8.31,14.86-16.66,22.14-25.13,2.18-2.54,3.71-1.74,5.76,0,15.18,13.27,33.13,18.06,52.87,16.5a44.32,44.32,0,0,0,13.35-3.68c4.34-1.83,7.25-5.38,7.33-10.45a10,10,0,0,0-7.4-10.24c-9.22-2.59-18.76-4-28.11-6.2-11.31-2.63-23-4.44-33.74-8.58-18.94-7.28-27.65-22.52-28.68-42.44-1.08-21,7.64-36.4,26.15-46.21,18.35-9.72,38.14-11.22,58.36-9.63,17.46,1.37,33.54,6.71,48,16.9,3.48,2.46,4.29,4.27,1.29,7.83-6.34,7.51-12.34,15.3-18.33,23.1-2,2.58-3.64,3.21-6.59,1.27-13.47-8.88-28.56-10.45-44.15-9.13a26.64,26.64,0,0,0-8.14,2.28c-4.19,1.82-7.27,4.74-7.25,9.8s2.51,8.95,7.22,10.29a138.18,138.18,0,0,0,20,4.09c15.47,2,30.55,5.1,44.31,12.93,17.32,9.86,26.24,24.85,26.13,44.66-.12,20.7-10,35.85-28.27,45.45C586.14,707.69,569.29,710.16,551.18,709.9Z"/>
  <path d="M992.08,695.34c-23.28,22.06-63.25,15-79.5-2.71-9.18-10-13.56-22-15-35.22-2.06-19.49.5-38,13.14-53.86,18.54-23.2,52.35-27.82,76.66-10.81A23.43,23.43,0,0,0,990,594c0-2.34,0-4.09,0-5.83,0-16,.2-32,.05-48,0-4.19,1.49-5.56,5.53-5.43,11.81.37,23.62.63,35.44.64,4.49,0,4.63,2.55,4.62,5.82q-.14,37.72-.18,75.44-.1,42-.23,83.93c0,6.91-.15,7.11-6.95,7-9.65-.11-19.3-.53-29-.48-3.95,0-5.89-1.32-6.15-5.28C993,699.9,992.53,698,992.08,695.34Zm-1.88-48.41c0-12-5.56-21.55-14.61-25.19-16.63-6.69-32.89,5.2-33.14,24.24-.2,15.26,10,26.43,24,26.38C980.13,672.29,990.22,661.51,990.2,646.93Z"/>
  <path d="M1158.38,389.21a.71.71,0,0,0,.37-.43c2.33-10,2.33-10,12.71-9.86,8.83.15,17.66.66,26.47.41,4.91-.14,6.27,1.5,6.21,6.24-.36,28.66-.48,57.32-.67,86-.06,8.33-.22,16.67-.08,25,.06,3.71-1.42,5.07-5,5-11.49-.25-23-.26-34.47-.69-1.32,0-3.13-1.93-3.71-3.37-.91-2.26-1-4.86-1.44-7.73-3.46,2.41-6.53,4.92-9.92,6.84-27.1,15.4-65.33,4.07-78.25-24.29-11.83-26-10.29-51.71,7.19-75.09,15.59-20.85,44.2-25.24,65.05-17.45C1148.39,381.82,1153.17,386,1158.38,389.21Zm-.94,50.35c-.07-18.94-14.74-30.17-32-24.5-11.83,3.89-18.4,17.44-15.31,31.57,2.49,11.36,10.31,18.53,20.74,19C1146.93,466.36,1157.49,456,1157.44,439.56Z"/>
  <path d="M1195.72,711.08c-14.08.07-26.59-2.28-38.25-8.23-17.86-9.12-28.59-23.54-31.46-43.47-2.9-20.15.24-38.86,14.19-54.67a56.79,56.79,0,0,1,24.93-16.08c20.8-7,41.65-6.9,62,1.41,27.41,11.17,38.14,34.94,36.76,61.52C1261.7,694.64,1226.08,711.55,1195.72,711.08Zm-.94-89.42c-14.54-.1-24.51,10.24-24.6,25.5-.09,15.42,9.59,26.13,23.85,26.37s24.88-10.57,25-25.38C1219.22,632.67,1209.22,621.77,1194.78,621.67Z"/>
  <path d="M834.23,694.62c-2.36,1.9-3.87,3.15-5.41,4.35C812,712,783.67,712.77,767.4,700.49c-10.67-8.06-15.88-19.4-17-32.19-1.22-13.4-1.08-26.93-1.26-40.4-.17-12.49.18-25,0-37.48-.07-4.46,1.26-6.21,6-6.08,11.66.31,23.32.3,35,.12,4.25-.07,5.44,1.57,5.36,5.59-.39,18.81-.61,37.63-.79,56.44a65.08,65.08,0,0,0,.64,9.45c1.3,9.46,6.58,15,14.7,15.6,9.34.71,17.76-4.41,20.31-12.86a41.13,41.13,0,0,0,1.65-11.3q.31-28.24.14-56.48c0-4.67,1.38-6.5,6.27-6.35,11.32.35,22.66.3,34,.2,3.84,0,5.26,1.3,5.24,5.23q-.29,55.73-.27,111.46c0,4.15-1.5,5.55-5.57,5.45-9.49-.25-19-.17-28.49-.22-7,0-7,0-8-7.08C835,698.31,834.7,697.06,834.23,694.62Z"/>
  <path d="M1047.17,462.17c2.92,10.1,6,20.58,8.84,31.14.24.92-1.35,3-2.54,3.52-17.79,7.77-36.07,9.58-54.32,2.25-13.63-5.48-20.65-16.93-21.91-31-1.23-13.72-.76-27.6-1-41.4,0-2.66-.1-5.33,0-8s-1.16-3.89-3.89-3.85c-3.16,0-6.34-.34-9.49-.19-4.11.2-6-1-5.86-5.64.33-8.32.28-16.66,0-25-.14-4.29,1.61-5.61,5.59-5.34,3.15.21,6.33-.09,9.49.06s4.45-1.33,4.41-4.47c-.09-6.83.06-13.66,0-20.49,0-3.36,1-5,4.76-5.36,11.6-1,23.16-2.48,34.75-3.69,6.44-.67,6.56-.51,6.56,5.77,0,8,.07,16-.12,24-.08,3.19,1.15,4.65,4.25,4.7,6,.1,12,.41,18,.26,3.57-.09,5.1.89,5,4.75-.26,8.66-.26,17.33-.09,26,.07,3.76-1.4,5-5,4.85-6-.19-12,.07-18-.09-3.21-.08-4.5,1.14-4.48,4.36.09,11.83-.09,23.66.11,35.49.12,6.89,3.47,10.29,10.3,10C1037.15,464.57,1041.8,463.16,1047.17,462.17Z"/>
  <path d="M726.46,667.14c3.1,10.81,6.16,21.14,8.91,31.56.25,1-1.26,3.09-2.43,3.59-17.64,7.61-35.83,9.59-53.87,2.26C663,698,656.91,684,656.25,667.71c-.58-14.13-.26-28.3-.07-42.45.06-4.1-1.22-5.94-5.38-5.38a3.17,3.17,0,0,1-.5,0c-13.36-.36-13.36-.36-13.36-13.57,0-4.83,0-9.66,0-14.49,0-7.27,0-7.27,7-7.29a49.24,49.24,0,0,1,6,0c4.68.56,6.61-1.08,6.32-6.05-.38-6.47,0-13-.1-19.48,0-3,1.16-4.63,4.25-4.94,12.75-1.29,25.48-2.73,38.24-3.81,1.05-.09,3.28,2.16,3.31,3.36q.25,12-.31,23.95c-.31,6.45-.16,6.93,6.12,7.08,5.49.13,11,.17,16.48.1,3.26,0,5,1.12,4.92,4.62-.1,8.49-.07,17,0,25.48,0,3.77-1.65,5.34-5.5,5.19-5.65-.21-11.33.11-17-.1-3.8-.15-5.36,1-5.29,5.09.19,10.82,0,21.64,0,32.47,0,10.66,5.58,15,16.17,12.69C720.27,669.6,722.86,668.39,726.46,667.14Z"/>
  <path d="M1274.46,363.72q0,65.46,0,130.92c0,7.08-.09,7.12-7.34,7.13-10.66,0-21.33-.18-32,.09-4.88.12-6.77-1.31-6.73-6.49q.58-80.7.76-161.41c0-3.76,1.08-5.44,5.11-5.36q18,.38,36,.26c3.92,0,5.22,1.55,5.15,5.38-.18,9.82-.06,19.65-.06,29.48Z"/>
  <path d="M896,451.16c0-22,.08-44-.07-66,0-4,1-5.7,5.3-5.59,12,.29,24,.34,36,.28,3.91,0,5.2,1.51,5.16,5.35q-.53,55.23-.78,110.46c0,3.24-1.11,4.38-4.34,4.34-12.5-.15-25-.22-37.49-.07-4.08,0-4.6-2.06-4.58-5.32.07-14.5,0-29,0-43.49Z"/>
  <path d="M721.33,438.69c0,18.17-.1,36.33.07,54.5,0,4.24-1.12,5.93-5.64,5.83-12-.27-24-.22-36,0-3.89.06-5.35-1.27-5.32-5.13q.44-55,.67-110c0-3.8,1.24-5.36,5.21-5.3,12,.18,24,.21,36,0,4.29-.08,5.33,1.62,5.29,5.6-.16,18.16-.07,36.33-.07,54.5Z"/>
  <path d="M1061.17,647.32c0-18,.1-36-.07-53.92,0-4.28,1.24-5.92,5.69-5.81,11.81.29,23.63.27,35.45.18,3.76,0,5.32,1.15,5.3,5.16-.2,35.62-.21,71.23-.38,106.85,0,7.81-.42,8-8.28,8-10.65,0-21.31-.12-32,0-4.44.07-6.13-1.44-6.07-6.09.22-18.14.09-36.28.09-54.42Z"/>
  <path d="M870.45,198.67q0,4.88,0,9.75c0,12.16.09,24.32,0,36.47-.09,7.45-9.35,12.42-15.75,8.47-.95-.59-1.5-2.52-1.51-3.83-.09-20.82,0-41.64-.11-62.46,0-3.55,1.51-4.66,4.82-4.58,5.49.14,11,0,16.49,0,9.6,0,12.39,1.92,15.54,10.81,3.94,11.14,7.77,22.32,11.67,33.48.57,1.63,1.28,3.21,2.48,6.19,4-11.41,7.5-21.41,11-31.39,1.27-3.61,2.63-7.19,3.87-10.81,1.86-5.43,5.85-8,11.34-8.17,6.82-.21,13.66,0,20.48-.13,3.29-.07,4.4,1.43,4.39,4.52q-.07,31.23,0,62.46c0,3.14-1.23,4.7-4.46,4.43-.5,0-1,0-1.5,0-12.27.14-13.94-1.48-13.94-13.58s0-24,0-36q0-2.39,0-4.79l-1-.2c-2.83,7.36-5.7,14.72-8.49,22.1-3.53,9.34-7.07,18.68-10.46,28.07-1.11,3.07-2.83,4.76-6.24,4.39-1.15-.13-2.33,0-3.5,0-16-.42-11.79,2.87-17.91-12.66-5.25-13.32-10.1-26.79-15.14-40.19-.33-.87-.8-1.68-1.2-2.52Z"/>
  <path d="M634.57,182.61c6.66,0,13.33-.23,20,0,14.52.59,22.73,9.12,22.89,23.58.09,8.16.11,16.32,0,24.48-.2,13.66-7.68,22.07-21.29,22.89a266.93,266.93,0,0,1-31,0c-8.95-.5-16.56-4.11-19.73-13.48-3.07-9.07-1.06-19.34,6.06-24a37.61,37.61,0,0,1,16.19-5.33c8.4-.88,17-.22,25.45-.29,4.8,0,5.89-1.3,3.91-5.67a12.71,12.71,0,0,0-5.63-5.69c-2.41-1.17-5.48-1.25-8.28-1.3-8-.16-16,0-24-.1-6.45-.11-9.75-3.63-10.09-9.9-.2-3.74.9-5.52,5-5.38,6.82.24,13.65.06,20.48.06ZM639.73,240l0-.44a73.51,73.51,0,0,0,7.48,0c6.24-.64,10.23-4.6,10.54-10.66.06-1.25-1.24-3.69-1.93-3.69a250.45,250.45,0,0,0-26.36.74c-1.9.19-4.24,3.89-4.92,6.37-.89,3.28,1.51,5.78,4.8,6.47S636.28,239.6,639.73,240Z"/>
  <path d="M798.87,255.48c-13.08-.72-25.23-3.49-33.32-14.56-8.92-12.19-9.43-25.84-3.52-39.4s18-18.55,31.85-19.74c9.2-.79,18.32,0,26.77,4.4,13.06,6.85,20.11,20.44,18.5,35.87-1.67,16-10.7,27.08-25.58,31C808.79,254.26,803.78,254.68,798.87,255.48ZM779.3,218c0,13,7.81,21.6,19.68,21.49,11.67-.11,19.24-8.26,19.33-20.82.09-13.33-7.52-21.84-19.41-21.72S779.35,205.23,779.3,218Z"/>
  <path d="M481.39,182.82c6.46,0,12.31-.64,17.9.3,2.35.4,5,3.81,6,6.43,5.74,14,11,28.2,16.48,42.32.05.14.23.23.92.87.8-1.7,1.59-3.2,2.22-4.76,5-12.52,9.95-25.06,15-37.57,2.83-7,4.07-7.84,11.49-7.89,3.3,0,6.6,0,10.75,0-.72,2.27-1.07,3.81-1.68,5.24-8.71,20.53-17.52,41-26.11,61.6-1.46,3.5-3.5,4.84-7.17,4.59-5.45-.37-12.08,1.36-16.06-1.17-3.74-2.38-4.82-9.08-6.87-14Q494,214.41,484,189.93C483.12,187.83,482.42,185.66,481.39,182.82Z"/>
  <path d="M735,182.55c5,0,10,.07,15,0,2.91-.06,4.15,1.09,4.26,4.09.25,6.72-2.68,10.51-9.39,11-4.47.34-9,0-13.47.22-7.25.42-14.28,2.1-17.3,9.58-3.37,8.34-3.68,17,1.8,24.77,3.29,4.64,8.59,6.1,14.09,6.33,4.15.18,8.33-.09,12.48.12a21.41,21.41,0,0,1,6.78,1.32c3.75,1.5,5.79,6.47,4.88,11s-4.72,2.75-7.31,2.84c-7.31.25-14.64.13-22,.08-20.06-.14-32.19-11.26-33.45-31.28a60.81,60.81,0,0,1,1.43-16.8c3.09-13.88,13.93-22.57,28.2-23.19,4.65-.2,9.32,0,14,0Z"/>
  <path d="M919.91,371.51c-18.34-.85-30.18-14.8-25.7-30.86,2.87-10.29,14-17.35,26.19-16.61,6.83.41,13.09,2.4,18.15,7.24,10,9.54,8.66,27-3.07,34.27C930.85,368.43,925.14,369.57,919.91,371.51Z"/>
  <path d="M672.87,346.49c-.08-13.92,10.58-23.6,25.92-23.55,14.71.05,25.54,9.72,25.66,22.9.12,13.67-10.38,23.34-25.49,23.47S672.95,360,672.87,346.49Z"/>
  <path d="M1084.86,578c-16.61,0-26.92-10.09-25.79-25.35.85-11.62,10.2-19.51,24.26-20.47,15.6-1.07,27.67,9.88,27,24.46C1109.7,569.14,1099.21,578,1084.86,578Z"/>
  <path d="M591.13,218.41c0,10-.12,20,.05,30,.07,4-1.14,6-5.4,5.57-2-.2-4,0-6-.08-5.85-.32-8.64-2.94-8.67-8.69-.1-19.31,0-38.62-.09-57.93,0-3.38,1.17-4.82,4.65-4.74,18.54.41,15.08-2.82,15.42,14.43C591.25,204.09,591.14,211.25,591.13,218.41Z"/>
</svg>
