<?xml version="1.0" encoding="utf-8"?>
<!-- Generator: Adobe Illustrator 21.1.0, SVG Export Plug-In . SVG Version: 6.00 Build 0)  -->
<svg version="1.1" id="Layer_1" xmlns="http://www.w3.org/2000/svg" xmlns:xlink="http://www.w3.org/1999/xlink" x="0px" y="0px"
	 viewBox="0 0 1000.2 404.8" style="enable-background:new 0 0 1000.2 404.8;" xml:space="preserve">
<path d="M91.8,174.3c0,10,0,19.1,0,28.3c0,8.7,0.1,17.3-0.1,26c-0.1,3.5,0.8,5.1,4.7,5c10.2-0.3,8.6,0.9,8.6-8.4c0.1-12,0-24,0-36.4
	c8.1,0,15.8,0,24.2,0c0,8,0,16,0,24.5c5.4,0,10.1,0,15.4,0c0.1-1.9,0.3-3.6,0.3-5.4c0-14.7,0.1-29.3,0-44c0-4.1-0.5-8.2,6.4-6.8
	c0-4.6,0-8.5,0-12.5c0-7.3,0-7.3,7.5-8.3c0-5.7,0-11.6,0-17.9c6.7,1.1,7-2.5,6.9-7c0-3.5-1.6-7.6,2.8-10.3c0.8-0.5,0.4-3.1,0.5-4.8
	c0.4-5.5,0.7-11,2-16.4c0,4.6-0.3,9.2,0.1,13.8c0.3,3.3-1,7.1,3,9.8c1.2,0.8,0.5,4.7,0.5,7.2c-0.1,4.5-0.8,9.3,6.9,7.6
	c0,3.9,0.2,7.2,0,10.5c-0.3,4.8-0.3,9.2,7.1,7.3c0,7.1,0,13.5,0,20.2c2.4,0.5,4.3,0.8,7,1.3c0,4-0.4,8.1,0.1,12.2
	c2.1,20.2-3.2,38.4-11.9,56.6c-16.5,34.5-31.5,69.8-47.1,104.8c-2.9,6.5-3.2,6.7-10.2,4.9C62.4,319.8,12.2,262.6,3.9,196.6
	C-7.4,106.8,49.8,26.8,138.7,9.2c44.4-8.8,86,0.1,124.2,24.8c3.8,2.5,4.6,4.8,2.7,9c-5,10.5-9.5,21.3-14.3,31.9
	c-2.6,5.7-3.4,5.9-8.3,2.3C174.1,26,76.6,59,53.5,141.5c-2.5,8.9-3.1,18.3-4.6,27.5c-0.7,4.3,1.2,5.4,5.3,5.3
	c10.5-0.2,21-0.1,31.5-0.1C87.4,174.3,89.2,174.3,91.8,174.3z"/>
<path d="M385.8,280.3c-7.7,0-15.3-0.1-23,0.1c-4.3,0.1-6.9-1.7-8.5-5.5c-3.1-7.5-6.6-14.9-9.6-22.5c-2.3-5.6-6-8.3-12.2-8.2
	c-24,0.2-48,0.1-72,0c-6.1,0-9.8,2.7-12.4,8.1c-21.1,45.8-42.5,91.5-63.3,137.4c-3.1,6.8-7,9.5-14.4,9.2c-13.6-0.5-27.3-0.1-41-0.2
	c-5.6,0-6.2-1.1-3.9-6.3c55.2-123.6,110.4-247.1,165.7-370.7c0.1-0.3,0.2-0.7,0.4-0.9c1.2-1.4,2.4-2.8,3.6-4.3
	c1.1,1.4,2.5,2.5,3.3,4.1c3.5,7.4,6.8,14.8,10.2,22.3c34.5,75.9,69,151.9,103.6,227.8c4.4,9.6,4.4,9.6-6.3,9.6
	C399.1,280.3,392.5,280.3,385.8,280.3C385.8,280.3,385.8,280.3,385.8,280.3z M295.5,200.1C295.5,200.1,295.5,200,295.5,200.1
	c6.8-0.1,13.6,0,20.5-0.1c4.1-0.1,5.4-2.3,3.9-6c-7.3-17.8-14.7-35.7-22.1-53.4c-0.5-1.2-2-2-3-3c-1,1-2.3,1.9-2.8,3.1
	c-7,17.6-14,35.2-20.8,52.9c-1.7,4.4-0.4,6.2,4.4,6.4C282.1,200.2,288.8,200.1,295.5,200.1z"/>
<path d="M467.8,96c0.4-33.2,25.9-57.1,60.6-56.7c34.3,0.4,58.7,25.3,58.2,59.5c-0.4,30.7-27.1,54.9-60.3,54.5
	C492.8,153,467.4,128.1,467.8,96z M496.5,96.5c0.1,19.1,12.5,32.2,30.6,32.2c18.3,0,30.9-13.4,30.7-32.6
	c-0.2-18.9-12.8-32-30.9-31.9C509,64.1,496.5,77.4,496.5,96.5z"/>
<path d="M435.2,90.3c1.2,0.6,1.9,1.1,2.7,1.4c16.9,7.1,24,25.1,16.1,41.7c-5.8,12.2-16.8,17.1-29.3,17.6
	c-17.1,0.8-34.3,0.3-51.5,0.4c-3.3,0-4.3-1.3-4.3-4.5c0.1-33.7,0.1-67.3,0-101c0-2.9,0.6-4.8,4-4.8c16,0.2,32-0.3,48,0.5
	c12.3,0.7,22.1,6.6,26.4,18.9C451.3,72,447.2,81.9,435.2,90.3z M409.1,103C409.1,103,409.1,103,409.1,103c-2.8,0-5.7,0.1-8.5,0
	c-3.1-0.1-4.8,1.2-4.8,4.3c0,5.7-0.3,11.3,0.2,16.9c0.1,1.6,2.6,4,4.2,4.1c5.8,0.5,11.7,0.5,17.4,0c7.3-0.6,11.6-6,11.4-13.3
	c-0.3-7.2-5.1-11.9-12.5-12.1C414.1,102.9,411.6,103,409.1,103z M406.7,64.1C406.7,64.1,406.7,64.1,406.7,64.1
	c-2.2-0.1-4.3,0-6.5-0.1c-3.2-0.1-4.8,1.8-4.4,4.7c0.7,4.4-2.8,9.8,3,13c0.1,0.1,0.3,0.1,0.5,0.1c4.8,0,9.7,0.3,14.4-0.2
	c4.9-0.5,7.8-4.5,7.5-9.5c-0.3-4.5-3.3-7.5-8.1-7.9C411,64,408.9,64.1,406.7,64.1z"/>
<path d="M691.4,280.4c-10.5,0-20.1,0.1-29.7-0.2c-1.3,0-2.9-2-3.8-3.4c-3.7-6.1-7.2-12.4-10.8-18.5c-2.2-3.8-11.2-6.1-14.5-3.5
	c-1.1,0.8-1.6,2.8-1.7,4.3c-0.2,5.3-0.3,10.7,0,16c0.2,4-1,5.8-5.3,5.6c-6-0.3-12-0.2-18,0c-3.6,0.1-5.1-1.2-5.1-4.9
	c0.1-33.6,0.1-67.3,0-100.9c0-2.8,0.3-5.1,3.9-5c16.6,0.6,33.4-0.3,49.8,2c26.4,3.7,40.6,28.5,32.4,53.7
	c-2.4,7.4-6.6,13.5-13.4,17.5c-3.8,2.2-3.7,4.4-1.6,7.7c5.1,8,10,16.1,14.9,24.2C689.5,276.4,690.2,278,691.4,280.4z M630.8,211.8
	c0,4.5,0.1,9,0,13.5c-0.1,3.4,1.6,5,4.8,4.9c4.6-0.2,9.3-0.3,13.8-1.3c8.7-2,12.1-7.2,12-16.9c-0.1-9.2-3.9-14.7-12.1-16.4
	c-4.7-1-9.6-1.2-14.3-0.9c-1.4,0.1-3.7,2.7-3.9,4.3C630.5,203.1,630.8,207.5,630.8,211.8z"/>
<path d="M898,184.4c-5.5,5.7-10.5,11.2-16,16.3c-0.9,0.9-4,0.5-5.4-0.4c-8.3-5.7-17.2-8.7-27.3-6.5c-12.7,2.7-21.5,13-22.5,27.2
	c-0.4,5.2,0,10.7,1.1,15.8c2.6,11.7,10.1,19.3,22.1,20.8c7.1,0.9,14.5,0.1,21.7-0.8c7.2-0.9,3.7-6.9,4.1-10.8
	c0.4-3.9-2.9-3.7-5.6-3.7c-4.2,0-8.3-0.1-12.5,0c-3,0.1-4.3-1.2-4.2-4.1c0-4.8,0-9.7,0-14.5c0-2.9,1.3-4.1,4.3-4.1
	c13.3,0.1,26.6,0.1,40,0c3,0,4.1,1.3,4.1,4.2c-0.1,14.8,0.1,29.6-0.2,44.5c0,1.6-1.4,4.1-2.8,4.7c-22.7,9.8-45.9,14.1-69.6,3.8
	c-21-9.1-33.1-29.9-31.8-53.6c1.9-33.1,25-54.8,58.3-55C871.8,168.1,886.2,171.9,898,184.4z"/>
<path d="M916.9,225.2c0-16.5,0.1-33-0.1-49.5c-0.1-4.2,1.1-5.9,5.6-5.9c22.5,0.2,45,0.1,67.5,0c4.1,0,5.8,1.5,5.6,5.6
	c-0.2,4.3-0.2,8.7,0,13c0.2,4.4-1.2,6.2-6,6.1c-12.7-0.3-25.3,0.1-38-0.2c-4.9-0.1-6.6,1.7-6.3,6.4c0.2,3.5,0.2,7,0,10.5
	c-0.2,4,1.5,5.6,5.6,5.6c10.3-0.2,20.7,0.1,31-0.1c3.9-0.1,5.4,1.3,5.2,5.2c-0.2,4.3-0.2,8.7,0,13c0.2,4-1.6,5.2-5.3,5.2
	c-10.2-0.1-20.3,0.2-30.5-0.1c-4.7-0.1-6,1.8-6.1,6.2c0,10.4-0.2,10.4,10.3,10.4c12.2,0,24.3,0.2,36.5-0.1c4.4-0.1,6,1.5,5.7,5.8
	c-0.3,4.3-0.3,8.7,0,13c0.3,4.1-1.3,5.6-5.4,5.6c-13.5-0.2-27,0-40.5,0c-9.2,0-18.3,0-27.5,0c-7.3,0-7.3,0-7.3-7.5
	C916.9,257.1,916.9,241.1,916.9,225.2z"/>
<path d="M502.8,225.4c0-16.5,0.1-33-0.1-49.5c-0.1-4.5,1.1-6.2,5.8-6.2c22.3,0.2,44.6,0.1,66.9,0c4.4,0,6,1.6,5.8,5.9
	c-0.2,4.5-0.2,9,0,13.5c0.1,3.8-1.3,5.3-5.2,5.3c-12.8-0.2-25.6-0.1-38.5-0.1c-6,0-6.5,0.5-6.5,6.6c0,3.5,0.1,7,0,10.5
	c-0.1,3.8,1.5,5.3,5.4,5.3c10.3-0.2,20.7,0.1,31-0.1c4.1-0.1,5.8,1.2,5.5,5.4c-0.3,4.3-0.2,8.7,0,13c0.2,3.8-1.4,5-5,5
	c-10.2-0.1-20.3,0.2-30.5-0.1c-4.8-0.1-6.9,1.4-6.4,6.3c0.1,1.3,0.1,2.7,0,4c-0.5,4.8,1.7,6.5,6.4,6.4c13.5-0.2,27,0.1,40.5-0.1
	c4.2-0.1,5.6,1.5,5.5,5.5c-0.2,4.7-0.2,9.3,0,14c0.1,3.3-1,4.9-4.5,4.8c-23.8-0.1-47.6-0.1-71.4,0c-4,0-4.6-2-4.6-5.3
	C502.9,258.7,502.8,242.1,502.8,225.4z"/>
<path d="M702,95.9c0-16.3,0.1-32.6-0.1-49c-0.1-4.4,1.4-5.8,5.7-5.8c22.3,0.2,44.6,0.1,66.9,0c4,0,5.9,1.2,5.7,5.4
	c-0.2,4.5-0.2,9,0,13.5c0.1,3.8-1.3,5.3-5.3,5.3c-12.7-0.2-25.3-0.1-38-0.1c-6.4,0-6.7,0.3-6.8,6.8c0,3.5,0.1,7,0,10.5
	c-0.2,3.9,1.5,5.3,5.4,5.2c10.3-0.2,20.7,0.1,31-0.1c3.9-0.1,5.5,1.3,5.2,5.2c-0.2,4.3-0.2,8.7,0,13c0.2,3.5-1.2,4.8-4.6,4.7
	c-10-0.1-20-0.1-30,0c-6.6,0-6.8,0.3-6.9,6.7c-0.2,10.2-0.2,10.2,9.9,10.2c12.3,0,24.6,0.1,37-0.1c4.1-0.1,5.7,1.4,5.5,5.5
	c-0.3,4.3-0.3,8.7,0,13c0.3,4.2-1.4,5.6-5.5,5.5c-16.3-0.1-32.6-0.1-49-0.1c-6.8,0-13.7-0.2-20.5,0.1c-4.3,0.2-5.9-1.2-5.8-5.7
	C702.1,129.2,702,112.5,702,95.9z"/>
<path d="M802.4,280.6c-9.5,0-18.1,0.2-26.7-0.2c-1.6-0.1-4.1-2.3-4.3-3.8c-2.3-12.5-10-16-21.5-14c-0.5,0.1-1,0.1-1.5,0
	c-11.7-2.1-19.7,1.3-21.8,14.2c-0.2,1.4-2.3,3.4-3.5,3.5c-8.9,0.3-17.8,0.2-27.6,0.2c0.8-2.4,1.2-3.9,1.9-5.4
	c15.3-32.9,30.6-65.8,45.9-98.7c0.5-1.1,0.9-2.2,1.6-3.1c1.3-1.6,2.7-3.1,4.1-4.6c1.4,1.5,3.3,2.7,4.1,4.5
	c16.1,34.4,32.1,68.8,48.1,103.2C801.6,277.4,801.8,278.6,802.4,280.6z M750,222c-0.7,0-1.4,0.1-2.1,0.1c-2.7,6.9-5.5,13.8-7.9,20.8
	c-0.3,0.8,1.5,3.3,2.5,3.4c4.5,0.4,9,0.3,13.5,0c0.8,0,2.4-1.8,2.3-2.3C755.6,236.7,752.7,229.3,750,222z"/>
<path d="M386.6,170.1c10.4,0,19.8-0.2,29.2,0.2c1.4,0.1,3.1,2.8,3.9,4.6c6.6,16,13,32.1,19.5,48.1c0.7,1.8,1.7,3.4,3.1,6.3
	c1.3-2.6,2.3-4,2.9-5.6c6.6-16.2,13.2-32.3,19.6-48.6c1.5-3.9,3.8-5.4,7.8-5.3c6.7,0.2,13.3,0,20,0.1c1.6,0,3.1,0.4,5.4,0.7
	c-4.2,8.8-8.1,16.9-11.9,24.9c-12.6,26.3-25.2,52.5-37.8,78.7c-0.5,1-0.9,2.2-1.6,3.1c-1.4,1.7-3.1,3.1-4.6,4.7
	c-1.4-1.6-3.2-2.9-4.1-4.7c-6.3-12.7-12.3-25.4-18.5-38.2c-10.4-21.6-20.7-43.2-31.1-64.8C388,173.3,387.5,172.3,386.6,170.1z"/>
<path d="M582.7,41.2c6.3,0,11.8-0.1,17.4,0c16.3,0.3,12.1-2.3,18.3,12.5c5.7,13.5,10.9,27.2,16.4,40.7c0.7,1.7,1.8,3.3,3.3,5.9
	c1.3-2.6,2.3-4.1,2.9-5.8c6.5-16,13.1-32,19.4-48.1c1.5-3.9,3.7-5.4,7.8-5.2c8,0.2,15.9,0.1,24.8,0.1c-0.8,2.4-1.2,3.9-1.9,5.3
	c-16.1,33.6-32.3,67.2-48.4,100.8c-0.5,1-1,2.1-1.6,3.1c-2.3,3.4-4.2,3.4-6.3-0.1c-1.9-3.1-3.3-6.5-4.9-9.8
	c-15.1-31.5-30.3-63-45.4-94.5C584,44.8,583.7,43.5,582.7,41.2z"/>
</svg>
