<?xml version="1.0" encoding="UTF-8" standalone="no"?>
<!-- Created with Inkscape (http://www.inkscape.org/) -->

<svg
   xmlns:dc="http://purl.org/dc/elements/1.1/"
   xmlns:cc="http://creativecommons.org/ns#"
   xmlns:rdf="http://www.w3.org/1999/02/22-rdf-syntax-ns#"
   xmlns:svg="http://www.w3.org/2000/svg"
   xmlns="http://www.w3.org/2000/svg"
   xmlns:sodipodi="http://sodipodi.sourceforge.net/DTD/sodipodi-0.dtd"
   xmlns:inkscape="http://www.inkscape.org/namespaces/inkscape"
   id="svg2985"
   version="1.1"
   inkscape:version="0.48.2 r9819"
   width="1000.0001"
   height="518.33521"
   xml:space="preserve"
   sodipodi:docname="project-handbook_olay.pdf"><metadata
     id="metadata2991"><rdf:RDF><cc:Work
         rdf:about=""><dc:format>image/svg+xml</dc:format><dc:type
           rdf:resource="http://purl.org/dc/dcmitype/StillImage" /><dc:title></dc:title></cc:Work></rdf:RDF></metadata><defs
     id="defs2989"><clipPath
       clipPathUnits="userSpaceOnUse"
       id="clipPath3001"><path
         d="m 0,0 839.055,0 0,595.275 L 0,595.275 0,0 z"
         id="path3003"
         inkscape:connector-curvature="0" /></clipPath><linearGradient
       x1="0"
       y1="0"
       x2="1"
       y2="0"
       gradientUnits="userSpaceOnUse"
       gradientTransform="matrix(-197.1646,84.097855,84.097855,197.1646,411.10036,589.95996)"
       spreadMethod="pad"
       id="linearGradient3025"><stop
         style="stop-opacity:1;stop-color:#ffffff"
         offset="0"
         id="stop3027" /><stop
         style="stop-opacity:1;stop-color:#ffffff"
         offset="1"
         id="stop3029" /></linearGradient><clipPath
       clipPathUnits="userSpaceOnUse"
       id="clipPath3037"><path
         d="m 359.794,595.275 c 4.187,-2.866 7.737,-6.206 10.483,-9.896 l 0,0 c 3.666,3.045 7.122,6.352 10.337,9.896 l 0,0 -20.82,0 z m -145.364,0 c 0.693,-1.924 1.462,-3.741 2.304,-5.456 l 0,0 1.241,0 c 0,0 4.252,0 0.522,-2.042 l 0,0 -0.537,-0.294 c 1.978,-3.519 4.299,-6.572 6.947,-9.215 l 0,0 44.665,0 c 2.744,6.557 7.833,12.393 14.571,17.007 l 0,0 -69.713,0 z"
         id="path3039"
         inkscape:connector-curvature="0" /></clipPath><clipPath
       clipPathUnits="userSpaceOnUse"
       id="clipPath3051"><path
         d="m 216.734,589.819 c 0.393,-0.801 0.801,-1.578 1.226,-2.336 l 0,0 0.537,0.294 c 3.73,2.042 -0.522,2.042 -0.522,2.042 l 0,0 -1.241,0 z"
         id="path3053"
         inkscape:connector-curvature="0" /></clipPath><linearGradient
       x1="0"
       y1="0"
       x2="1"
       y2="0"
       gradientUnits="userSpaceOnUse"
       gradientTransform="matrix(-121.47661,70.134552,70.134552,121.47661,382.70998,531.99088)"
       spreadMethod="pad"
       id="linearGradient3073"><stop
         style="stop-opacity:1;stop-color:#ffffff"
         offset="0"
         id="stop3075" /><stop
         style="stop-opacity:1;stop-color:#ffffff"
         offset="0.690002"
         id="stop3077" /><stop
         style="stop-opacity:1;stop-color:#ffffff"
         offset="1"
         id="stop3079" /></linearGradient><clipPath
       clipPathUnits="userSpaceOnUse"
       id="clipPath3087"><path
         d="m 360.622,578.268 13.743,0 c -1.04,2.482 -2.415,4.863 -4.088,7.111 l 0,0 c -3.074,-2.555 -6.299,-4.93 -9.655,-7.111"
         id="path3089"
         inkscape:connector-curvature="0" /></clipPath><clipPath
       clipPathUnits="userSpaceOnUse"
       id="clipPath3101"><path
         d="m 269.572,578.268 c -1.486,-3.553 -2.285,-7.317 -2.285,-11.216 l 0,0 c 0,-1.56 0.128,-3.099 0.377,-4.611 l 0,0 c 10.393,-0.985 22.012,-1.181 34.709,-1.181 l 0,0 c 21.389,0 41.476,6.105 58.249,17.008 l 0,0 -91.05,0 z"
         id="path3103"
         inkscape:connector-curvature="0" /></clipPath><clipPath
       clipPathUnits="userSpaceOnUse"
       id="clipPath3115"><path
         d="m 284.143,595.275 c -6.738,-4.614 -11.827,-10.45 -14.571,-17.007 l 0,0 91.05,0 c 3.356,2.181 6.581,4.556 9.655,7.111 l 0,0 c -2.746,3.69 -6.296,7.03 -10.483,9.896 l 0,0 -75.651,0 z"
         id="path3117"
         inkscape:connector-curvature="0" /></clipPath><linearGradient
       x1="0"
       y1="0"
       x2="1"
       y2="0"
       gradientUnits="userSpaceOnUse"
       gradientTransform="matrix(-17.820663,74.228409,-74.228409,-17.820663,8.9233551,532.62656)"
       spreadMethod="pad"
       id="linearGradient3137"><stop
         style="stop-opacity:1;stop-color:#ffffff"
         offset="0"
         id="stop3139" /><stop
         style="stop-opacity:1;stop-color:#ffffff"
         offset="1"
         id="stop3141" /></linearGradient><clipPath
       clipPathUnits="userSpaceOnUse"
       id="clipPath3149"><path
         d="m 18.085,589.819 0.497,0 13.85,0 c -1.144,1.068 -2.782,1.48 -4.827,1.48 l 0,0 c -2.582,0 -5.814,-0.657 -9.52,-1.48"
         id="path3151"
         inkscape:connector-curvature="0" /></clipPath><clipPath
       clipPathUnits="userSpaceOnUse"
       id="clipPath3163"><path
         d="m 0,578.268 0,-17.008 27.262,0 -8.68,0 c 0,0 -4.251,0 -4.251,4.251 l 0,0 0,12.757 -14.331,0 z"
         id="path3165"
         inkscape:connector-curvature="0" /></clipPath><clipPath
       clipPathUnits="userSpaceOnUse"
       id="clipPath3177"><path
         d="m 18.085,589.819 c -0.056,-0.012 -0.112,-0.024 -0.169,-0.036 l 0,0 c 0.21,0.024 0.432,0.036 0.666,0.036 l 0,0 -0.497,0 z M 0,586.73 l 0,-8.462 14.331,0 0,7.3 c 0,0 0,3.092 2.638,4.003 l 0,0 C 11.971,588.452 6.182,587.132 0,586.73"
         id="path3179"
         inkscape:connector-curvature="0" /></clipPath><clipPath
       clipPathUnits="userSpaceOnUse"
       id="clipPath3191"><path
         d="m 14.331,578.268 0,-12.757 c 0,-4.251 4.251,-4.251 4.251,-4.251 l 0,0 8.68,0 c 3.528,5.184 5.716,11.272 6.596,17.008 l 0,0 -19.527,0 z"
         id="path3193"
         inkscape:connector-curvature="0" /></clipPath><clipPath
       clipPathUnits="userSpaceOnUse"
       id="clipPath3205"><path
         d="m 18.582,589.819 c -0.234,0 -0.456,-0.012 -0.666,-0.036 l 0,0 c -0.312,-0.071 -0.629,-0.141 -0.947,-0.212 l 0,0 c -2.638,-0.911 -2.638,-4.003 -2.638,-4.003 l 0,0 0,-7.3 19.527,0 c 0.298,1.94 0.446,3.839 0.446,5.651 l 0,0 c 0,2.899 -0.658,4.768 -1.872,5.9 l 0,0 -13.85,0 z"
         id="path3207"
         inkscape:connector-curvature="0" /></clipPath><clipPath
       clipPathUnits="userSpaceOnUse"
       id="clipPath3223"><path
         d="m 0,0 839.055,0 0,595.275 L 0,595.275 0,0 z"
         id="path3225"
         inkscape:connector-curvature="0" /></clipPath><linearGradient
       x1="0"
       y1="0"
       x2="1"
       y2="0"
       gradientUnits="userSpaceOnUse"
       gradientTransform="matrix(-48.884415,134.30882,134.30882,48.884415,603.65442,480.57669)"
       spreadMethod="pad"
       id="linearGradient3245"><stop
         style="stop-opacity:1;stop-color:#ffffff"
         offset="0"
         id="stop3247" /><stop
         style="stop-opacity:1;stop-color:#ffffff"
         offset="0.690002"
         id="stop3249" /><stop
         style="stop-opacity:1;stop-color:#ffffff"
         offset="1"
         id="stop3251" /></linearGradient><clipPath
       clipPathUnits="userSpaceOnUse"
       id="clipPath3259"><path
         d="m 550.698,595.275 c -5.617,-4.5 -10.398,-10.294 -14.021,-17.007 l 0,0 73.51,0 c -1.423,5.374 -2.243,11.054 -2.368,16.932 l 0,0 c -0.031,0.026 -0.061,0.05 -0.093,0.075 l 0,0 -57.028,0 z"
         id="path3261"
         inkscape:connector-curvature="0" /></clipPath><clipPath
       clipPathUnits="userSpaceOnUse"
       id="clipPath3271"><path
         d="m 0,0 839.055,0 0,595.275 L 0,595.275 0,0 z"
         id="path3273"
         inkscape:connector-curvature="0" /></clipPath><linearGradient
       x1="0"
       y1="0"
       x2="1"
       y2="0"
       gradientUnits="userSpaceOnUse"
       gradientTransform="matrix(-48.884415,134.30882,134.30882,48.884415,603.65442,480.57669)"
       spreadMethod="pad"
       id="linearGradient3307"><stop
         style="stop-opacity:1;stop-color:#ffffff"
         offset="0"
         id="stop3309" /><stop
         style="stop-opacity:1;stop-color:#ffffff"
         offset="0.690002"
         id="stop3311" /><stop
         style="stop-opacity:1;stop-color:#ffffff"
         offset="1"
         id="stop3313" /></linearGradient><clipPath
       clipPathUnits="userSpaceOnUse"
       id="clipPath3321"><path
         d="m 610.187,578.268 11.561,0 c -3.603,6.675 -8.352,12.443 -13.929,16.932 l 0,0 c 0.125,-5.878 0.945,-11.558 2.368,-16.932"
         id="path3323"
         inkscape:connector-curvature="0" /></clipPath><clipPath
       clipPathUnits="userSpaceOnUse"
       id="clipPath3333"><path
         d="m 0,0 839.055,0 0,595.275 L 0,595.275 0,0 z"
         id="path3335"
         inkscape:connector-curvature="0" /></clipPath><linearGradient
       x1="0"
       y1="0"
       x2="1"
       y2="0"
       gradientUnits="userSpaceOnUse"
       gradientTransform="matrix(57.607635,33.259781,33.259781,-57.607635,449.88643,557.70804)"
       spreadMethod="pad"
       id="linearGradient3357"><stop
         style="stop-opacity:1;stop-color:#ffffff"
         offset="0"
         id="stop3359" /><stop
         style="stop-opacity:1;stop-color:#ffffff"
         offset="1"
         id="stop3361" /></linearGradient><clipPath
       clipPathUnits="userSpaceOnUse"
       id="clipPath3369"><path
         d="m 464.47,595.275 c -4.528,-4.105 -7.69,-10.127 -8.572,-17.007 l 0,0 45.585,0 c -0.882,6.88 -4.045,12.902 -8.574,17.007 l 0,0 -28.439,0 z"
         id="path3371"
         inkscape:connector-curvature="0" /></clipPath><clipPath
       clipPathUnits="userSpaceOnUse"
       id="clipPath3385"><path
         d="m 0,0 839.055,0 0,595.275 L 0,595.275 0,0 z"
         id="path3387"
         inkscape:connector-curvature="0" /></clipPath><clipPath
       clipPathUnits="userSpaceOnUse"
       id="clipPath3399"><path
         d="m 0,0 839.055,0 0,595.275 L 0,595.275 0,0 z"
         id="path3401"
         inkscape:connector-curvature="0" /></clipPath><clipPath
       clipPathUnits="userSpaceOnUse"
       id="clipPath3487"><path
         d="m 0,0 839.055,0 0,595.275 L 0,595.275 0,0 z"
         id="path3489"
         inkscape:connector-curvature="0" /></clipPath><clipPath
       clipPathUnits="userSpaceOnUse"
       id="clipPath3555"><path
         d="m 48.189,471.436 c 0,0 -5.669,0 -5.669,-5.669 l 0,0 0,-96.662 c 0,0 0,-5.669 5.669,-5.669 l 0,0 68.032,0 c 0,0 5.669,0 5.669,5.669 l 0,0 0,96.662 c 0,0 0,5.669 -5.669,5.669 l 0,0 -68.032,0 z"
         id="path3557"
         inkscape:connector-curvature="0" /></clipPath><clipPath
       clipPathUnits="userSpaceOnUse"
       id="clipPath3569"><path
         d="m 0,0 839.055,0 0,595.275 L 0,595.275 0,0 z"
         id="path3571"
         inkscape:connector-curvature="0" /></clipPath><clipPath
       clipPathUnits="userSpaceOnUse"
       id="clipPath3591"><path
         d="m 0,0 839.055,0 0,595.275 L 0,595.275 0,0 z"
         id="path3593"
         inkscape:connector-curvature="0" /></clipPath><clipPath
       clipPathUnits="userSpaceOnUse"
       id="clipPath3603"><path
         d="m 58.933,190.099 46.544,0 0,129.449 -46.544,0 0,-129.449 z"
         id="path3605"
         inkscape:connector-curvature="0" /></clipPath><clipPath
       clipPathUnits="userSpaceOnUse"
       id="clipPath3617"><path
         d="m 0,0 839.055,0 0,595.275 L 0,595.275 0,0 z"
         id="path3619"
         inkscape:connector-curvature="0" /></clipPath></defs><sodipodi:namedview
     pagecolor="#ffffff"
     bordercolor="#666666"
     borderopacity="1"
     objecttolerance="10"
     gridtolerance="10"
     guidetolerance="10"
     inkscape:pageopacity="0"
     inkscape:pageshadow="2"
     inkscape:window-width="1920"
     inkscape:window-height="1028"
     id="namedview2987"
     showgrid="false"
     fit-margin-left="0.5"
     fit-margin-bottom="0.5"
     fit-margin-top="0.5"
     fit-margin-right="0.5"
     inkscape:zoom="0.44853737"
     inkscape:cx="188.88282"
     inkscape:cy="82.78015"
     inkscape:window-x="-8"
     inkscape:window-y="-8"
     inkscape:window-maximized="1"
     inkscape:current-layer="g3485" /><g
     id="g2993"
     inkscape:groupmode="layer"
     inkscape:label="project-handbook_olay"
     transform="matrix(1.25,0,0,-1.25,-45.534937,783.00253)"><g
       id="g3483"
       transform="translate(20.178847,50.447117)"><g
         id="g3485"
         clip-path="url(#clipPath3487)"><g
           id="g3491"
           transform="matrix(5.44181,0,0,5.44181,642.9846,161.68675)"><path
             d="m 0,0 c 0,0 4.435,10.176 7.055,16.224 -3.451,7.943 -17.114,40.475 -20.977,49.678 1.461,0.016 6.311,0.338 8.671,-4.599 L 10.424,23.532 c -0.086,0.358 15.031,35.843 16.402,38.475 1.841,3.531 4.013,3.772 4.94,3.88 C 27.104,54.743 5.719,4.692 5.719,4.692 3.491,0 0,0 0,0"
             style="fill:#000000;fill-opacity:1;fill-rule:nonzero;stroke:none"
             id="path3493"
             inkscape:connector-curvature="0" /></g><g
           id="g3495"
           transform="matrix(5.44181,0,0,5.44181,381.07406,234.02147)"><path
             d="m 0,0 22.815,52.466 c 0.24,0 18.469,-43.223 22.177,-52.051 C 43.423,0.396 38.819,-0.38 36.152,5.45 L 21.338,41.258 11.064,16.863 23.479,16.847 c 4.756,0 5.176,-3.493 5.179,-3.528 L 9.451,13.309 C 9.421,13.048 5.825,4.871 5.394,3.966 3.513,0.029 0,0 0,0"
             style="fill:#000000;fill-opacity:1;fill-rule:nonzero;stroke:none"
             id="path3497"
             inkscape:connector-curvature="0" /></g><g
           id="g3499"
           transform="matrix(5.44181,0,0,5.44181,381.0093,234.02147)"><path
             d="m 0,0 -0.945,0 c -5.916,0 -8.668,2.443 -8.668,7.64 l -0.025,55.121 0.017,0 c 0.947,0 5.819,-1.979 5.819,-8.211 L -3.747,5.296 C -3.747,0.642 0,0 0,0"
             style="fill:#000000;fill-opacity:1;fill-rule:nonzero;stroke:none"
             id="path3501"
             inkscape:connector-curvature="0" /></g><g
           id="g3503"
           transform="matrix(5.44181,0,0,5.44181,160.05168,237.47919)"><path
             d="m 0,0 c -14.531,0 -26.352,12 -26.352,26.755 0,14.754 11.821,26.76 26.352,26.76 14.529,0 26.348,-12.006 26.348,-26.76 C 26.348,12 14.529,0 0,0 m 1.616,50.604 c -10.921,0 -19.804,-10.714 -19.804,-23.881 0,-13.167 8.883,-23.877 19.804,-23.877 10.92,0 19.804,10.71 19.804,23.877 0,13.167 -8.884,23.881 -19.804,23.881"
             style="fill:#000000;fill-opacity:1;fill-rule:nonzero;stroke:none"
             id="path3505"
             inkscape:connector-curvature="0" /></g></g></g></g></svg>