<?xml version="1.0" encoding="utf-8"?>
<!-- Generator: Adobe Illustrator 21.1.0, SVG Export Plug-In . SVG Version: 6.00 Build 0)  -->
<svg version="1.1" id="Layer_1" xmlns="http://www.w3.org/2000/svg" xmlns:xlink="http://www.w3.org/1999/xlink" x="0px" y="0px"
	 viewBox="0 0 1022.2 657.6" style="enable-background:new 0 0 1022.2 657.6;" xml:space="preserve">
<style type="text/css">
	.st0{fill-rule:evenodd;clip-rule:evenodd;}
</style>
<path class="st0" d="M35.8,34.2c0,58.8-1.3,119.6-1.3,178.5c23.2,8.5,47.7,15,70.9,23.5c-1.1,127.8-2.2,255.6-3.4,383.4
	c2.7,1.4,5.3,2.7,8,4.1c27.3-45.2,68.2-91.8,157.5-126l7.3-40.2l22.6-4.1l3.9,32.4c48.4-16.2,95-23.8,139.8-22.8
	c0.5-24.6,1-49.2,1.5-73.8c38.7-1.2,64.8-3.5,80.6-46.6c0.9,34-10.1,86.3,21,107.6c32.2,22,85.4,15.1,116.3-16.9
	c2.5,9.1,1.9,20.6,14.1,31.8c33.3,22.5,61.5,29,101.9,37.7c9,1.6,31.5,0.4,38-5.9c0.7,7.2-0.2,16.7-0.7,23.9
	c36.4,9.8,67.9,31.7,99,54.6c4-2.1,8.1-4.2,12.1-6.3c1-113.6,2-227.3,3-340.9c21.5-8.1,42.9-16.2,64.4-24.3
	c-0.4-47.6-0.8-95.2-1.2-142.8c-92.5,78.3-194.9,142-324.8,164.8c-0.9,10.4-1.8,20.8-2.7,31.3C618.9,215.8,551.2,221,523.8,284
	c-7.6-20.3-22.2-33.8-43.8-40.5C218.7,198.5,71,127.4,35.8,34.2L35.8,34.2L35.8,34.2z M12.3,11.7L49.7,12l1.8,3.4
	c33.9,65.1,94.2,107.8,168.4,138.8c75,31.3,164.2,50.5,254.8,68.4c0.6,0.1,1.2,0.2,1.7,0.3c7.9,1.5,14.2,2.8,21.9,6.6
	c7,3.4,12.8,7.2,17.7,11.8c2.7,2.5,5.1,5.2,7.3,8.2c10.3-13,21.9-21.4,34-26.8c14.3-6.5,29.2-8.7,43.3-9.4h-0.1
	c9.9-0.6,19.7,0,29.1,2.4c5,1.3,11.4,3.3,16.1,5.8c-0.4-2.9,0.4-6.7-0.1-10.3l5.6-1.4c87.6-21.1,152.4-48.1,207.1-79.3
	c54.5-31.1,96.3-66.2,132.5-103.1l1.9-2l19.4,0.2l-1.7,194.4l-4.4,1.4c-18.8,6.2-37.7,12.5-56.5,18.7
	c-0.6,113.9-1.1,227.8-1.7,341.7l0,3.5l-3.1,1.9c-9.1,5.5-18.2,11-27.3,16.6l-4.1,2.5l-3.5-3.2c-18-16.4-36.5-29.8-55.4-41.1
	c-19.1-11.4-38.5-20.6-58.3-28.5l-4.1-1.6l0-5.5c-1.7,0-3.4-0.1-5.1-0.3c-3.7-0.3-7.5-0.8-11.4-1.4l0,0c-29-4.8-52.8-10.5-71.3-17
	c-19.2-6.7-33.1-14.5-41.7-23.2l0.3,0.3c-3.8-3.4-6.8-7.4-9.1-11.8c-0.9-1.6-1.6-3.2-2.4-4.8c-13.5,8.6-32.6,13.4-52.5,14.2
	c-15.6,0.6-31.8-1.2-46.5-5.6c-14.9-4.5-28.2-11.9-37.4-22.1c-7.8-8.7-12.6-19.4-13.1-32.1l0-0.2c0-2.3,0-4.7,0-7.1
	c0-5.1,0-10.3-0.1-15.5c-4,2.5-8.4,4.6-13,6.3c-7.1,2.6-14.7,4.1-22.7,4.6c-0.1,9.5-0.2,18.5-0.3,27.5c-0.1,11-0.2,22-0.3,33.8
	l0,5.7l-5.8,0.6c-85.6,8.2-158.4,24.8-215.4,51.8c-56.3,26.6-97.1,63.4-119.4,112.1l-2.3,5l-5.3-1.5c-10.7-3.1-21.5-6.2-32.2-9.3
	l-4.7-1.4l3.4-382.4L19,233.6l-4.6-1.3l0-4.8l-2-209.3L12.3,11.7L12.3,11.7L12.3,11.7z M25.2,24.6l1.9,198.1l69.7,20l-3.4,382.4
	c7.4,2.2,14.9,4.3,22.3,6.5c24.1-49.2,66.1-86.3,123.2-113.3c13.2-6.2,22.1-11.1,36.9-16.2l5.5-36l9.9-0.1l0.1,31.6
	c46.8-15.3,101-25.6,161.5-31.7c0.1-9.7,0.2-18.9,0.3-28.1c0.1-10.9,0.2-21.9,0.3-33.7l0-6.4l6.4,0.1c8.9,0.1,17.2-1.3,24.7-3.9
	c7.2-2.6,13.6-6.5,18.8-11.6l10-9.8l0.9,14c0.6,9.2,0.6,19,0.6,28.6c0,2.3,0,4.6,0,7l0-0.1c0.4,9.6,4,17.6,9.8,24.1
	c7.5,8.4,18.8,14.5,31.6,18.4c13.2,4,28,5.6,42.3,5.1c21-0.9,40.6-6.5,51.7-16.4l7.3-6.6l3,9.4c1.3,3.9,2.7,7.6,4.5,10.9
	c1.7,3.1,3.8,6,6.4,8.4l0.3,0.3c7.2,7.3,19.5,14,36.8,20.1c18,6.3,41,11.8,69.2,16.5l0,0c3.3,0.5,6.7,1,10.3,1.3
	c3.4,0.3,6.8,0.3,10.2,0.1l6.9-0.4l-0.1,10.3c19,7.8,37.7,16.8,56,27.7c18.5,11,36.5,23.9,54,39.4c6.7-4.1,13.4-8.1,20.1-12.2
	c0.6-114.3,1.2-228.5,1.7-342.8l0-4.6l4.4-1.4c18.8-6.2,37.7-12.5,56.5-18.7l1.5-172.5l-1.2,0c-36.5,36.9-78.7,72-133.4,103.3
	c-54.5,31.1-119.9,58.5-206,79.7c0.6,4.1-0.3,8.1,0.2,12.2l-10.4,5.8c-6.8-5.7-14.2-9.2-22-11.2c-7.9-2-16.4-2.5-25.2-2h-0.1
	c-12.9,0.6-26.2,2.6-38.7,8.2c-12.4,5.6-27.5,17-37.7,32.3l-2.4-0.2c-2.7-5.2-11.2-12.1-15.1-15.7c-4-3.7-8.8-6.8-14.6-9.6
	c-6.3-3.1-11.9-4.2-18.8-5.5c-0.6-0.1-1.1-0.2-1.7-0.3C380.9,217,291,197.6,215,166C139.5,134.5,77.8,91,42,24.7L25.2,24.6
	L25.2,24.6L25.2,24.6z M48.2,84.1c-0.3,38.4-0.7,76.8-1,115.2c23.9,7.6,47.9,15.3,71.8,22.9c-1.7,121.7-2.8,248.1-4.6,369.8
	c22-23.9,41.7-46.3,65.3-59c1.1-96.7,2.1-191.3,3.2-288c18.9,5.8,37.9,11.7,56.8,17.5c5.6-18.3,11.2-37.9,16.9-56.1
	C163.7,178.7,90.3,141.1,48.2,84.1L48.2,84.1L48.2,84.1z M197.2,268.1L196,400.3l11.1,1.4l30.5-121.5L197.2,268.1L197.2,268.1
	L197.2,268.1z M205.6,278.6L202,392.5L229.8,286L205.6,278.6L205.6,278.6L205.6,278.6z M269.7,213.1
	c-16.9,66.6-33.9,133.2-50.9,199.9c-7.6,1-15.3,2-22.9,3.1c-0.1,15.5-0.3,31-0.4,46.5c4.4-0.6,8.7-1.2,13.1-1.8
	c-4.5,20.2-9.1,40.5-13.6,60.8c20-13.4,39.9-21.9,59.8-28.3c3.6-15.2,7.2-30.5,10.9-45.7c15.1-2.7,28.9-5.4,43.9-8.1
	c1.2,10.7,2.4,22.7,3.6,33.4c17.3-3.8,35.9-8.9,53.1-12.6l-38.5-236L269.7,213.1L269.7,213.1L269.7,213.1z M286.8,344.8l7.2,0.1
	l11.3,57l-31.5,3.7L286.8,344.8L286.8,344.8L286.8,344.8z M347.4,231.4c2.9,19.7,3.8,40.6,6.7,60.3c29.5,5.9,59.8,9.9,92.8,15.9
	c18.6,1.9,15.3,23.7,1.1,22.3c-25.3-1.5-50.6-3.1-75.9-4.6c0.7,43.6,1.4,87.3,2.1,130.9c16.2-0.7,32.3-1.5,48.5-2.2
	c0-24.2,0-48.4,0-72.7c15.1-0.3,30.1-0.6,45.2-0.9c13.8-4.3,24.4-8,31.8-20.2c13.2-18.2,16.3-45.9,8.6-66.1
	c-5.5-16-16.3-28.8-32.8-35.5C433.7,247.8,390.9,238.9,347.4,231.4L347.4,231.4L347.4,231.4z M598.4,289.4L598.4,289.4
	c8.9,0.1,16.1,6.1,16,13.5l-0.8,96.1c-0.1,7.3-7.4,13.3-16.3,13.2l0,0c-8.9-0.1-16.1-6.1-16-13.5l0.8-96.1
	C582.2,295.2,589.6,289.3,598.4,289.4L598.4,289.4L598.4,289.4z M595.6,242.8l10.3,0.1c29.8,0.3,54.1,24.9,53.8,54.7l-0.9,99.5
	c-0.3,29.8-24.9,54.1-54.7,53.8l-10.3-0.1c-29.7-0.3-59.9-11.1-59.5-54.8l0.9-99.5C535.4,266.7,565.8,242.6,595.6,242.8L595.6,242.8
	L595.6,242.8z M681,233.3c-1.4,60.3-2.8,123.2-4.2,183.4c-0.2,17.2,2.2,34.1,22.8,48c21,11.8,47.2,20.2,78.6,25.2
	c28.8,7,37.6-11,37.8-33.6c0.6-63.6,1.1-127.2,1.7-190.9c-18.6,7.2-37.1,11.7-55.7,18.9c-0.8,43.1-1.6,88.7-2.4,131.8
	c-0.2,17.7-28.5,19.4-28.4-2.8c-1-61.8,1.7-125.9,1.7-191.2C715.5,225.8,698.2,229.5,681,233.3L681,233.3L681,233.3z M761.7,212.1
	c-0.2,19.3-0.3,38.7-0.5,58c25.3-10.1,50.5-20.2,75.8-30.3c-0.3,89.9-0.7,179.8-1,269.7c23.3,9.8,47.4,23.9,72.4,44.5
	c1-112.1,2-224.3,3-336.4c20.3-7.5,40.6-14.9,60.9-22.4c0.3-32.6,0.6-65.2,0.9-97.8C903.4,153.2,832.9,190.4,761.7,212.1
	L761.7,212.1L761.7,212.1z M970.6,562.5c2.9,0,5.6,0.6,8.2,1.9c2.6,1.2,4.7,2.9,6.2,5.2c1.5,2.3,2.2,4.6,2.2,7
	c0,2.4-0.8,4.7-2.3,6.9c-1.5,2.2-3.6,3.9-6.2,5.1c-2.7,1.2-5.4,1.8-8.3,1.8c-2.9,0-5.7-0.7-8.3-1.9c-2.6-1.3-4.7-3-6.1-5.2
	c-1.5-2.2-2.2-4.5-2.2-7c0-2.4,0.8-4.8,2.3-7c1.5-2.2,3.6-3.9,6.3-5.1C965,563,967.7,562.5,970.6,562.5L970.6,562.5L970.6,562.5z
	 M970.6,565.2c-2.3,0-4.5,0.4-6.6,1.4c-2.1,0.9-3.8,2.3-5,4.1c-1.2,1.8-1.9,3.7-1.9,5.6c0,2,0.6,3.8,1.7,5.6
	c1.2,1.8,2.8,3.2,4.9,4.2c2.1,1,4.3,1.5,6.7,1.5c2.3,0,4.6-0.5,6.7-1.4c2.1-1,3.8-2.3,5-4.1c1.2-1.8,1.8-3.6,1.8-5.6
	c0-2-0.6-3.8-1.8-5.7c-1.2-1.8-2.9-3.2-5-4.2C975.1,565.7,972.9,565.2,970.6,565.2L970.6,565.2L970.6,565.2z M962.8,583.8L963,569
	l3.6,0c3.4,0,5.3,0.1,5.7,0.1c1.2,0.1,2.1,0.3,2.8,0.6c0.7,0.3,1.2,0.8,1.6,1.4c0.4,0.6,0.7,1.4,0.7,2.1c0,1.1-0.4,2-1.3,2.7
	c-0.8,0.8-2,1.2-3.5,1.4c0.5,0.2,1,0.4,1.2,0.6c0.3,0.2,0.7,0.6,1.2,1.1c0.1,0.1,0.6,0.8,1.3,1.8l2.1,3l-4.4,0l-1.5-2.4
	c-1-1.6-1.8-2.6-2.5-3.1c-0.6-0.4-1.5-0.6-2.5-0.6l-0.9,0l-0.1,6.1L962.8,583.8L962.8,583.8L962.8,583.8z M966.5,575.4l1.5,0
	c2.1,0,3.4,0,3.9-0.2c0.5-0.1,0.9-0.4,1.2-0.7c0.3-0.3,0.4-0.7,0.5-1.1c0-0.4-0.1-0.8-0.4-1.1c-0.3-0.3-0.7-0.6-1.2-0.7
	c-0.5-0.1-1.8-0.2-3.9-0.2l-1.5,0L966.5,575.4L966.5,575.4L966.5,575.4z"/>
</svg>
