<?xml version="1.0" encoding="utf-8"?>
<!-- Generator: Adobe Illustrator 21.1.0, SVG Export Plug-In . SVG Version: 6.00 Build 0)  -->
<svg version="1.1" id="Layer_1" xmlns="http://www.w3.org/2000/svg" xmlns:xlink="http://www.w3.org/1999/xlink" x="0px" y="0px"
	 viewBox="0 0 1013.8 275.4" style="enable-background:new 0 0 1013.8 275.4;" xml:space="preserve">
<polygon points="182.4,5.2 182.4,7.9 205.6,7.9 146.5,199.7 76.5,7.9 99.5,7.9 99.5,5.2 5.7,5.2 5.7,7.9 30.4,7.9 127.3,273 
	210.6,7.9 233,7.9 233,5.2 "/>
<path d="M599.7,0.6v92.1h-2.1c-4-18.1-9.5-35.8-19.3-51.8c-11.6-18.7-30-39.7-54-39.7c-55.2,0-60.2,98.9-60.2,136.6
	c0,33.8,2.7,68.6,14.9,100.2c8.6,22.2,21,33.1,44.1,33.1c18.3,0,37.8-9.3,47.5-25.2c2.5-4.2,2.7-8.8,2.7-13.5v-71.2h-24.1v-2.8h88.2
	v2.8h-20.6v106.5h-1.8c-5.2-8.7-13.4-14.4-23.9-14.4c-7.6,0-15,2.7-21.7,6.4l-6,3.3c-13.5,6-26.4,10.3-41.4,10.3
	c-68.5,0-104.9-73-104.9-133.6c0-44.3,16.9-91.6,52.8-119.3C486,8,505.5-1.2,526.2-1.2c8.1,0,16.1,2.5,23.6,5.5l5.5,2.1
	c6.3,2.3,13.1,4.5,19.9,4.5c8.4,0,15.9-5.5,22.4-10.3L599.7,0.6L599.7,0.6z"/>
<path d="M620.7,5.2h94.1v2.7h-25v204.4c0,32,33,51.5,61.8,51.5c31,0,57.2-21.6,57.2-53.3V7.9h-29.5V5.2h221.4V100h-1.8
	C996,75,991.2,49.2,974,29.6C956.5,9.9,932.8,7.9,908.4,7.9H882v121.9c5.4,0.6,10.9,1,16.4,1c33.1,0,41.7-22.8,43.1-50.9h2.4v107
	h-2.4c-4.2-25.6-15.4-53-45.4-53c-4.7,0-9.4,0.3-14.1,0.7V265h39.4c20.4,0,40.8-8.9,55.3-23.1c12.3-12.2,20.9-28,23.9-45
	c1.6-9.5,2.4-19.3,2.9-28.9h2.1v99.8H815.8V265h22.1V7.9h-25.1v203.3c0,42-39.9,60.7-77.3,60.7c-42.3,0-89-20.5-89-69V7.9h-25.7
	L620.7,5.2L620.7,5.2z"/>
<path d="M362.8,137.5c0-38.3-13.7-134-65.5-134c-52,0-65.5,95.6-65.5,134c0,38.4,13.6,134.1,65.5,134.1
	C349.1,271.5,362.8,175.7,362.8,137.5 M297.2,275.5c-31.2,0-61-17.5-80.2-41.3c-22-27.1-32.7-62.1-32.7-96.7
	c0-33.3,9.8-66.7,30.2-93.3c20.1-26,50.2-44.7,83.8-44.7c30.9,0,60.5,17.7,79.5,41.2c21.9,27.1,32.8,62.2,32.8,96.8
	c0,33.2-9.9,66.6-30.2,93.2C360.4,256.6,330.4,275.5,297.2,275.5"/>
</svg>
